{
.appVersion = "1181";
DisplayStrings = (
archetype,
"@Ga/g.smcp/commaaccent/commaaccentcomb"
);
classes = (
{
automatic = 1;
code = "A B C D E F G H I J K L M N O P Q R S T U V W X Y Z Agrave Aacute Acircumflex Atilde Amacron Abreve Adieresis Aring Aogonek AE Cacute Ccircumflex Cdotaccent Ccaron Ccedilla Dcaron Dcroat Egrave Eacute Ecircumflex Emacron Ebreve Edotaccent Edieresis Ecaron Eogonek Gcircumflex Gbreve Gdotaccent Gcommaaccent Hcircumflex Hbar Igrave Iacute Icircumflex Itilde Imacron Ibreve Idotaccent Idieresis Iogonek IJ Jcircumflex Kcommaaccent Lacute Lcommaaccent Lcaron Ldot Lslash Nacute Ntilde Ncaron Eng Ncommaaccent Ograve Oacute Ocircumflex Otilde Omacron Obreve Odieresis Ohungarumlaut Oslash OE Racute Rcaron Rcommaaccent Sacute Scircumflex Scaron Scommaaccent Scedilla Germandbls Tcaron Tcommaaccent Tcedilla Tbar Ugrave Uacute Ucircumflex Utilde Umacron Ubreve Udieresis Uring Uhungarumlaut Uogonek Wgrave Wacute Wcircumflex Wdieresis Ygrave Yacute Ycircumflex Ydieresis Zacute Zdotaccent Zcaron Eth Thorn Germandbls.c2sc Q.ss02";
name = Uppercase;
}
);
copyright = "Copyright (c) 2011 by Anna Giedrys. All rights reserved. Reserved Font Name: Signika.";
customParameters = (
{
name = trademark;
value = "Signika Light is a trademark of Anna Giedrys.";
},
{
name = openTypeOS2Type;
value = (
2
);
},
{
name = glyphOrder;
value = (
.notdef,
NULL,
CR,
space,
nbspace,
A,
B,
C,
D,
E,
F,
G,
H,
I,
J,
K,
L,
M,
N,
O,
P,
Q,
R,
S,
T,
U,
V,
W,
X,
Y,
Z,
a,
b,
c,
d,
e,
f,
g,
h,
i,
j,
k,
l,
m,
n,
o,
p,
q,
r,
s,
t,
u,
v,
w,
x,
y,
z,
a.smcp,
b.smcp,
c.smcp,
d.smcp,
e.smcp,
f.smcp,
g.smcp,
h.smcp,
i.smcp,
j.smcp,
k.smcp,
l.smcp,
m.smcp,
n.smcp,
o.smcp,
p.smcp,
q.smcp,
r.smcp,
s.smcp,
t.smcp,
u.smcp,
v.smcp,
w.smcp,
x.smcp,
y.smcp,
z.smcp,
quotesingle,
quotedbl,
numbersign,
ampersand,
asterisk,
comma,
hyphen,
hyphen.case,
softhyphen,
period,
colon,
semicolon,
question,
exclam,
questiondown,
exclamdown,
at,
parenleft,
parenright,
bracketleft,
bracketright,
braceleft,

glyphs = (
{
glyphname = A;
lastChange = "2018-11-23 02:58:08 +0000";
layers = (
{
anchors = (
{
name = bottom_U;
position = "{648, -40}";
},
{
name = top_U;
position = "{648, 1464}";
}
);
layerId = UUID1;
paths = (
{
closed = 1;
nodes = (
"14 26 LINE",
"26 8 LINE",
"64 -6 OFFCURVE",
"138 -14 OFFCURVE",
"188 -14 CURVE SMOOTH",
"240 -14 OFFCURVE",
"288 -12 OFFCURVE",
"330 -2 CURVE",
"524 668 LINE SMOOTH",
"556 782 OFFCURVE",
"604 948 OFFCURVE",
"624 1062 CURVE",
"636 1062 LINE",
"670 926 OFFCURVE",
"716 756 OFFCURVE",
"746 644 CURVE SMOOTH",
"878 164 LINE SMOOTH",
"918 20 OFFCURVE",
"972 -18 OFFCURVE",
"1078 -18 CURVE SMOOTH",
"1140 -18 OFFCURVE",
"1224 -4 OFFCURVE",
"1270 22 CURVE",
"842 1364 LINE",
"788 1374 OFFCURVE",
"702 1378 OFFCURVE",
"648 1378 CURVE SMOOTH",
"592 1378 OFFCURVE",
"508 1374 OFFCURVE",
"454 1366 CURVE"
);
},
{
closed = 1;
nodes = (
"772 280 LINE SMOOTH",
"802 280 OFFCURVE",
"840 282 OFFCURVE",
"870 282 CURVE",
"1048 282 LINE",
"964 542 LINE",
"802 542 LINE",
"772 542 OFFCURVE",
"734 544 OFFCURVE",
"704 544 CURVE SMOOTH",
"566 544 LINE SMOOTH",
"536 544 OFFCURVE",
"498 542 OFFCURVE",
"468 542 CURVE",
"312 542 LINE",
"210 282 LINE",
"388 282 LINE",
"418 282 OFFCURVE",
"456 280 OFFCURVE",
"486 280 CURVE SMOOTH"
);
}
);
width = 1284;
},
{
anchors = (
{
name = bottom_U;
position = "{597, -40}";
},
{
name = top_U;
position = "{597, 1464}";
}
);
layerId = "59A137EB-1A44-4616-9625-4B79FA594CBD";
paths = (
{
closed = 1;
nodes = (
"52 9 LINE",
"56 2 LINE",
"79 -4 OFFCURVE",
"100 -8 OFFCURVE",
"131 -8 CURVE SMOOTH",
"155 -8 OFFCURVE",
"180 -6 OFFCURVE",
"199 -2 CURVE",
"515 963 LINE SMOOTH",
"531 1016 OFFCURVE",
"562 1123 OFFCURVE",
"582 1201 CURVE",
"592 1201 LINE",
"617 1110 OFFCURVE",
"655 984 OFFCURVE",
"695 866 CURVE SMOOTH",
"958 67 LINE SMOOTH",
"979 5 OFFCURVE",
"1001 -12 OFFCURVE",
"1050 -12 CURVE SMOOTH",
"1087 -12 OFFCURVE",
"1118 -6 OFFCURVE",
"1141 9 CURVE",
"682 1366 LINE",
"665 1370 OFFCURVE",
"622 1372 OFFCURVE",
"599 1372 CURVE SMOOTH",
"573 1372 OFFCURVE",
"533 1370 OFFCURVE",
"509 1366 CURVE"
);
},
{
closed = 1;
nodes = (
"723 354 LINE SMOOTH",
"736 354 OFFCURVE",
"861 356 OFFCURVE",
"876 356 CURVE",
"936 356 LINE",
"892 487 LINE",
"838 487 LINE",
"823 487 OFFCURVE",
"717 489 OFFCURVE",
"704 489 CURVE SMOOTH",
"475 489 LINE SMOOTH",
"462 489 OFFCURVE",
"359 487 OFFCURVE",
"345 487 CURVE",
"291 487 LINE",
"242 356 LINE",
"303 356 LINE",
"317 356 OFFCURVE",
"441 354 OFFCURVE",
"454 354 CURVE SMOOTH"
);
}
);
width = 1193;
},
{
anchors = (
{
name = bottom_U;
position = "{578, -40}";
},
{
name = top_U;
position = "{578, 1464}";
}
);
layerId = "9ED2045D-B62B-46E9-A722-9499BEB4CDB9";
paths = (
{
closed = 1;
nodes = (
"66 3 LINE",
"68 0 LINE",
"85 -3 OFFCURVE",
"86 -6 OFFCURVE",
"110 -6 CURVE SMOOTH",
"123 -6 OFFCURVE",
"140 -4 OFFCURVE",
"150 -2 CURVE",
"511 1072 LINE SMOOTH",
"522 1102 OFFCURVE",
"547 1188 OFFCURVE",
"567 1252 CURVE",
"576 1252 LINE",
"597 1179 OFFCURVE",
"633 1068 OFFCURVE",
"676 949 CURVE SMOOTH",
"987 31 LINE SMOOTH",
"1001 -1 OFFCURVE",
"1011 -10 OFFCURVE",
"1039 -10 CURVE SMOOTH",
"1067 -10 OFFCURVE",
"1078 -7 OFFCURVE",
"1093 4 CURVE",
"623 1367 LINE",
"619 1369 OFFCURVE",
"593 1370 OFFCURVE",
"580 1370 CURVE SMOOTH",
"566 1370 OFFCURVE",
"542 1369 OFFCURVE",
"530 1366 CURVE"
);
},
{
closed = 1;
nodes = (
"704 382 LINE SMOOTH",
"711 382 OFFCURVE",
"869 384 OFFCURVE",
"878 384 CURVE",
"894 384 LINE",
"865 466 LINE",
"851 466 LINE",
"842 466 OFFCURVE",
"711 468 OFFCURVE",
"704 468 CURVE SMOOTH",
"441 468 LINE SMOOTH",
"434 468 OFFCURVE",
"308 466 OFFCURVE",
"299 466 CURVE",
"283 466 LINE",
"254 384 LINE",
"271 384 LINE",
"280 384 OFFCURVE",
"435 382 OFFCURVE",
"442 382 CURVE SMOOTH"
);
}
);
width = 1192;
}
);
leftKerningGroup = A;
rightKerningGroup = A;
unicode = 0041;
},
{
glyphname = B;
lastChange = "2018-11-23 02:58:08 +0000";
layers = (
{
anchors = (
{
name = bottom_U;
position = "{598, -40}";
},
{
name = top_U;
position = "{582, 1464}";
}
);
layerId = UUID1;
paths = (
{
closed = 1;
nodes = (
"148 1356 LINE",
"148 10 LINE",
"162 -4 LINE",
"336 -8 OFFCURVE",
"508 -12 OFFCURVE",
"662 -12 CURVE SMOOTH",
"964 -12 OFFCURVE",
"1166 106 OFFCURVE",
"1166 394 CURVE SMOOTH",
"1166 578 OFFCURVE",
"1022 744 OFFCURVE",
"860 754 CURVE",
"860 722 LINE",
"990 738 OFFCURVE",
"1102 868 OFFCURVE",
"1102 1014 CURVE SMOOTH",
"1102 1270 OFFCURVE",
"906 1378 OFFCURVE",
"630 1378 CURVE SMOOTH",
"486 1378 OFFCURVE",
"324 1374 OFFCURVE",
"162 1370 CURVE"
);
},
{
closed = 1;
nodes = (
"478 1144 LINE",
"526 1142 OFFCURVE",
"580 1142 OFFCURVE",
"612 1142 CURVE SMOOTH",
"738 1142 OFFCURVE",
"776 1066 OFFCURVE",
"776 990 CURVE SMOOTH",
"776 914 OFFCURVE",
"740 834 OFFCURVE",
"612 834 CURVE SMOOTH",
"352 834 LINE",
"352 598 LINE",
"636 598 LINE SMOOTH",
"788 598 OFFCURVE",
"830 494 OFFCURVE",
"830 408 CURVE SMOOTH",
"830 326 OFFCURVE",
"792 222 OFFCURVE",
"636 222 CURVE SMOOTH",
"598 222 OFFCURVE",
"540 222 OFFCURVE",
"478 220 CURVE"
);
}
);
width = 1232;
},
{
anchors = (
{
name = bottom_U;
position = "{590, -40}";
},
{
name = top_U;
position = "{557, 1464}";
}
);
layerId = "59A137EB-1A44-4616-9625-4B79FA594CBD";
paths = (
{
closed = 1;
nodes = (
"197 1354 LINE",
"197 12 LINE",
"210 0 LINE",
"349 -2 OFFCURVE",
"457 -6 OFFCURVE",
"622 -6 CURVE SMOOTH",
"970 -6 OFFCURVE",
"1086 186 OFFCURVE",
"1086 377 CURVE SMOOTH",
"1086 589 OFFCURVE",
"916 738 OFFCURVE",
"748 739 CURVE",
"748 711 LINE",
"914 729 OFFCURVE",
"1020 857 OFFCURVE",
"1020 1012 CURVE SMOOTH",
"1020 1223 OFFCURVE",
"904 1372 OFFCURVE",
"600 1372 CURVE SMOOTH",
"473 1372 OFFCURVE",
"349 1368 OFFCURVE",
"210 1366 CURVE"
);
},
{
closed = 1;
nodes = (
"351 1247 LINE",
"423 1245 OFFCURVE",
"536 1245 OFFCURVE",
"603 1245 CURVE SMOOTH",
"822 1245 OFFCURVE",
"860 1123 OFFCURVE",
"860 1015 CURVE SMOOTH",
"860 910 OFFCURVE",
"814 783 OFFCURVE",
"597 783 CURVE SMOOTH",
"287 783 LINE",
"287 653 LINE",
"615 653 LINE SMOOTH",
"860 653 OFFCURVE",
"925 494 OFFCURVE",
"925 387 CURVE SMOOTH",
"925 277 OFFCURVE",
"879 121 OFFCURVE",
"634 121 CURVE SMOOTH",
"541 121 OFFCURVE",
"445 119 OFFCURVE",
"351 119 CURVE"
);
}
);
width = 1200;
},
{
anchors = (
{
name = bottom_U;
position = "{588, -40}";
},
{
name = top_U;
position = "{548, 1464}";
}
);
layerId = "9ED2045D-B62B-46E9-A722-9499BEB4CDB9";
paths = (
{
closed = 1;
nodes = (
"216 1353 LINE",
"216 13 LINE",
"227 1 LINE",
"354 0 OFFCURVE",
"438 -4 OFFCURVE",
"607 -4 CURVE SMOOTH",
"972 -4 OFFCURVE",
"1057 215 OFFCURVE",
"1057 371 CURVE SMOOTH",
"1057 594 OFFCURVE",
"876 736 OFFCURVE",
"706 733 CURVE",
"706 706 LINE",
"886 725 OFFCURVE",
"990 852 OFFCURVE",
"990 1011 CURVE SMOOTH",
"990 1205 OFFCURVE",
"903 1370 OFFCURVE",
"588 1370 CURVE SMOOTH",
"468 1370 OFFCURVE",
"358 1366 OFFCURVE",
"227 1365 CURVE"
);
},
{
closed = 1;
nodes = (
"304 1285 LINE",
"385 1283 OFFCURVE",
"520 1283 OFFCURVE",
"599 1283 CURVE SMOOTH",
"853 1283 OFFCURVE",
"891 1144 OFFCURVE",
"891 1024 CURVE SMOOTH",
"891 909 OFFCURVE",
"842 764 OFFCURVE",
"591 764 CURVE SMOOTH",
"263 764 LINE",
"263 674 LINE",
"607 674 LINE SMOOTH",
"887 674 OFFCURVE",
"960 494 OFFCURVE",
"960 379 CURVE SMOOTH",
"960 258 OFFCURVE",
"912 84 OFFCURVE",
"633 84 CURVE SMOOTH",
"520 84 OFFCURVE",
"410 81 OFFCURVE",
"304 82 CURVE"
);
}
);
width = 1200;
}
);
unicode = 0042;
},
{
glyphname = C;
lastChange = "2018-11-23 02:58:08 +0000";
layers = (
{
anchors = (
{
name = bottom_U;
position = "{656, -40}";
},
{
name = top_U;
position = "{654, 1466}";
}
);
layerId = UUID1;
paths = (
{
closed = 1;
nodes = (
"898 802 OFFCURVE",
"936 794 OFFCURVE",
"984 794 CURVE SMOOTH",
"1102 794 OFFCURVE",
"1176 846 OFFCURVE",
"1176 978 CURVE SMOOTH",
"1176 1218 OFFCURVE",
"970 1398 OFFCURVE",
"658 1398 CURVE SMOOTH",
"336 1398 OFFCURVE",
"68 1182 OFFCURVE",
"68 678 CURVE SMOOTH",
"68 336 OFFCURVE",
"198 -30 OFFCURVE",
"624 -30 CURVE SMOOTH",
"848 -30 OFFCURVE",
"1060 70 OFFCURVE",
"1176 184 CURVE",
"1162 262 OFFCURVE",
"1088 356 OFFCURVE",
"1024 400 CURVE",
"934 338 OFFCURVE",
"826 262 OFFCURVE",
"686 262 CURVE SMOOTH",
"516 262 OFFCURVE",
"420 398 OFFCURVE",
"420 676 CURVE SMOOTH",
"420 972 OFFCURVE",
"480 1132 OFFCURVE",
"646 1132 CURVE SMOOTH",
"818 1132 OFFCURVE",
"862 980 OFFCURVE",
"858 812 CURVE"
);
}
);
width = 1220;
},
{
anchors = (
{
name = bottom_U;
position = "{633, -40}";
},
{
name = top_U;
position = "{637, 1466}";
}
);
layerId = "59A137EB-1A44-4616-9625-4B79FA594CBD";
paths = (
{
closed = 1;
nodes = (
"980 926 OFFCURVE",
"995 923 OFFCURVE",
"1020 923 CURVE SMOOTH",
"1091 923 OFFCURVE",
"1106 970 OFFCURVE",
"1106 1014 CURVE SMOOTH",
"1106 1197 OFFCURVE",
"930 1390 OFFCURVE",
"641 1390 CURVE SMOOTH",
"359 1390 OFFCURVE",
"114 1171 OFFCURVE",
"114 676 CURVE SMOOTH",
"114 315 OFFCURVE",
"253 -24 OFFCURVE",
"616 -24 CURVE SMOOTH",
"812 -24 OFFCURVE",
"982 61 OFFCURVE",
"1089 169 CURVE",
"1077 205 OFFCURVE",
"1042 246 OFFCURVE",
"1005 269 CURVE",
"877 158 OFFCURVE",
"756 110 OFFCURVE",
"639 110 CURVE SMOOTH",
"413 110 OFFCURVE",
"276 320 OFFCURVE",
"276 676 CURVE SMOOTH",
"276 1059 OFFCURVE",
"408 1261 OFFCURVE",
"640 1261 CURVE SMOOTH",
"877 1261 OFFCURVE",
"955 1077 OFFCURVE",
"951 934 CURVE"
);
}
);
width = 1201;
},
{
anchors = (
{
name = bottom_U;
position = "{625, -40}";
},
{
name = top_U;
position = "{631, 1466}";
}
);
layerId = "9ED2045D-B62B-46E9-A722-9499BEB4CDB9";
paths = (
{
closed = 1;
nodes = (
"1010 971 OFFCURVE",
"1017 971 OFFCURVE",
"1033 971 CURVE SMOOTH",
"1086 971 OFFCURVE",
"1080 1015 OFFCURVE",
"1080 1027 CURVE SMOOTH",
"1080 1189 OFFCURVE",
"915 1388 OFFCURVE",
"635 1388 CURVE SMOOTH",
"367 1388 OFFCURVE",
"130 1166 OFFCURVE",
"130 675 CURVE SMOOTH",
"130 307 OFFCURVE",
"274 -22 OFFCURVE",
"614 -22 CURVE SMOOTH",
"799 -22 OFFCURVE",
"953 57 OFFCURVE",
"1056 163 CURVE",
"1045 184 OFFCURVE",
"1026 205 OFFCURVE",
"998 220 CURVE",
"856 91 OFFCURVE",
"730 54 OFFCURVE",
"621 54 CURVE SMOOTH",
"375 54 OFFCURVE",
"222 291 OFFCURVE",
"222 676 CURVE SMOOTH",
"222 1092 OFFCURVE",
"381 1309 OFFCURVE",
"638 1309 CURVE SMOOTH",
"899 1309 OFFCURVE",
"990 1113 OFFCURVE",
"986 979 CURVE"
);
}
);
width = 1202;
}
);
leftKerningGroup = C;
rightKerningGroup = C;
unicode = 0043;
},
{
glyphname = D;
lastChange = "2018-11-23 02:58:08 +0000";
layers = (
{
anchors = (
{
name = bottom_U;
position = "{644, -40}";
},
{
name = top_U;
position = "{644, 1464}";
}
);
layerId = UUID1;
paths = (
{
closed = 1;
nodes = (
"1270 916 OFFCURVE",
"1234 1130 OFFCURVE",
"1044 1278 CURVE SMOOTH",
"952 1350 OFFCURVE",
"786 1378 OFFCURVE",
"674 1378 CURVE",
"500 1378 OFFCURVE",
"334 1376 OFFCURVE",
"162 1370 CURVE",
"148 1356 LINE",
"148 10 LINE",
"162 -4 LINE",
"336 -8 OFFCURVE",
"500 -12 OFFCURVE",
"674 -12 CURVE",
"786 -12 OFFCURVE",
"952 16 OFFCURVE",
"1044 88 CURVE SMOOTH",
"1236 236 OFFCURVE",
"1270 450 OFFCURVE",
"1270 684 CURVE SMOOTH"
);
},
{
closed = 1;
nodes = (
"926 486 OFFCURVE",
"894 248 OFFCURVE",
"674 248 CURVE SMOOTH",
"608 248 OFFCURVE",
"550 248 OFFCURVE",
"482 246 CURVE",
"482 1120 LINE",
"550 1118 OFFCURVE",
"608 1118 OFFCURVE",
"674 1118 CURVE SMOOTH",
"894 1118 OFFCURVE",
"926 882 OFFCURVE",
"926 684 CURVE"
);
}
);
width = 1340;
},
{
anchors = (
{
name = bottom_U;
position = "{623, -40}";
},
{
name = top_U;
position = "{604, 1464}";
}
);
layerId = "59A137EB-1A44-4616-9625-4B79FA594CBD";
paths = (
{
closed = 1;
nodes = (
"1158 914 OFFCURVE",
"1126 1122 OFFCURVE",
"953 1270 CURVE SMOOTH",
"868 1342 OFFCURVE",
"718 1372 OFFCURVE",
"615 1372 CURVE",
"458 1372 OFFCURVE",
"383 1372 OFFCURVE",
"210 1366 CURVE",
"197 1354 LINE",
"197 12 LINE",
"210 0 LINE",
"384 -4 OFFCURVE",
"458 -8 OFFCURVE",
"615 -8 CURVE",
"718 -8 OFFCURVE",
"868 22 OFFCURVE",
"953 94 CURVE SMOOTH",
"1128 242 OFFCURVE",
"1158 448 OFFCURVE",
"1158 682 CURVE SMOOTH"
);
},
{
closed = 1;
nodes = (
"996 425 OFFCURVE",
"947 121 OFFCURVE",
"613 121 CURVE SMOOTH",
"521 121 OFFCURVE",
"453 123 OFFCURVE",
"351 123 CURVE",
"351 1245 LINE",
"453 1245 OFFCURVE",
"521 1243 OFFCURVE",
"613 1243 CURVE SMOOTH",
"947 1243 OFFCURVE",
"996 941 OFFCURVE",
"996 682 CURVE"
);
}
);
width = 1275;
},
{
anchors = (
{
name = bottom_U;
position = "{618, -40}";
},
{
name = top_U;
position = "{592, 1464}";
}
);
layerId = "9ED2045D-B62B-46E9-A722-9499BEB4CDB9";
paths = (
{
closed = 1;
nodes = (
"1118 914 OFFCURVE",
"1088 1120 OFFCURVE",
"922 1268 CURVE SMOOTH",
"840 1340 OFFCURVE",
"694 1370 OFFCURVE",
"596 1370 CURVE",
"444 1370 OFFCURVE",
"404 1370 OFFCURVE",
"230 1364 CURVE",
"218 1354 LINE",
"218 12 LINE",
"230 2 LINE",
"404 -2 OFFCURVE",
"444 -6 OFFCURVE",
"596 -6 CURVE",
"694 -6 OFFCURVE",
"840 24 OFFCURVE",
"922 96 CURVE SMOOTH",
"1090 244 OFFCURVE",
"1118 448 OFFCURVE",
"1118 682 CURVE SMOOTH"
);
},
{
closed = 1;
nodes = (
"1024 402 OFFCURVE",
"968 74 OFFCURVE",
"592 74 CURVE SMOOTH",
"490 74 OFFCURVE",
"420 76 OFFCURVE",
"304 76 CURVE",
"304 1292 LINE",
"420 1292 OFFCURVE",
"490 1290 OFFCURVE",
"592 1290 CURVE SMOOTH",
"968 1290 OFFCURVE",
"1024 962 OFFCURVE",
"1024 682 CURVE"
);
}
);
width = 1276;
}
);
rightKerningGroup = D;
unicode = 0044;
},
{
glyphname = E;
lastChange = "2018-11-23 02:58:08 +0000";
layers = (
{
anchors = (
{
name = bottom_U;
position = "{604, -40}";
},
{
name = top_U;
position = "{598, 1464}";
}
);
layerId = UUID1;
paths = (
{
closed = 1;
nodes = (
"146 188 LINE",
"146 68 OFFCURVE",
"218 -6 OFFCURVE",
"338 -6 CURVE SMOOTH",
"476 -6 LINE",
"476 272 LINE SMOOTH",
"476 328 OFFCURVE",
"478 368 OFFCURVE",
"478 422 CURVE SMOOTH",
"478 940 LINE",
"478 994 OFFCURVE",
"476 1034 OFFCURVE",
"476 1090 CURVE SMOOTH",
"476 1366 LINE",
"160 1366 LINE",
"146 1352 LINE"
);
},
{
closed = 1;
nodes = (
"614 822 LINE SMOOTH",
"564 822 OFFCURVE",
"426 820 OFFCURVE",
"362 818 CURVE",
"362 554 LINE",
"426 552 OFFCURVE",
"564 550 OFFCURVE",
"614 550 CURVE SMOOTH",
"910 550 LINE",
"924 592 OFFCURVE",
"930 648 OFFCURVE",
"930 686 CURVE SMOOTH",
"930 722 OFFCURVE",
"924 782 OFFCURVE",
"910 822 CURVE"
);
},
{
closed = 1;
nodes = (
"362 1366 LINE",
"362 1090 LINE",
"426 1088 OFFCURVE",
"564 1086 OFFCURVE",
"614 1086 CURVE SMOOTH",
"1014 1086 LINE",
"1032 1136 OFFCURVE",
"1042 1196 OFFCURVE",
"1042 1234 CURVE SMOOTH",
"1042 1272 OFFCURVE",
"1040 1316 OFFCURVE",
"1030 1366 CURVE"
);
},
{
closed = 1;
nodes = (
"626 274 LINE",
"526 274 OFFCURVE",
"452 268 OFFCURVE",
"362 264 CURVE",
"362 -6 LINE",
"862 -6 LINE SMOOTH",
"984 -6 OFFCURVE",
"1058 50 OFFCURVE",
"1076 156 CURVE SMOOTH",
"1082 196 OFFCURVE",
"1082 246 OFFCURVE",
"1082 274 CURVE"
);
}
);
width = 1148;
},
{
anchors = (
{
name = bottom_U;
position = "{604, -40}";
},
{
name = top_U;
position = "{598, 1464}";
}
);
layerId = "59A137EB-1A44-4616-9625-4B79FA594CBD";
paths = (
{
closed = 1;
nodes = (
"197 101 LINE",
"197 38 OFFCURVE",
"231 0 OFFCURVE",
"285 0 CURVE SMOOTH",
"345 0 LINE",
"345 128 LINE SMOOTH",
"345 157 OFFCURVE",
"347 178 OFFCURVE",
"347 205 CURVE SMOOTH",
"347 1111 LINE",
"347 1165 OFFCURVE",
"345 1184 OFFCURVE",
"345 1240 CURVE SMOOTH",
"345 1366 LINE",
"209 1366 LINE",
"197 1354 LINE"
);
},
{
closed = 1;
nodes = (
"466 757 LINE SMOOTH",
"422 757 OFFCURVE",
"352 755 OFFCURVE",
"294 755 CURVE",
"294 628 LINE",
"352 628 OFFCURVE",
"422 626 OFFCURVE",
"466 626 CURVE SMOOTH",
"880 626 LINE",
"884 649 OFFCURVE",
"886 675 OFFCURVE",
"886 692 CURVE SMOOTH",
"886 709 OFFCURVE",
"884 735 OFFCURVE",
"880 757 CURVE"
);
},
{
closed = 1;
nodes = (
"294 1366 LINE",
"294 1236 LINE",
"352 1234 OFFCURVE",
"422 1234 OFFCURVE",
"466 1234 CURVE SMOOTH",
"976 1234 LINE",
"985 1258 OFFCURVE",
"987 1287 OFFCURVE",
"987 1304 CURVE SMOOTH",
"987 1321 OFFCURVE",
"987 1343 OFFCURVE",
"983 1366 CURVE"
);
},
{
closed = 1;
nodes = (
"468 133 LINE",
"395 133 OFFCURVE",
"346 129 OFFCURVE",
"294 125 CURVE",
"294 0 LINE",
"913 0 LINE SMOOTH",
"967 0 OFFCURVE",
"1003 22 OFFCURVE",
"1011 71 CURVE SMOOTH",
"1016 92 OFFCURVE",
"1016 121 OFFCURVE",
"1016 133 CURVE"
);
}
);
width = 1125;
},
{
anchors = (
{
name = bottom_U;
position = "{604, -40}";
},
{
name = top_U;
position = "{598, 1464}";
}
);
layerId = "9ED2045D-B62B-46E9-A722-9499BEB4CDB9";
paths = (
{
closed = 1;
nodes = (
"216 68 LINE",
"216 26 OFFCURVE",
"236 2 OFFCURVE",
"265 2 CURVE SMOOTH",
"296 2 LINE",
"296 74 LINE SMOOTH",
"296 94 OFFCURVE",
"298 108 OFFCURVE",
"298 125 CURVE SMOOTH",
"298 1174 LINE",
"298 1228 OFFCURVE",
"296 1240 OFFCURVE",
"296 1296 CURVE SMOOTH",
"296 1366 LINE",
"228 1366 LINE",
"216 1355 LINE"
);
},
{
closed = 1;
nodes = (
"411 733 LINE SMOOTH",
"369 733 OFFCURVE",
"324 731 OFFCURVE",
"268 732 CURVE",
"268 656 LINE",
"324 656 OFFCURVE",
"369 654 OFFCURVE",
"411 654 CURVE SMOOTH",
"868 654 LINE",
"869 670 OFFCURVE",
"870 684 OFFCURVE",
"870 694 CURVE SMOOTH",
"870 704 OFFCURVE",
"869 717 OFFCURVE",
"868 733 CURVE"
);
},
{
closed = 1;
nodes = (
"268 1366 LINE",
"268 1291 LINE",
"324 1289 OFFCURVE",
"369 1289 OFFCURVE",
"411 1289 CURVE SMOOTH",
"962 1289 LINE",
"967 1303 OFFCURVE",
"966 1321 OFFCURVE",
"966 1330 CURVE SMOOTH",
"966 1340 OFFCURVE",
"967 1352 OFFCURVE",
"965 1366 CURVE"
);
},
{
closed = 1;
nodes = (
"410 81 LINE",
"346 81 OFFCURVE",
"306 78 OFFCURVE",
"268 74 CURVE",
"268 2 LINE",
"932 2 LINE SMOOTH",
"961 2 OFFCURVE",
"982 11 OFFCURVE",
"987 39 CURVE SMOOTH",
"991 53 OFFCURVE",
"991 74 OFFCURVE",
"991 81 CURVE"
);
}
);
width = 1126;
}
);
rightKerningGroup = E;
unicode = 0045;
},
{
glyphname = F;
lastChange = "2018-11-23 02:58:08 +0000";
layers = (
{
anchors = (
{
name = bottom_U;
position = "{320, -40}";
},
{
name = top_U;
position = "{590, 1464}";
}
);
layerId = UUID1;
paths = (
{
closed = 1;
nodes = (
"484 936 LINE SMOOTH",
"484 1042 OFFCURVE",
"482 1160 OFFCURVE",
"482 1272 CURVE SMOOTH",
"482 1366 LINE",
"162 1366 LINE",
"148 1354 LINE",
"148 0 LINE",
"206 -10 OFFCURVE",
"274 -12 OFFCURVE",
"320 -12 CURVE SMOOTH",
"366 -12 OFFCURVE",
"426 -10 OFFCURVE",
"484 0 CURVE"
);
},
{
closed = 1;
nodes = (
"344 1366 LINE",
"344 1084 LINE",
"434 1084 OFFCURVE",
"520 1082 OFFCURVE",
"618 1082 CURVE SMOOTH",
"862 1082 LINE SMOOTH",
"982 1082 OFFCURVE",
"1040 1128 OFFCURVE",
"1040 1238 CURVE SMOOTH",
"1040 1276 OFFCURVE",
"1036 1330 OFFCURVE",
"1026 1366 CURVE"
);
},
{
closed = 1;
nodes = (
"516 816 LINE SMOOTH",
"458 816 OFFCURVE",
"394 814 OFFCURVE",
"356 812 CURVE",
"356 546 LINE",
"394 544 OFFCURVE",
"458 542 OFFCURVE",
"516 542 CURVE SMOOTH",
"902 542 LINE",
"914 582 OFFCURVE",
"920 642 OFFCURVE",
"920 680 CURVE SMOOTH",
"920 716 OFFCURVE",
"914 778 OFFCURVE",
"902 816 CURVE"
);
}
);
width = 1074;
},
{
anchors = (
{
name = bottom_U;
position = "{273, -40}";
},
{
name = top_U;
position = "{598, 1464}";
}
);
layerId = "59A137EB-1A44-4616-9625-4B79FA594CBD";
paths = (
{
closed = 1;
nodes = (
"351 957 LINE SMOOTH",
"351 1055 OFFCURVE",
"349 1156 OFFCURVE",
"349 1255 CURVE SMOOTH",
"349 1366 LINE",
"210 1366 LINE",
"197 1354 LINE",
"197 0 LINE",
"217 -4 OFFCURVE",
"246 -6 OFFCURVE",
"273 -6 CURVE SMOOTH",
"301 -6 OFFCURVE",
"329 -4 OFFCURVE",
"351 0 CURVE"
);
},
{
closed = 1;
nodes = (
"293 1366 LINE",
"293 1240 LINE",
"362 1234 OFFCURVE",
"452 1232 OFFCURVE",
"567 1232 CURVE SMOOTH",
"885 1232 LINE SMOOTH",
"948 1232 OFFCURVE",
"977 1253 OFFCURVE",
"977 1303 CURVE SMOOTH",
"977 1324 OFFCURVE",
"973 1347 OFFCURVE",
"967 1366 CURVE"
);
},
{
closed = 1;
nodes = (
"461 757 LINE SMOOTH",
"416 757 OFFCURVE",
"350 755 OFFCURVE",
"293 755 CURVE",
"293 628 LINE",
"350 628 OFFCURVE",
"416 626 OFFCURVE",
"461 626 CURVE SMOOTH",
"870 626 LINE",
"874 649 OFFCURVE",
"876 674 OFFCURVE",
"876 691 CURVE SMOOTH",
"876 708 OFFCURVE",
"874 734 OFFCURVE",
"870 757 CURVE"
);
}
);
width = 1028;
},
{
anchors = (
{
name = bottom_U;
position = "{256, -40}";
},
{
name = top_U;
position = "{602, 1464}";
}
);
layerId = "9ED2045D-B62B-46E9-A722-9499BEB4CDB9";
paths = (
{
closed = 1;
nodes = (
"304 964 LINE SMOOTH",
"304 1060 OFFCURVE",
"302 1154 OFFCURVE",
"302 1248 CURVE SMOOTH",
"302 1366 LINE",
"230 1366 LINE",
"218 1354 LINE",
"218 0 LINE",
"224 -2 OFFCURVE",
"236 -4 OFFCURVE",
"256 -4 CURVE SMOOTH",
"280 -4 OFFCURVE",
"296 -2 OFFCURVE",
"304 0 CURVE"
);
},
{
closed = 1;
nodes = (
"276 1366 LINE",
"276 1298 LINE",
"338 1290 OFFCURVE",
"428 1288 OFFCURVE",
"550 1288 CURVE SMOOTH",
"896 1288 LINE SMOOTH",
"938 1288 OFFCURVE",
"956 1300 OFFCURVE",
"956 1326 CURVE SMOOTH",
"956 1342 OFFCURVE",
"952 1354 OFFCURVE",
"948 1366 CURVE"
);
},
{
closed = 1;
nodes = (
"442 736 LINE SMOOTH",
"402 736 OFFCURVE",
"336 734 OFFCURVE",
"272 734 CURVE",
"272 658 LINE",
"336 658 OFFCURVE",
"402 656 OFFCURVE",
"442 656 CURVE SMOOTH",
"860 656 LINE",
"862 674 OFFCURVE",
"862 686 OFFCURVE",
"862 696 CURVE SMOOTH",
"862 706 OFFCURVE",
"862 718 OFFCURVE",
"860 736 CURVE"
);
}
);
width = 1028;
}
);
unicode = 0046;
},
{
glyphname = G;
lastChange = "2018-11-23 02:58:08 +0000";
layers = (
{
anchors = (
{
name = bottom_U;
position = "{690, -40}";
},
{
name = top_U;
position = "{702, 1464}";
}
);
layerId = UUID1;
paths = (
{
closed = 1;
nodes = (
"1070 1338 OFFCURVE",
"898 1396 OFFCURVE",
"702 1396 CURVE SMOOTH",
"384 1396 OFFCURVE",
"68 1156 OFFCURVE",
"68 674 CURVE SMOOTH",
"68 234 OFFCURVE",
"270 -30 OFFCURVE",
"678 -30 CURVE SMOOTH",
"904 -30 OFFCURVE",
"1096 14 OFFCURVE",
"1212 52 CURVE",
"1036 280 LINE",
"968 262 OFFCURVE",
"864 232 OFFCURVE",
"736 232 CURVE SMOOTH",
"528 232 OFFCURVE",
"410 366 OFFCURVE",
"410 672 CURVE SMOOTH",
"410 982 OFFCURVE",
"528 1120 OFFCURVE",
"728 1120 CURVE SMOOTH",
"838 1120 OFFCURVE",
"962 1078 OFFCURVE",
"1060 1014 CURVE",
"1128 1058 OFFCURVE",
"1202 1160 OFFCURVE",
"1208 1254 CURVE"
);
},
{
closed = 1;
nodes = (
"898 48 LINE",
"974 50 OFFCURVE",
"1152 48 OFFCURVE",
"1212 52 CURVE",
"1212 578 LINE",
"928 672 LINE",
"902 578 OFFCURVE",
"898 460 OFFCURVE",
"898 366 CURVE"
);
},
{
closed = 1;
nodes = (
"678 784 LINE",
"664 744 OFFCURVE",
"654 690 OFFCURVE",
"654 646 CURVE SMOOTH",
"654 542 OFFCURVE",
"704 506 OFFCURVE",
"814 506 CURVE SMOOTH",
"892 506 OFFCURVE",
"1086 508 OFFCURVE",
"1212 510 CURVE",
"1212 578 LINE SMOOTH",
"1212 698 OFFCURVE",
"1158 788 OFFCURVE",
"992 786 CURVE SMOOTH"
);
}
);
width = 1312;
},
{
anchors = (
{
name = bottom_U;
position = "{671, -40}";
},
{
name = top_U;
position = "{683, 1464}";
}
);
layerId = "59A137EB-1A44-4616-9625-4B79FA594CBD";
paths = (
{
closed = 1;
nodes = (
"1021 1334 OFFCURVE",
"845 1390 OFFCURVE",
"683 1390 CURVE SMOOTH",
"403 1390 OFFCURVE",
"114 1194 OFFCURVE",
"114 674 CURVE SMOOTH",
"114 331 OFFCURVE",
"243 -24 OFFCURVE",
"659 -24 CURVE SMOOTH",
"843 -24 OFFCURVE",
"1012 14 OFFCURVE",
"1134 63 CURVE",
"1057 187 LINE",
"991 156 OFFCURVE",
"866 110 OFFCURVE",
"687 110 CURVE SMOOTH",
"414 110 OFFCURVE",
"275 301 OFFCURVE",
"275 672 CURVE SMOOTH",
"275 1107 OFFCURVE",
"465 1253 OFFCURVE",
"673 1253 CURVE SMOOTH",
"821 1253 OFFCURVE",
"951 1202 OFFCURVE",
"1051 1122 CURVE",
"1082 1144 OFFCURVE",
"1120 1189 OFFCURVE",
"1132 1241 CURVE"
);
},
{
closed = 1;
nodes = (
"984 59 LINE",
"1060 61 OFFCURVE",
"1076 59 OFFCURVE",
"1134 63 CURVE",
"1134 582 LINE",
"998 630 LINE",
"988 584 OFFCURVE",
"984 521 OFFCURVE",
"984 429 CURVE"
);
},
{
closed = 1;
nodes = (
"710 687 LINE",
"704 668 OFFCURVE",
"698 639 OFFCURVE",
"698 621 CURVE SMOOTH",
"698 572 OFFCURVE",
"721 550 OFFCURVE",
"768 550 CURVE SMOOTH",
"869 550 OFFCURVE",
"1020 552 OFFCURVE",
"1134 554 CURVE",
"1134 582 LINE SMOOTH",
"1134 654 OFFCURVE",
"1103 687 OFFCURVE",
"1015 687 CURVE SMOOTH"
);
}
);
width = 1274;
},
{
anchors = (
{
name = bottom_U;
position = "{664, -40}";
},
{
name = top_U;
position = "{676, 1464}";
}
);
layerId = "9ED2045D-B62B-46E9-A722-9499BEB4CDB9";
paths = (
{
closed = 1;
nodes = (
"1002 1332 OFFCURVE",
"826 1388 OFFCURVE",
"676 1388 CURVE SMOOTH",
"410 1388 OFFCURVE",
"130 1208 OFFCURVE",
"130 674 CURVE SMOOTH",
"130 366 OFFCURVE",
"234 -22 OFFCURVE",
"652 -22 CURVE SMOOTH",
"820 -22 OFFCURVE",
"982 14 OFFCURVE",
"1106 68 CURVE",
"1064 152 LINE",
"1000 116 OFFCURVE",
"866 66 OFFCURVE",
"668 66 CURVE SMOOTH",
"372 66 OFFCURVE",
"226 278 OFFCURVE",
"226 672 CURVE SMOOTH",
"226 1154 OFFCURVE",
"442 1302 OFFCURVE",
"652 1302 CURVE SMOOTH",
"814 1302 OFFCURVE",
"946 1248 OFFCURVE",
"1046 1162 CURVE",
"1066 1176 OFFCURVE",
"1090 1200 OFFCURVE",
"1104 1236 CURVE"
);
},
{
closed = 1;
nodes = (
"1016 64 LINE",
"1044 64 OFFCURVE",
"1076 64 OFFCURVE",
"1106 68 CURVE",
"1106 584 LINE",
"1024 614 LINE",
"1020 586 OFFCURVE",
"1016 544 OFFCURVE",
"1016 452 CURVE"
);
},
{
closed = 1;
nodes = (
"720 650 LINE",
"716 638 OFFCURVE",
"714 620 OFFCURVE",
"714 612 CURVE SMOOTH",
"714 584 OFFCURVE",
"728 566 OFFCURVE",
"752 566 CURVE SMOOTH",
"860 566 OFFCURVE",
"994 568 OFFCURVE",
"1106 570 CURVE",
"1106 584 LINE SMOOTH",
"1106 638 OFFCURVE",
"1082 650 OFFCURVE",
"1024 650 CURVE SMOOTH"
);
}
);
width = 1274;
}
);
leftKerningGroup = C;
rightKerningGroup = G;
unicode = 0047;
},
{
glyphname = H;
lastChange = "2018-11-23 02:58:08 +0000";
layers = (
{
anchors = (
{
name = bottom_U;
position = "{688, -40}";
},
{
name = top_U;
position = "{688, 1466}";
}
);
layerId = UUID1;
paths = (
{
closed = 1;
nodes = (
"796 564 LINE",
"826 564 OFFCURVE",
"864 566 OFFCURVE",
"894 566 CURVE SMOOTH",
"960 566 OFFCURVE",
"1030 564 OFFCURVE",
"1096 564 CURVE",
"1096 844 LINE",
"1030 844 OFFCURVE",
"960 842 OFFCURVE",
"894 842 CURVE SMOOTH",
"864 842 OFFCURVE",
"826 844 OFFCURVE",
"796 844 CURVE SMOOTH",
"580 844 LINE SMOOTH",
"550 844 OFFCURVE",
"512 842 OFFCURVE",
"482 842 CURVE SMOOTH",
"416 842 OFFCURVE",
"346 844 OFFCURVE",
"280 844 CURVE",
"280 564 LINE",
"346 564 OFFCURVE",
"416 566 OFFCURVE",
"482 566 CURVE SMOOTH",
"512 566 OFFCURVE",
"550 564 OFFCURVE",
"580 564 CURVE SMOOTH"
);
},
{
closed = 1;
nodes = (
"484 418 LINE SMOOTH",
"484 474 OFFCURVE",
"482 512 OFFCURVE",
"482 566 CURVE SMOOTH",
"482 842 LINE SMOOTH",
"482 896 OFFCURVE",
"484 934 OFFCURVE",
"484 990 CURVE SMOOTH",
"484 1366 LINE",
"428 1376 OFFCURVE",
"360 1378 OFFCURVE",
"316 1378 CURVE SMOOTH",
"276 1378 OFFCURVE",
"202 1376 OFFCURVE",
"148 1366 CURVE",
"148 0 LINE",
"202 -10 OFFCURVE",
"276 -12 OFFCURVE",
"316 -12 CURVE SMOOTH",
"360 -12 OFFCURVE",
"428 -10 OFFCURVE",
"484 0 CURVE"
);
},
{
closed = 1;
nodes = (
"892 0 LINE",
"950 -10 OFFCURVE",
"1018 -12 OFFCURVE",
"1064 -12 CURVE SMOOTH",
"1110 -12 OFFCURVE",
"1170 -10 OFFCURVE",
"1228 0 CURVE",
"1228 1366 LINE",
"1174 1376 OFFCURVE",
"1100 1378 OFFCURVE",
"1060 1378 CURVE SMOOTH",
"1016 1378 OFFCURVE",
"948 1376 OFFCURVE",
"892 1366 CURVE",
"892 990 LINE SMOOTH",
"892 934 OFFCURVE",
"894 896 OFFCURVE",
"894 842 CURVE SMOOTH",
"894 566 LINE SMOOTH",
"894 512 OFFCURVE",
"892 474 OFFCURVE",
"892 418 CURVE SMOOTH"
);
}
);
width = 1376;
},
{
anchors = (
{
name = bottom_U;
position = "{667, -40}";
},
{
name = top_U;
position = "{667, 1464}";
}
);
layerId = "59A137EB-1A44-4616-9625-4B79FA594CBD";
paths = (
{
closed = 1;
nodes = (
"866 638 LINE",
"879 638 OFFCURVE",
"972 640 OFFCURVE",
"987 640 CURVE SMOOTH",
"1017 640 OFFCURVE",
"1047 638 OFFCURVE",
"1077 638 CURVE",
"1077 774 LINE",
"1047 774 OFFCURVE",
"1017 772 OFFCURVE",
"987 772 CURVE SMOOTH",
"972 772 OFFCURVE",
"879 774 OFFCURVE",
"866 774 CURVE SMOOTH",
"470 774 LINE SMOOTH",
"457 774 OFFCURVE",
"364 772 OFFCURVE",
"349 772 CURVE SMOOTH",
"319 772 OFFCURVE",
"289 774 OFFCURVE",
"259 774 CURVE",
"259 638 LINE",
"289 638 OFFCURVE",
"319 640 OFFCURVE",
"349 640 CURVE SMOOTH",
"364 640 OFFCURVE",
"457 638 OFFCURVE",
"470 638 CURVE SMOOTH"
);
},
{
closed = 1;
nodes = (
"351 492 LINE SMOOTH",
"351 548 OFFCURVE",
"349 586 OFFCURVE",
"349 640 CURVE SMOOTH",
"349 772 LINE SMOOTH",
"349 826 OFFCURVE",
"351 864 OFFCURVE",
"351 920 CURVE SMOOTH",
"351 1366 LINE",
"329 1370 OFFCURVE",
"301 1372 OFFCURVE",
"272 1372 CURVE SMOOTH",
"246 1372 OFFCURVE",
"217 1370 OFFCURVE",
"197 1366 CURVE",
"197 0 LINE",
"217 -4 OFFCURVE",
"246 -6 OFFCURVE",
"272 -6 CURVE SMOOTH",
"301 -6 OFFCURVE",
"329 -4 OFFCURVE",
"351 0 CURVE"
);
},
{
closed = 1;
nodes = (
"985 0 LINE",
"1005 -4 OFFCURVE",
"1033 -6 OFFCURVE",
"1060 -6 CURVE SMOOTH",
"1089 -6 OFFCURVE",
"1117 -4 OFFCURVE",
"1139 0 CURVE",
"1139 1366 LINE",
"1117 1370 OFFCURVE",
"1089 1372 OFFCURVE",
"1060 1372 CURVE SMOOTH",
"1033 1372 OFFCURVE",
"1005 1370 OFFCURVE",
"985 1366 CURVE",
"985 920 LINE SMOOTH",
"985 864 OFFCURVE",
"987 826 OFFCURVE",
"987 772 CURVE SMOOTH",
"987 640 LINE SMOOTH",
"987 586 OFFCURVE",
"985 548 OFFCURVE",
"985 492 CURVE SMOOTH"
);
}
);
width = 1336;
},
{
anchors = (
{
name = bottom_U;
position = "{659, -40}";
},
{
name = top_U;
position = "{659, 1463}";
}
);
layerId = "9ED2045D-B62B-46E9-A722-9499BEB4CDB9";
paths = (
{
closed = 1;
nodes = (
"892 666 LINE",
"899 666 OFFCURVE",
"1012 668 OFFCURVE",
"1022 668 CURVE SMOOTH",
"1038 668 OFFCURVE",
"1053 666 OFFCURVE",
"1070 666 CURVE",
"1070 748 LINE",
"1053 748 OFFCURVE",
"1038 746 OFFCURVE",
"1022 746 CURVE SMOOTH",
"1012 746 OFFCURVE",
"899 748 OFFCURVE",
"892 748 CURVE SMOOTH",
"429 748 LINE SMOOTH",
"422 748 OFFCURVE",
"309 746 OFFCURVE",
"300 746 CURVE SMOOTH",
"283 746 OFFCURVE",
"268 748 OFFCURVE",
"251 748 CURVE",
"251 666 LINE",
"268 666 OFFCURVE",
"283 668 OFFCURVE",
"300 668 CURVE SMOOTH",
"309 668 OFFCURVE",
"422 666 OFFCURVE",
"429 666 CURVE SMOOTH"
);
},
{
closed = 1;
nodes = (
"302 520 LINE SMOOTH",
"302 576 OFFCURVE",
"300 614 OFFCURVE",
"300 668 CURVE SMOOTH",
"300 746 LINE SMOOTH",
"300 800 OFFCURVE",
"302 838 OFFCURVE",
"302 894 CURVE SMOOTH",
"302 1366 LINE",
"293 1368 OFFCURVE",
"279 1370 OFFCURVE",
"256 1370 CURVE SMOOTH",
"234 1370 OFFCURVE",
"223 1368 OFFCURVE",
"216 1366 CURVE",
"216 0 LINE",
"223 -2 OFFCURVE",
"234 -4 OFFCURVE",
"256 -4 CURVE SMOOTH",
"279 -4 OFFCURVE",
"293 -2 OFFCURVE",
"302 0 CURVE"
);
},
{
closed = 1;
nodes = (
"1020 0 LINE",
"1026 -2 OFFCURVE",
"1039 -4 OFFCURVE",
"1059 -4 CURVE SMOOTH",
"1081 -4 OFFCURVE",
"1097 -2 OFFCURVE",
"1106 0 CURVE",
"1106 1366 LINE",
"1096 1368 OFFCURVE",
"1084 1370 OFFCURVE",
"1060 1370 CURVE SMOOTH",
"1039 1370 OFFCURVE",
"1026 1368 OFFCURVE",
"1020 1366 CURVE",
"1020 894 LINE SMOOTH",
"1020 838 OFFCURVE",
"1022 800 OFFCURVE",
"1022 746 CURVE SMOOTH",
"1022 668 LINE SMOOTH",
"1022 614 OFFCURVE",
"1020 576 OFFCURVE",
"1020 520 CURVE SMOOTH"
);
}
);
width = 1336;
}
);
unicode = 0048;
},
{
glyphname = I;
lastChange = "2018-11-23 02:58:08 +0000";
layers = (
{
anchors = (
{
name = bottom_U;
position = "{320, -40}";
},
{
name = top_U;
position = "{320, 1466}";
}
);
layerId = UUID1;
paths = (
{
closed = 1;
nodes = (
"152 0 LINE",
"206 -10 OFFCURVE",
"280 -12 OFFCURVE",
"320 -12 CURVE SMOOTH",
"364 -12 OFFCURVE",
"432 -10 OFFCURVE",
"488 0 CURVE",
"488 1366 LINE",
"432 1376 OFFCURVE",
"364 1378 OFFCURVE",
"320 1378 CURVE SMOOTH",
"280 1378 OFFCURVE",
"206 1376 OFFCURVE",
"152 1366 CURVE"
);
}
);
width = 640;
},
{
anchors = (
{
name = bottom_U;
position = "{280, -40}";
},
{
name = top_U;
position = "{282, 1464}";
}
);
layerId = "59A137EB-1A44-4616-9625-4B79FA594CBD";
paths = (
{
closed = 1;
nodes = (
"205 0 LINE",
"225 -4 OFFCURVE",
"253 -6 OFFCURVE",
"280 -6 CURVE SMOOTH",
"309 -6 OFFCURVE",
"337 -4 OFFCURVE",
"359 0 CURVE",
"359 1366 LINE",
"337 1370 OFFCURVE",
"309 1372 OFFCURVE",
"280 1372 CURVE SMOOTH",
"253 1372 OFFCURVE",
"225 1370 OFFCURVE",
"205 1366 CURVE"
);
}
);
width = 564;
},
{
anchors = (
{
name = bottom_U;
position = "{274, -40}";
},
{
name = top_U;
position = "{276, 1464}";
}
);
layerId = "9ED2045D-B62B-46E9-A722-9499BEB4CDB9";
paths = (
{
closed = 1;
nodes = (
"232 0 LINE",
"240 -2 OFFCURVE",
"252 -4 OFFCURVE",
"274 -4 CURVE SMOOTH",
"296 -4 OFFCURVE",
"310 -2 OFFCURVE",
"318 0 CURVE",
"318 1366 LINE",
"310 1368 OFFCURVE",
"296 1370 OFFCURVE",
"274 1370 CURVE SMOOTH",
"252 1370 OFFCURVE",
"240 1368 OFFCURVE",
"232 1366 CURVE"
);
}
);
width = 564;
}
);
unicode = 0049;
},
{
glyphname = J;
lastChange = "2018-11-23 02:58:08 +0000";
layers = (
{
anchors = (
{
name = bottom_U;
position = "{434, -40}";
},
{
name = top_U;
position = "{652, 1464}";
}
);
layerId = UUID1;
paths = (
{
closed = 1;
nodes = (
"74 248 OFFCURVE",
"32 152 OFFCURVE",
"20 68 CURVE",
"116 8 OFFCURVE",
"242 -20 OFFCURVE",
"348 -20 CURVE SMOOTH",
"728 -20 OFFCURVE",
"820 210 OFFCURVE",
"820 528 CURVE SMOOTH",
"820 1366 LINE",
"764 1376 OFFCURVE",
"696 1378 OFFCURVE",
"652 1378 CURVE SMOOTH",
"612 1378 OFFCURVE",
"538 1376 OFFCURVE",
"484 1366 CURVE",
"484 498 LINE",
"484 348 OFFCURVE",
"452 256 OFFCURVE",
"310 256 CURVE SMOOTH",
"248 256 OFFCURVE",
"190 282 OFFCURVE",
"134 316 CURVE"
);
}
);
width = 948;
},
{
anchors = (
{
name = bottom_U;
position = "{385, -40}";
},
{
name = top_U;
position = "{627, 1464}";
}
);
layerId = "59A137EB-1A44-4616-9625-4B79FA594CBD";
paths = (
{
closed = 1;
nodes = (
"51 147 OFFCURVE",
"30 108 OFFCURVE",
"20 62 CURVE",
"103 12 OFFCURVE",
"221 -20 OFFCURVE",
"323 -20 CURVE SMOOTH",
"654 -20 OFFCURVE",
"702 202 OFFCURVE",
"702 482 CURVE SMOOTH",
"702 1366 LINE",
"682 1370 OFFCURVE",
"654 1372 OFFCURVE",
"627 1372 CURVE SMOOTH",
"599 1372 OFFCURVE",
"570 1370 OFFCURVE",
"549 1366 CURVE",
"549 452 LINE",
"549 207 OFFCURVE",
"490 112 OFFCURVE",
"316 112 CURVE SMOOTH",
"237 112 OFFCURVE",
"144 141 OFFCURVE",
"83 179 CURVE"
);
}
);
width = 872;
},
{
anchors = (
{
name = bottom_U;
position = "{366, -40}";
},
{
name = top_U;
position = "{618, 1464}";
}
);
layerId = "9ED2045D-B62B-46E9-A722-9499BEB4CDB9";
paths = (
{
closed = 1;
nodes = (
"43 110 OFFCURVE",
"29 92 OFFCURVE",
"20 60 CURVE",
"98 13 OFFCURVE",
"213 -20 OFFCURVE",
"314 -20 CURVE SMOOTH",
"626 -20 OFFCURVE",
"659 200 OFFCURVE",
"659 466 CURVE SMOOTH",
"659 1366 LINE",
"652 1368 OFFCURVE",
"639 1370 OFFCURVE",
"618 1370 CURVE SMOOTH",
"594 1370 OFFCURVE",
"582 1368 OFFCURVE",
"573 1366 CURVE",
"573 436 LINE",
"573 155 OFFCURVE",
"504 58 OFFCURVE",
"318 58 CURVE SMOOTH",
"232 58 OFFCURVE",
"128 89 OFFCURVE",
"64 129 CURVE"
);
}
);
width = 872;
}
);
leftKerningGroup = J;
rightKerningGroup = U;
unicode = 004A;
},
{
glyphname = K;
lastChange = "2018-11-23 02:58:08 +0000";
layers = (
{
anchors = (
{
name = bottom_U;
position = "{662, -40}";
},
{
name = top_U;
position = "{654, 1464}";
}
);
layerId = UUID1;
paths = (
{
closed = 1;
nodes = (
"148 0 LINE",
"202 -10 OFFCURVE",
"276 -12 OFFCURVE",
"316 -12 CURVE SMOOTH",
"360 -12 OFFCURVE",
"428 -10 OFFCURVE",
"484 0 CURVE",
"484 1366 LINE",
"428 1376 OFFCURVE",
"360 1378 OFFCURVE",
"316 1378 CURVE SMOOTH",
"276 1378 OFFCURVE",
"202 1376 OFFCURVE",
"148 1366 CURVE"
);
},
{
closed = 1;
nodes = (
"1168 146 OFFCURVE",
"1156 204 OFFCURVE",
"1132 276 CURVE SMOOTH",
"1054 518 LINE SMOOTH",
"1012 646 OFFCURVE",
"948 754 OFFCURVE",
"720 754 CURVE SMOOTH",
"314 754 LINE",
"314 550 LINE",
"412 560 OFFCURVE",
"502 568 OFFCURVE",
"564 568 CURVE SMOOTH",
"656 568 OFFCURVE",
"706 520 OFFCURVE",
"744 398 CURVE SMOOTH",
"814 172 LINE SMOOTH",
"854 44 OFFCURVE",
"896 -18 OFFCURVE",
"1016 -18 CURVE SMOOTH",
"1106 -18 OFFCURVE",
"1194 18 OFFCURVE",
"1238 82 CURVE"
);
},
{
closed = 1;
nodes = (
"618 916 LINE",
"590 860 OFFCURVE",
"578 846 OFFCURVE",
"526 846 CURVE SMOOTH",
"314 842 LINE",
"314 654 LINE",
"558 654 LINE SMOOTH",
"764 654 OFFCURVE",
"876 744 OFFCURVE",
"954 894 CURVE SMOOTH",
"1188 1346 LINE",
"1170 1368 LINE",
"1104 1374 OFFCURVE",
"1022 1378 OFFCURVE",
"968 1378 CURVE SMOOTH",
"872 1378 OFFCURVE",
"838 1342 OFFCURVE",
"798 1264 CURVE SMOOTH"
);
}
);
width = 1248;
},
{
anchors = (
{
name = bottom_U;
position = "{609, -40}";
},
{
name = top_U;
position = "{603, 1464}";
}
);
layerId = "59A137EB-1A44-4616-9625-4B79FA594CBD";
paths = (
{
closed = 1;
nodes = (
"197 0 LINE",
"217 -4 OFFCURVE",
"246 -6 OFFCURVE",
"272 -6 CURVE SMOOTH",
"301 -6 OFFCURVE",
"329 -4 OFFCURVE",
"351 0 CURVE",
"351 1366 LINE",
"329 1370 OFFCURVE",
"301 1372 OFFCURVE",
"272 1372 CURVE SMOOTH",
"246 1372 OFFCURVE",
"217 1370 OFFCURVE",
"197 1366 CURVE"
);
},
{
closed = 1;
nodes = (
"1092 66 OFFCURVE",
"1067 100 OFFCURVE",
"1041 164 CURVE SMOOTH",
"917 476 LINE SMOOTH",
"845 657 OFFCURVE",
"777 739 OFFCURVE",
"583 739 CURVE SMOOTH",
"270 739 LINE",
"270 630 LINE",
"403 636 OFFCURVE",
"481 636 OFFCURVE",
"513 636 CURVE SMOOTH",
"645 636 OFFCURVE",
"714 581 OFFCURVE",
"778 415 CURVE SMOOTH",
"905 90 LINE SMOOTH",
"930 25 OFFCURVE",
"949 -10 OFFCURVE",
"1016 -10 CURVE SMOOTH",
"1051 -10 OFFCURVE",
"1101 9 OFFCURVE",
"1122 42 CURVE"
);
},
{
closed = 1;
nodes = (
"565 821 LINE",
"544 788 OFFCURVE",
"531 772 OFFCURVE",
"496 772 CURVE SMOOTH",
"270 766 LINE",
"270 675 LINE",
"503 675 LINE SMOOTH",
"603 675 OFFCURVE",
"675 727 OFFCURVE",
"724 807 CURVE SMOOTH",
"1061 1350 LINE",
"1048 1366 LINE",
"1019 1368 OFFCURVE",
"994 1370 OFFCURVE",
"966 1370 CURVE SMOOTH",
"906 1370 OFFCURVE",
"887 1344 OFFCURVE",
"859 1296 CURVE SMOOTH"
);
}
);
width = 1166;
},
{
anchors = (
{
name = bottom_U;
position = "{594, -40}";
},
{
name = top_U;
position = "{588, 1464}";
}
);
layerId = "9ED2045D-B62B-46E9-A722-9499BEB4CDB9";
paths = (
{
closed = 1;
nodes = (
"220 0 LINE",
"226 -2 OFFCURVE",
"238 -4 OFFCURVE",
"260 -4 CURVE SMOOTH",
"284 -4 OFFCURVE",
"296 -2 OFFCURVE",
"306 0 CURVE",
"306 1366 LINE",
"296 1368 OFFCURVE",
"284 1370 OFFCURVE",
"260 1370 CURVE SMOOTH",
"238 1370 OFFCURVE",
"226 1368 OFFCURVE",
"220 1366 CURVE"
);
},
{
closed = 1;
nodes = (
"1068 36 OFFCURVE",
"1038 60 OFFCURVE",
"1012 122 CURVE SMOOTH",
"870 460 LINE SMOOTH",
"786 662 OFFCURVE",
"718 734 OFFCURVE",
"536 734 CURVE SMOOTH",
"258 734 LINE",
"258 660 LINE",
"402 664 OFFCURVE",
"478 662 OFFCURVE",
"498 662 CURVE SMOOTH",
"644 662 OFFCURVE",
"720 604 OFFCURVE",
"794 422 CURVE SMOOTH",
"942 60 LINE SMOOTH",
"962 18 OFFCURVE",
"972 -8 OFFCURVE",
"1020 -8 CURVE SMOOTH",
"1034 -8 OFFCURVE",
"1070 4 OFFCURVE",
"1084 28 CURVE"
);
},
{
closed = 1;
nodes = (
"550 786 LINE",
"532 762 OFFCURVE",
"516 744 OFFCURVE",
"488 744 CURVE SMOOTH",
"258 738 LINE",
"258 682 LINE",
"486 682 LINE SMOOTH",
"546 682 OFFCURVE",
"604 720 OFFCURVE",
"642 774 CURVE SMOOTH",
"1018 1352 LINE",
"1008 1366 LINE",
"990 1366 OFFCURVE",
"986 1368 OFFCURVE",
"970 1368 CURVE SMOOTH",
"922 1368 OFFCURVE",
"910 1344 OFFCURVE",
"886 1308 CURVE SMOOTH"
);
}
);
width = 1166;
}
);
rightKerningGroup = K;
unicode = 004B;
},
{
glyphname = L;
lastChange = "2018-11-23 02:58:08 +0000";
layers = (
{
anchors = (
{
name = bottom_U;
position = "{570, -40}";
},
{
name = top_U;
position = "{312, 1454}";
}
);
layerId = UUID1;
paths = (
{
closed = 1;
nodes = (
"482 1168 LINE",
"482 1318 OFFCURVE",
"410 1380 OFFCURVE",
"282 1380 CURVE SMOOTH",
"160 1380 LINE",
"146 1366 LINE",
"146 188 LINE SMOOTH",
"146 68 OFFCURVE",
"220 -6 OFFCURVE",
"340 -6 CURVE SMOOTH",
"482 -6 LINE"
);
},
{
closed = 1;
nodes = (
"670 282 LINE",
"524 282 OFFCURVE",
"342 268 OFFCURVE",
"160 236 CURVE",
"340 -6 LINE",
"782 -6 LINE SMOOTH",
"904 -6 OFFCURVE",
"984 52 OFFCURVE",
"1002 158 CURVE SMOOTH",
"1008 198 OFFCURVE",
"1010 242 OFFCURVE",
"1010 282 CURVE"
);
}
);
width = 1048;
},
{
anchors = (
{
name = bottom_U;
position = "{578, -40}";
},
{
name = top_U;
position = "{272, 1464}";
}
);
layerId = "59A137EB-1A44-4616-9625-4B79FA594CBD";
paths = (
{
closed = 1;
nodes = (
"351 1273 LINE",
"351 1339 OFFCURVE",
"338 1372 OFFCURVE",
"271 1372 CURVE SMOOTH",
"209 1372 LINE",
"197 1360 LINE",
"197 103 LINE SMOOTH",
"197 34 OFFCURVE",
"237 0 OFFCURVE",
"287 0 CURVE SMOOTH",
"351 0 LINE"
);
},
{
closed = 1;
nodes = (
"524 136 LINE",
"431 136 OFFCURVE",
"306 129 OFFCURVE",
"211 114 CURVE",
"287 0 LINE",
"847 0 LINE SMOOTH",
"900 0 OFFCURVE",
"937 22 OFFCURVE",
"945 71 CURVE SMOOTH",
"949 92 OFFCURVE",
"949 122 OFFCURVE",
"949 136 CURVE"
);
}
);
width = 1012;
},
{
anchors = (
{
name = bottom_U;
position = "{582, -40}";
},
{
name = top_U;
position = "{260, 1468}";
}
);
layerId = "9ED2045D-B62B-46E9-A722-9499BEB4CDB9";
paths = (
{
closed = 1;
nodes = (
"304 1312 LINE",
"304 1346 OFFCURVE",
"314 1370 OFFCURVE",
"268 1370 CURVE SMOOTH",
"230 1370 LINE",
"218 1358 LINE",
"218 70 LINE SMOOTH",
"218 22 OFFCURVE",
"246 2 OFFCURVE",
"270 2 CURVE SMOOTH",
"304 2 LINE"
);
},
{
closed = 1;
nodes = (
"472 82 LINE",
"398 82 OFFCURVE",
"294 78 OFFCURVE",
"232 70 CURVE",
"270 2 LINE",
"872 2 LINE SMOOTH",
"900 2 OFFCURVE",
"920 10 OFFCURVE",
"926 38 CURVE SMOOTH",
"930 52 OFFCURVE",
"928 78 OFFCURVE",
"928 82 CURVE"
);
}
);
width = 1012;
}
);
rightKerningGroup = L;
unicode = 004C;
},
{
glyphname = M;
lastChange = "2018-11-23 02:58:08 +0000";
layers = (
{
anchors = (
{
name = bottom_U;
position = "{838, -40}";
},
{
name = top_U;
position = "{838, 1464}";
}
);
layerId = UUID1;
paths = (
{
closed = 1;
nodes = (
"104 4 LINE",
"152 -8 OFFCURVE",
"220 -12 OFFCURVE",
"274 -12 CURVE SMOOTH",
"324 -12 OFFCURVE",
"372 -10 OFFCURVE",
"420 -2 CURVE",
"448 530 LINE SMOOTH",
"456 676 OFFCURVE",
"464 866 OFFCURVE",
"464 998 CURVE",
"478 998 LINE",
"664 200 LINE",
"714 192 OFFCURVE",
"794 188 OFFCURVE",
"836 188 CURVE SMOOTH",
"882 188 OFFCURVE",
"960 192 OFFCURVE",
"1010 200 CURVE",
"1196 998 LINE",
"1210 998 LINE",
"1210 866 OFFCURVE",
"1218 676 OFFCURVE",
"1226 530 CURVE SMOOTH",
"1254 -2 LINE",
"1302 -10 OFFCURVE",
"1350 -12 OFFCURVE",
"1400 -12 CURVE SMOOTH",
"1454 -12 OFFCURVE",
"1522 -8 OFFCURVE",
"1570 4 CURVE",
"1464 1364 LINE",
"1394 1376 OFFCURVE",
"1300 1380 OFFCURVE",
"1238 1380 CURVE SMOOTH",
"1176 1380 OFFCURVE",
"1096 1376 OFFCURVE",
"1026 1364 CURVE",
"918 894 LINE SMOOTH",
"908 848 OFFCURVE",
"862 632 OFFCURVE",
"844 524 CURVE",
"830 524 LINE",
"812 632 OFFCURVE",
"766 848 OFFCURVE",
"756 894 CURVE SMOOTH",
"648 1364 LINE",
"578 1376 OFFCURVE",
"498 1380 OFFCURVE",
"436 1380 CURVE SMOOTH",
"374 1380 OFFCURVE",
"280 1376 OFFCURVE",
"210 1364 CURVE"
);
}
);
width = 1674;
},
{
anchors = (
{
name = bottom_U;
position = "{792, -40}";
},
{
name = top_U;
position = "{792, 1464}";
}
);
layerId = "59A137EB-1A44-4616-9625-4B79FA594CBD";
paths = (
{
closed = 1;
nodes = (
"169 2 LINE",
"188 -4 OFFCURVE",
"218 -8 OFFCURVE",
"244 -8 CURVE SMOOTH",
"269 -8 OFFCURVE",
"294 -6 OFFCURVE",
"317 -2 CURVE",
"374 826 LINE SMOOTH",
"380 917 OFFCURVE",
"384 1090 OFFCURVE",
"390 1203 CURVE",
"400 1203 LINE",
"717 213 LINE",
"739 209 OFFCURVE",
"766 207 OFFCURVE",
"792 207 CURVE SMOOTH",
"817 207 OFFCURVE",
"846 209 OFFCURVE",
"869 213 CURVE",
"1187 1203 LINE",
"1197 1203 LINE",
"1201 1090 OFFCURVE",
"1207 917 OFFCURVE",
"1213 826 CURVE SMOOTH",
"1269 -2 LINE",
"1293 -6 OFFCURVE",
"1314 -8 OFFCURVE",
"1339 -8 CURVE SMOOTH",
"1365 -8 OFFCURVE",
"1397 -4 OFFCURVE",
"1418 2 CURVE",
"1312 1366 LINE",
"1271 1372 OFFCURVE",
"1228 1372 OFFCURVE",
"1208 1372 CURVE SMOOTH",
"1186 1372 OFFCURVE",
"1151 1372 OFFCURVE",
"1110 1366 CURVE",
"880 664 LINE SMOOTH",
"857 595 OFFCURVE",
"803 402 OFFCURVE",
"798 372 CURVE",
"788 372 LINE",
"784 402 OFFCURVE",
"730 595 OFFCURVE",
"707 664 CURVE SMOOTH",
"477 1366 LINE",
"441 1372 OFFCURVE",
"401 1372 OFFCURVE",
"379 1372 CURVE SMOOTH",
"359 1372 OFFCURVE",
"312 1372 OFFCURVE",
"275 1366 CURVE"
);
}
);
width = 1587;
},
{
anchors = (
{
name = bottom_U;
position = "{778, -40}";
},
{
name = top_U;
position = "{778, 1464}";
}
);
layerId = "9ED2045D-B62B-46E9-A722-9499BEB4CDB9";
paths = (
{
closed = 1;
nodes = (
"194 2 LINE",
"204 -2 OFFCURVE",
"220 -6 OFFCURVE",
"234 -6 CURVE SMOOTH",
"250 -6 OFFCURVE",
"268 -4 OFFCURVE",
"282 -2 CURVE",
"348 936 LINE SMOOTH",
"354 1006 OFFCURVE",
"356 1174 OFFCURVE",
"364 1280 CURVE",
"374 1280 LINE",
"738 218 LINE",
"750 216 OFFCURVE",
"756 214 OFFCURVE",
"778 214 CURVE SMOOTH",
"796 214 OFFCURVE",
"806 216 OFFCURVE",
"820 218 CURVE",
"1184 1280 LINE",
"1194 1280 LINE",
"1198 1174 OFFCURVE",
"1204 1006 OFFCURVE",
"1210 936 CURVE SMOOTH",
"1276 -2 LINE",
"1290 -4 OFFCURVE",
"1302 -6 OFFCURVE",
"1318 -6 CURVE SMOOTH",
"1334 -6 OFFCURVE",
"1352 -2 OFFCURVE",
"1364 2 CURVE",
"1258 1366 LINE",
"1226 1370 OFFCURVE",
"1204 1370 OFFCURVE",
"1198 1370 CURVE SMOOTH",
"1192 1370 OFFCURVE",
"1174 1370 OFFCURVE",
"1142 1366 CURVE",
"868 578 LINE SMOOTH",
"840 502 OFFCURVE",
"784 316 OFFCURVE",
"784 316 CURVE",
"774 316 LINE",
"774 316 OFFCURVE",
"718 502 OFFCURVE",
"690 578 CURVE SMOOTH",
"416 1366 LINE",
"392 1370 OFFCURVE",
"368 1370 OFFCURVE",
"360 1370 CURVE SMOOTH",
"356 1370 OFFCURVE",
"326 1370 OFFCURVE",
"300 1366 CURVE"
);
}
);
width = 1586;
}
);
unicode = 004D;
},
{
glyphname = N;
lastChange = "2018-11-23 02:58:08 +0000";
layers = (
{
anchors = (
{
name = bottom_U;
position = "{686, -40}";
},
{
name = top_U;
position = "{706, 1464}";
}
);
layerId = UUID1;
paths = (
{
closed = 1;
nodes = (
"148 0 LINE",
"200 -10 OFFCURVE",
"268 -12 OFFCURVE",
"308 -12 CURVE SMOOTH",
"350 -12 OFFCURVE",
"406 -10 OFFCURVE",
"460 0 CURVE",
"460 366 LINE SMOOTH",
"460 534 OFFCURVE",
"450 804 OFFCURVE",
"434 978 CURVE",
"456 986 LINE",
"540 1366 LINE",
"466 1376 OFFCURVE",
"388 1378 OFFCURVE",
"346 1378 CURVE SMOOTH",
"304 1378 OFFCURVE",
"200 1372 OFFCURVE",
"148 1360 CURVE"
);
},
{
closed = 1;
nodes = (
"852 0 LINE",
"1248 46 LINE",
"956 364 LINE",
"928 436 OFFCURVE",
"882 550 OFFCURVE",
"832 670 CURVE SMOOTH",
"540 1366 LINE",
"148 1320 LINE",
"442 982 LINE",
"468 906 OFFCURVE",
"508 802 OFFCURVE",
"552 698 CURVE SMOOTH"
);
},
{
closed = 1;
nodes = (
"1234 1380 LINE",
"1126 1380 LINE SMOOTH",
"998 1380 OFFCURVE",
"938 1328 OFFCURVE",
"938 1178 CURVE SMOOTH",
"938 970 LINE SMOOTH",
"938 832 OFFCURVE",
"946 558 OFFCURVE",
"964 368 CURVE",
"940 360 LINE",
"852 0 LINE",
"926 -10 OFFCURVE",
"1004 -12 OFFCURVE",
"1046 -12 CURVE SMOOTH",
"1088 -12 OFFCURVE",
"1194 -6 OFFCURVE",
"1248 6 CURVE",
"1248 1366 LINE"
);
}
);
width = 1396;
},
{
anchors = (
{
name = bottom_U;
position = "{665, -40}";
},
{
name = top_U;
position = "{676, 1464}";
}
);
layerId = "59A137EB-1A44-4616-9625-4B79FA594CBD";
paths = (
{
closed = 1;
nodes = (
"197 0 LINE",
"223 -4 OFFCURVE",
"247 -6 OFFCURVE",
"268 -6 CURVE SMOOTH",
"289 -6 OFFCURVE",
"313 -4 OFFCURVE",
"340 0 CURVE",
"340 750 LINE SMOOTH",
"340 889 OFFCURVE",
"332 1059 OFFCURVE",
"328 1181 CURVE",
"342 1182 LINE",
"384 1366 LINE",
"358 1370 OFFCURVE",
"310 1372 OFFCURVE",
"289 1372 CURVE SMOOTH",
"272 1372 OFFCURVE",
"223 1370 OFFCURVE",
"197 1366 CURVE"
);
},
{
closed = 1;
nodes = (
"957 0 LINE",
"1145 40 LINE",
"1009 178 LINE",
"966 265 OFFCURVE",
"922 362 OFFCURVE",
"870 459 CURVE SMOOTH",
"384 1366 LINE",
"197 1345 LINE",
"334 1182 LINE",
"377 1092 OFFCURVE",
"419 1003 OFFCURVE",
"470 907 CURVE SMOOTH"
);
},
{
closed = 1;
nodes = (
"1133 1372 LINE",
"1082 1372 LINE SMOOTH",
"1015 1372 OFFCURVE",
"1003 1339 OFFCURVE",
"1003 1273 CURVE SMOOTH",
"1003 634 LINE SMOOTH",
"1003 496 OFFCURVE",
"1009 324 OFFCURVE",
"1015 178 CURVE",
"1001 178 LINE",
"957 0 LINE",
"983 -4 OFFCURVE",
"1033 -6 OFFCURVE",
"1052 -6 CURVE SMOOTH",
"1071 -6 OFFCURVE",
"1120 -4 OFFCURVE",
"1145 0 CURVE",
"1145 1362 LINE"
);
}
);
width = 1343;
},
{
anchors = (
{
name = bottom_U;
position = "{660, -40}";
},
{
name = top_U;
position = "{666, 1464}";
}
);
layerId = "9ED2045D-B62B-46E9-A722-9499BEB4CDB9";
paths = (
{
closed = 1;
nodes = (
"218 0 LINE",
"234 -2 OFFCURVE",
"242 -4 OFFCURVE",
"256 -4 CURVE SMOOTH",
"268 -4 OFFCURVE",
"280 -2 OFFCURVE",
"298 0 CURVE",
"298 892 LINE SMOOTH",
"298 1020 OFFCURVE",
"290 1152 OFFCURVE",
"290 1256 CURVE",
"302 1254 LINE",
"328 1366 LINE",
"320 1368 OFFCURVE",
"284 1370 OFFCURVE",
"270 1370 CURVE SMOOTH",
"262 1370 OFFCURVE",
"234 1370 OFFCURVE",
"218 1368 CURVE"
);
},
{
closed = 1;
nodes = (
"998 0 LINE",
"1110 38 LINE",
"1030 108 LINE",
"982 202 OFFCURVE",
"938 292 OFFCURVE",
"886 380 CURVE SMOOTH",
"328 1366 LINE",
"218 1354 LINE",
"296 1256 LINE",
"346 1162 OFFCURVE",
"388 1078 OFFCURVE",
"442 984 CURVE SMOOTH"
);
},
{
closed = 1;
nodes = (
"1098 1370 LINE",
"1068 1370 LINE SMOOTH",
"1024 1370 OFFCURVE",
"1028 1344 OFFCURVE",
"1028 1308 CURVE SMOOTH",
"1028 510 LINE SMOOTH",
"1028 372 OFFCURVE",
"1034 238 OFFCURVE",
"1036 108 CURVE",
"1026 110 LINE",
"998 0 LINE",
"1006 -2 OFFCURVE",
"1046 -4 OFFCURVE",
"1056 -4 CURVE SMOOTH",
"1066 -4 OFFCURVE",
"1094 -4 OFFCURVE",
"1110 -2 CURVE",
"1110 1360 LINE"
);
}
);
width = 1342;
}
);
unicode = 004E;
},
{
glyphname = O;
lastChange = "2018-11-23 02:58:08 +0000";
layers = (
{
anchors = (
{
name = bottom_U;
position = "{668, -40}";
},
{
name = top_U;
position = "{668, 1464}";
}
);
layerId = UUID1;
paths = (
{
closed = 1;
nodes = (
"418 890 OFFCURVE",
"444 1140 OFFCURVE",
"668 1140 CURVE SMOOTH",
"892 1140 OFFCURVE",
"918 890 OFFCURVE",
"918 684 CURVE SMOOTH",
"918 478 OFFCURVE",
"892 226 OFFCURVE",
"668 226 CURVE SMOOTH",
"444 226 OFFCURVE",
"418 478 OFFCURVE",
"418 684 CURVE SMOOTH"
);
},
{
closed = 1;
nodes = (
"68 476 OFFCURVE",
"114 236 OFFCURVE",
"282 96 CURVE SMOOTH",
"374 22 OFFCURVE",
"486 -30 OFFCURVE",
"668 -30 CURVE SMOOTH",
"852 -30 OFFCURVE",
"962 22 OFFCURVE",
"1054 96 CURVE SMOOTH",
"1222 236 OFFCURVE",
"1268 476 OFFCURVE",
"1268 684 CURVE SMOOTH",
"1268 894 OFFCURVE",
"1222 1130 OFFCURVE",
"1054 1270 CURVE SMOOTH",
"962 1344 OFFCURVE",
"852 1396 OFFCURVE",
"668 1396 CURVE SMOOTH",
"486 1396 OFFCURVE",
"374 1344 OFFCURVE",
"282 1270 CURVE SMOOTH",
"114 1130 OFFCURVE",
"68 894 OFFCURVE",
"68 684 CURVE SMOOTH"
);
}
);
width = 1336;
},
{
anchors = (
{
name = bottom_U;
position = "{653, -40}";
},
{
name = top_U;
position = "{653, 1464}";
}
);
layerId = "59A137EB-1A44-4616-9625-4B79FA594CBD";
paths = (
{
closed = 1;
nodes = (
"276 943 OFFCURVE",
"347 1262 OFFCURVE",
"653 1262 CURVE SMOOTH",
"959 1262 OFFCURVE",
"1028 943 OFFCURVE",
"1028 684 CURVE SMOOTH",
"1028 425 OFFCURVE",
"959 104 OFFCURVE",
"653 104 CURVE SMOOTH",
"347 104 OFFCURVE",
"276 425 OFFCURVE",
"276 684 CURVE SMOOTH"
);
},
{
closed = 1;
nodes = (
"114 461 OFFCURVE",
"173 228 OFFCURVE",
"326 92 CURVE SMOOTH",
"404 22 OFFCURVE",
"503 -24 OFFCURVE",
"653 -24 CURVE SMOOTH",
"803 -24 OFFCURVE",
"901 22 OFFCURVE",
"980 92 CURVE SMOOTH",
"1133 228 OFFCURVE",
"1192 461 OFFCURVE",
"1192 684 CURVE SMOOTH",
"1192 904 OFFCURVE",
"1133 1138 OFFCURVE",
"980 1274 CURVE SMOOTH",
"901 1344 OFFCURVE",
"803 1390 OFFCURVE",
"653 1390 CURVE SMOOTH",
"503 1390 OFFCURVE",
"404 1344 OFFCURVE",
"326 1274 CURVE SMOOTH",
"173 1138 OFFCURVE",
"114 904 OFFCURVE",
"114 684 CURVE SMOOTH"
);
}
);
width = 1306;
},
{
anchors = (
{
name = bottom_U;
position = "{647, -40}";
},
{
name = top_U;
position = "{647, 1464}";
}
);
layerId = "9ED2045D-B62B-46E9-A722-9499BEB4CDB9";
paths = (
{
closed = 1;
nodes = (
"223 963 OFFCURVE",
"311 1307 OFFCURVE",
"647 1307 CURVE SMOOTH",
"983 1307 OFFCURVE",
"1069 963 OFFCURVE",
"1069 684 CURVE SMOOTH",
"1069 405 OFFCURVE",
"983 59 OFFCURVE",
"647 59 CURVE SMOOTH",
"311 59 OFFCURVE",
"223 405 OFFCURVE",
"223 684 CURVE SMOOTH"
);
},
{
closed = 1;
nodes = (
"130 455 OFFCURVE",
"195 226 OFFCURVE",
"342 91 CURVE SMOOTH",
"416 22 OFFCURVE",
"509 -22 OFFCURVE",
"647 -22 CURVE SMOOTH",
"784 -22 OFFCURVE",
"879 22 OFFCURVE",
"952 91 CURVE SMOOTH",
"1100 226 OFFCURVE",
"1164 455 OFFCURVE",
"1164 684 CURVE SMOOTH",
"1164 907 OFFCURVE",
"1100 1140 OFFCURVE",
"952 1275 CURVE SMOOTH",
"879 1344 OFFCURVE",
"784 1388 OFFCURVE",
"647 1388 CURVE SMOOTH",
"509 1388 OFFCURVE",
"416 1344 OFFCURVE",
"342 1275 CURVE SMOOTH",
"195 1140 OFFCURVE",
"130 907 OFFCURVE",
"130 684 CURVE SMOOTH"
);
}
);
width = 1306;
}
);
leftKerningGroup = C;
rightKerningGroup = O;
unicode = 004F;
},
{
glyphname = P;
lastChange = "2018-11-23 02:58:08 +0000";
layers = (
{
anchors = (
{
name = bottom_U;
position = "{316, -40}";
},
{
name = top_U;
position = "{602, 1464}";
}
);
layerId = UUID1;
paths = (
{
closed = 1;
nodes = (
"1128 1226 OFFCURVE",
"920 1378 OFFCURVE",
"634 1378 CURVE SMOOTH",
"480 1378 OFFCURVE",
"336 1374 OFFCURVE",
"162 1370 CURVE",
"148 1356 LINE",
"148 0 LINE",
"202 -10 OFFCURVE",
"276 -12 OFFCURVE",
"316 -12 CURVE SMOOTH",
"360 -12 OFFCURVE",
"428 -10 OFFCURVE",
"484 0 CURVE",
"484 1124 LINE",
"536 1122 OFFCURVE",
"566 1122 OFFCURVE",
"604 1122 CURVE SMOOTH",
"758 1122 OFFCURVE",
"786 988 OFFCURVE",
"786 898 CURVE SMOOTH",
"786 806 OFFCURVE",
"758 674 OFFCURVE",
"604 674 CURVE SMOOTH",
"566 674 OFFCURVE",
"394 668 OFFCURVE",
"342 664 CURVE",
"342 420 LINE",
"634 420 LINE",
"920 420 OFFCURVE",
"1128 582 OFFCURVE",
"1128 898 CURVE SMOOTH"
);
}
);
width = 1184;
},
{
anchors = (
{
name = bottom_U;
position = "{272, -40}";
},
{
name = top_U;
position = "{577, 1464}";
}
);
layerId = "59A137EB-1A44-4616-9625-4B79FA594CBD";
paths = (
{
closed = 1;
nodes = (
"1033 1228 OFFCURVE",
"848 1372 OFFCURVE",
"592 1372 CURVE SMOOTH",
"465 1372 OFFCURVE",
"349 1368 OFFCURVE",
"210 1366 CURVE",
"197 1354 LINE",
"197 0 LINE",
"217 -4 OFFCURVE",
"246 -6 OFFCURVE",
"272 -6 CURVE SMOOTH",
"301 -6 OFFCURVE",
"329 -4 OFFCURVE",
"351 0 CURVE",
"351 1246 LINE",
"424 1244 OFFCURVE",
"530 1244 OFFCURVE",
"596 1244 CURVE SMOOTH",
"817 1244 OFFCURVE",
"870 1081 OFFCURVE",
"870 944 CURVE SMOOTH",
"870 810 OFFCURVE",
"817 642 OFFCURVE",
"596 642 CURVE SMOOTH",
"530 642 OFFCURVE",
"360 641 OFFCURVE",
"287 639 CURVE",
"287 513 LINE",
"592 513 LINE",
"852 513 OFFCURVE",
"1033 662 OFFCURVE",
"1033 944 CURVE SMOOTH"
);
}
);
width = 1112;
},
{
anchors = (
{
name = bottom_U;
position = "{260, -40}";
},
{
name = top_U;
position = "{572, 1464}";
}
);
layerId = "9ED2045D-B62B-46E9-A722-9499BEB4CDB9";
paths = (
{
closed = 1;
nodes = (
"1002 1228 OFFCURVE",
"826 1370 OFFCURVE",
"580 1370 CURVE SMOOTH",
"464 1370 OFFCURVE",
"358 1366 OFFCURVE",
"232 1364 CURVE",
"220 1354 LINE",
"220 0 LINE",
"226 -2 OFFCURVE",
"238 -4 OFFCURVE",
"260 -4 CURVE SMOOTH",
"284 -4 OFFCURVE",
"296 -2 OFFCURVE",
"306 0 CURVE",
"306 1290 LINE",
"386 1288 OFFCURVE",
"520 1288 OFFCURVE",
"598 1288 CURVE SMOOTH",
"842 1288 OFFCURVE",
"904 1116 OFFCURVE",
"904 960 CURVE SMOOTH",
"904 812 OFFCURVE",
"842 630 OFFCURVE",
"598 630 CURVE SMOOTH",
"520 630 OFFCURVE",
"352 632 OFFCURVE",
"270 630 CURVE",
"270 548 LINE",
"580 548 LINE",
"830 548 OFFCURVE",
"1002 692 OFFCURVE",
"1002 960 CURVE SMOOTH"
);
}
);
width = 1112;
}
);
unicode = 0050;
},
{
glyphname = Q;
lastChange = "2018-11-23 02:58:08 +0000";
layers = (
{
anchors = (
{
name = bottom_U;
position = "{564, -36}";
},
{
name = top_U;
position = "{672, 1464}";
}
);
layerId = UUID1;
paths = (
{
closed = 1;
nodes = (
"412 892 OFFCURVE",
"446 1140 OFFCURVE",
"672 1140 CURVE SMOOTH",
"898 1140 OFFCURVE",
"930 892 OFFCURVE",
"930 684 CURVE SMOOTH",
"930 478 OFFCURVE",
"898 226 OFFCURVE",
"672 226 CURVE SMOOTH",
"446 226 OFFCURVE",
"412 478 OFFCURVE",
"412 684 CURVE SMOOTH"
);
},
{
closed = 1;
nodes = (
"68 476 OFFCURVE",
"118 238 OFFCURVE",
"286 96 CURVE SMOOTH",
"378 22 OFFCURVE",
"488 -30 OFFCURVE",
"670 -30 CURVE SMOOTH",
"738 -30 OFFCURVE",
"798 4 OFFCURVE",
"848 44 CURVE SMOOTH",
"952 44 OFFCURVE",
"1046 76 OFFCURVE",
"1124 168 CURVE SMOOTH",
"1246 306 OFFCURVE",
"1276 500 OFFCURVE",
"1276 682 CURVE SMOOTH",
"1276 894 OFFCURVE",
"1224 1130 OFFCURVE",
"1058 1270 CURVE SMOOTH",
"968 1346 OFFCURVE",
"856 1396 OFFCURVE",
"672 1396 CURVE SMOOTH",
"490 1396 OFFCURVE",
"376 1346 OFFCURVE",
"286 1270 CURVE SMOOTH",
"118 1130 OFFCURVE",
"68 894 OFFCURVE",
"68 684 CURVE SMOOTH"
);
},
{
closed = 1;
nodes = (
"866 -210 LINE",
"922 -260 OFFCURVE",
"990 -294 OFFCURVE",
"1088 -294 CURVE SMOOTH",
"1200 -294 OFFCURVE",
"1296 -202 OFFCURVE",
"1298 -56 CURVE",
"1214 -56 OFFCURVE",
"1148 -36 OFFCURVE",
"1046 36 CURVE SMOOTH",
"852 174 LINE",
"552 72 LINE"
);
}
);
width = 1344;
},
{
anchors = (
{
name = bottom_U;
position = "{636, -40}";
},
{
name = top_U;
position = "{642, 1464}";
}
);
layerId = "59A137EB-1A44-4616-9625-4B79FA594CBD";
paths = (
{
closed = 1;
nodes = (
"275 947 OFFCURVE",
"336 1262 OFFCURVE",
"642 1262 CURVE SMOOTH",
"947 1262 OFFCURVE",
"1006 947 OFFCURVE",
"1006 684 CURVE SMOOTH",
"1006 421 OFFCURVE",
"947 110 OFFCURVE",
"642 110 CURVE SMOOTH",
"336 110 OFFCURVE",
"275 421 OFFCURVE",
"275 684 CURVE SMOOTH"
);
},
{
closed = 1;
nodes = (
"114 467 OFFCURVE",
"164 225 OFFCURVE",
"316 88 CURVE SMOOTH",
"395 18 OFFCURVE",
"503 -24 OFFCURVE",
"653 -24 CURVE SMOOTH",
"717 -24 OFFCURVE",
"735 -7 OFFCURVE",
"770 10 CURVE SMOOTH",
"842 12 OFFCURVE",
"909 42 OFFCURVE",
"974 102 CURVE SMOOTH",
"1124 238 OFFCURVE",
"1170 468 OFFCURVE",
"1170 684 CURVE SMOOTH",
"1170 898 OFFCURVE",
"1120 1141 OFFCURVE",
"967 1278 CURVE SMOOTH",
"888 1348 OFFCURVE",
"791 1390 OFFCURVE",
"642 1390 CURVE SMOOTH",
"492 1390 OFFCURVE",
"395 1348 OFFCURVE",
"316 1278 CURVE SMOOTH",
"164 1141 OFFCURVE",
"114 898 OFFCURVE",
"114 684 CURVE SMOOTH"
);
},
{
closed = 1;
nodes = (
"925 -197 LINE",
"962 -222 OFFCURVE",
"998 -237 OFFCURVE",
"1046 -237 CURVE SMOOTH",
"1096 -237 OFFCURVE",
"1152 -206 OFFCURVE",
"1157 -123 CURVE",
"1094 -121 OFFCURVE",
"1042 -101 OFFCURVE",
"904 -2 CURVE SMOOTH",
"786 83 LINE",
"609 28 LINE"
);
}
);
width = 1283;
},
{
anchors = (
{
name = bottom_U;
position = "{663, -41}";
},
{
name = top_U;
position = "{630, 1464}";
}
);
layerId = "9ED2045D-B62B-46E9-A722-9499BEB4CDB9";
paths = (
{
closed = 1;
nodes = (
"225 968 OFFCURVE",
"295 1307 OFFCURVE",
"630 1307 CURVE SMOOTH",
"966 1307 OFFCURVE",
"1034 968 OFFCURVE",
"1034 684 CURVE SMOOTH",
"1034 400 OFFCURVE",
"966 67 OFFCURVE",
"630 67 CURVE SMOOTH",
"295 67 OFFCURVE",
"225 400 OFFCURVE",
"225 684 CURVE SMOOTH"
);
},
{
closed = 1;
nodes = (
"130 463 OFFCURVE",
"180 220 OFFCURVE",
"328 86 CURVE SMOOTH",
"401 17 OFFCURVE",
"509 -22 OFFCURVE",
"647 -22 CURVE SMOOTH",
"709 -22 OFFCURVE",
"712 -12 OFFCURVE",
"741 -3 CURVE SMOOTH",
"801 0 OFFCURVE",
"859 29 OFFCURVE",
"918 77 CURVE SMOOTH",
"1079 212 OFFCURVE",
"1130 456 OFFCURVE",
"1130 685 CURVE SMOOTH",
"1130 899 OFFCURVE",
"1081 1146 OFFCURVE",
"933 1280 CURVE SMOOTH",
"859 1349 OFFCURVE",
"767 1388 OFFCURVE",
"630 1388 CURVE SMOOTH",
"493 1388 OFFCURVE",
"402 1349 OFFCURVE",
"328 1280 CURVE SMOOTH",
"180 1146 OFFCURVE",
"130 899 OFFCURVE",
"130 684 CURVE SMOOTH"
);
},
{
closed = 1;
nodes = (
"947 -192 LINE",
"977 -208 OFFCURVE",
"1000 -216 OFFCURVE",
"1031 -216 CURVE SMOOTH",
"1057 -216 OFFCURVE",
"1098 -207 OFFCURVE",
"1105 -147 CURVE",
"1050 -145 OFFCURVE",
"1002 -125 OFFCURVE",
"851 -16 CURVE SMOOTH",
"761 49 LINE",
"630 12 LINE"
);
}
);
width = 1284;
}
);
leftKerningGroup = C;
rightKerningGroup = O;
unicode = 0051;
},
{
glyphname = R;
lastChange = "2018-11-23 02:58:08 +0000";
layers = (
{
anchors = (
{
name = bottom_U;
position = "{654, -40}";
},
{
name = top_U;
position = "{610, 1464}";
}
);
layerId = UUID1;
paths = (
{
closed = 1;
nodes = (
"1140 1248 OFFCURVE",
"926 1378 OFFCURVE",
"648 1378 CURVE SMOOTH",
"494 1378 OFFCURVE",
"336 1374 OFFCURVE",
"162 1370 CURVE",
"148 1356 LINE",
"148 0 LINE",
"202 -10 OFFCURVE",
"274 -12 OFFCURVE",
"314 -12 CURVE SMOOTH",
"358 -12 OFFCURVE",
"424 -10 OFFCURVE",
"480 0 CURVE",
"480 1128 LINE",
"536 1126 OFFCURVE",
"580 1126 OFFCURVE",
"618 1126 CURVE SMOOTH",
"764 1126 OFFCURVE",
"798 1042 OFFCURVE",
"798 940 CURVE SMOOTH",
"798 842 OFFCURVE",
"764 754 OFFCURVE",
"618 754 CURVE SMOOTH",
"580 754 OFFCURVE",
"420 748 OFFCURVE",
"344 744 CURVE",
"344 494 LINE",
"552 494 LINE SMOOTH",
"656 494 OFFCURVE",
"694 440 OFFCURVE",
"716 374 CURVE SMOOTH",
"784 174 LINE SMOOTH",
"828 46 OFFCURVE",
"868 -18 OFFCURVE",
"988 -18 CURVE SMOOTH",
"1078 -18 OFFCURVE",
"1168 24 OFFCURVE",
"1210 80 CURVE",
"1166 114 OFFCURVE",
"1130 168 OFFCURVE",
"1110 228 CURVE SMOOTH",
"1054 388 LINE SMOOTH",
"1024 476 OFFCURVE",
"974 546 OFFCURVE",
"898 574 CURVE",
"1008 618 OFFCURVE",
"1140 746 OFFCURVE",
"1140 940 CURVE SMOOTH"
);
}
);
width = 1234;
},
{
anchors = (
{
name = bottom_U;
position = "{608, -40}";
},
{
name = top_U;
position = "{591, 1464}";
}
);
layerId = "59A137EB-1A44-4616-9625-4B79FA594CBD";
paths = (
{
closed = 1;
nodes = (
"1049 1221 OFFCURVE",
"892 1372 OFFCURVE",
"614 1372 CURVE SMOOTH",
"486 1372 OFFCURVE",
"349 1368 OFFCURVE",
"210 1366 CURVE",
"197 1354 LINE",
"197 0 LINE",
"217 -4 OFFCURVE",
"246 -6 OFFCURVE",
"272 -6 CURVE SMOOTH",
"301 -6 OFFCURVE",
"329 -4 OFFCURVE",
"351 0 CURVE",
"351 1246 LINE",
"424 1244 OFFCURVE",
"546 1244 OFFCURVE",
"612 1244 CURVE SMOOTH",
"832 1244 OFFCURVE",
"887 1107 OFFCURVE",
"887 976 CURVE SMOOTH",
"887 850 OFFCURVE",
"832 708 OFFCURVE",
"612 708 CURVE SMOOTH",
"515 708 OFFCURVE",
"380 706 OFFCURVE",
"287 702 CURVE",
"287 576 LINE",
"558 576 LINE SMOOTH",
"692 576 OFFCURVE",
"740 497 OFFCURVE",
"779 393 CURVE SMOOTH",
"894 89 LINE SMOOTH",
"919 23 OFFCURVE",
"942 -12 OFFCURVE",
"1003 -12 CURVE SMOOTH",
"1038 -12 OFFCURVE",
"1088 3 OFFCURVE",
"1109 38 CURVE",
"1063 74 OFFCURVE",
"1045 130 OFFCURVE",
"1025 181 CURVE SMOOTH",
"921 451 LINE SMOOTH",
"893 524 OFFCURVE",
"847 592 OFFCURVE",
"786 612 CURVE",
"947 660 OFFCURVE",
"1049 795 OFFCURVE",
"1049 976 CURVE SMOOTH"
);
}
);
width = 1185;
},
{
anchors = (
{
name = bottom_U;
position = "{594, -40}";
},
{
name = top_U;
position = "{586, 1464}";
}
);
layerId = "9ED2045D-B62B-46E9-A722-9499BEB4CDB9";
paths = (
{
closed = 1;
nodes = (
"1018 1212 OFFCURVE",
"882 1370 OFFCURVE",
"604 1370 CURVE SMOOTH",
"486 1370 OFFCURVE",
"356 1366 OFFCURVE",
"230 1364 CURVE",
"218 1354 LINE",
"218 0 LINE",
"224 -2 OFFCURVE",
"236 -4 OFFCURVE",
"258 -4 CURVE SMOOTH",
"282 -4 OFFCURVE",
"296 -2 OFFCURVE",
"304 0 CURVE",
"304 1290 LINE",
"384 1288 OFFCURVE",
"536 1288 OFFCURVE",
"612 1288 CURVE SMOOTH",
"860 1288 OFFCURVE",
"922 1130 OFFCURVE",
"922 990 CURVE SMOOTH",
"922 852 OFFCURVE",
"860 692 OFFCURVE",
"612 692 CURVE SMOOTH",
"494 692 OFFCURVE",
"368 690 OFFCURVE",
"268 686 CURVE",
"268 606 LINE",
"562 606 LINE SMOOTH",
"708 606 OFFCURVE",
"758 518 OFFCURVE",
"804 400 CURVE SMOOTH",
"938 56 LINE SMOOTH",
"954 14 OFFCURVE",
"972 -10 OFFCURVE",
"1010 -10 CURVE SMOOTH",
"1026 -10 OFFCURVE",
"1060 -4 OFFCURVE",
"1074 22 CURVE",
"1028 60 OFFCURVE",
"1014 116 OFFCURVE",
"994 162 CURVE SMOOTH",
"874 474 LINE SMOOTH",
"846 542 OFFCURVE",
"802 608 OFFCURVE",
"746 626 CURVE",
"926 676 OFFCURVE",
"1018 814 OFFCURVE",
"1018 990 CURVE SMOOTH"
);
}
);
width = 1184;
}
);
rightKerningGroup = R;
unicode = 0052;
},
{
glyphname = S;
lastChange = "2018-11-23 02:58:08 +0000";
layers = (
{
anchors = (
{
name = bottom_U;
position = "{540, -40}";
},
{
name = top_U;
position = "{570, 1464}";
}
);
layerId = UUID1;
paths = (
{
closed = 1;
nodes = (
"176 22 OFFCURVE",
"374 -30 OFFCURVE",
"536 -30 CURVE SMOOTH",
"888 -30 OFFCURVE",
"1066 158 OFFCURVE",
"1066 402 CURVE SMOOTH",
"1066 574 OFFCURVE",
"960 716 OFFCURVE",
"764 800 CURVE SMOOTH",
"522 902 LINE SMOOTH",
"436 938 OFFCURVE",
"412 974 OFFCURVE",
"412 1020 CURVE SMOOTH",
"412 1066 OFFCURVE",
"450 1128 OFFCURVE",
"560 1128 CURVE SMOOTH",
"668 1128 OFFCURVE",
"822 1078 OFFCURVE",
"924 1030 CURVE",
"988 1090 OFFCURVE",
"1030 1184 OFFCURVE",
"1036 1280 CURVE",
"932 1334 OFFCURVE",
"752 1396 OFFCURVE",
"560 1396 CURVE SMOOTH",
"288 1396 OFFCURVE",
"68 1228 OFFCURVE",
"68 974 CURVE SMOOTH",
"68 780 OFFCURVE",
"192 674 OFFCURVE",
"356 602 CURVE SMOOTH",
"592 502 LINE SMOOTH",
"702 454 OFFCURVE",
"710 398 OFFCURVE",
"710 362 CURVE SMOOTH",
"710 304 OFFCURVE",
"670 238 OFFCURVE",
"560 238 CURVE SMOOTH",
"416 238 OFFCURVE",
"266 302 OFFCURVE",
"154 368 CURVE",
"90 312 OFFCURVE",
"34 212 OFFCURVE",
"26 118 CURVE"
);
}
);
width = 1114;
},
{
anchors = (
{
name = bottom_U;
position = "{546, -40}";
},
{
name = top_U;
position = "{576, 1464}";
}
);
layerId = "59A137EB-1A44-4616-9625-4B79FA594CBD";
paths = (
{
closed = 1;
nodes = (
"203 35 OFFCURVE",
"374 -24 OFFCURVE",
"542 -24 CURVE SMOOTH",
"861 -24 OFFCURVE",
"1013 139 OFFCURVE",
"1013 362 CURVE SMOOTH",
"1013 546 OFFCURVE",
"873 655 OFFCURVE",
"715 724 CURVE SMOOTH",
"488 822 LINE SMOOTH",
"383 868 OFFCURVE",
"294 925 OFFCURVE",
"294 1033 CURVE SMOOTH",
"294 1167 OFFCURVE",
"410 1259 OFFCURVE",
"577 1259 CURVE SMOOTH",
"678 1259 OFFCURVE",
"803 1221 OFFCURVE",
"909 1167 CURVE",
"944 1196 OFFCURVE",
"969 1249 OFFCURVE",
"970 1293 CURVE",
"866 1344 OFFCURVE",
"725 1390 OFFCURVE",
"571 1390 CURVE SMOOTH",
"305 1390 OFFCURVE",
"138 1220 OFFCURVE",
"138 1020 CURVE SMOOTH",
"138 860 OFFCURVE",
"238 758 OFFCURVE",
"407 684 CURVE SMOOTH",
"641 582 LINE SMOOTH",
"761 530 OFFCURVE",
"856 451 OFFCURVE",
"854 330 CURVE SMOOTH",
"853 194 OFFCURVE",
"735 111 OFFCURVE",
"549 111 CURVE SMOOTH",
"414 111 OFFCURVE",
"266 167 OFFCURVE",
"148 248 CURVE",
"115 223 OFFCURVE",
"82 172 OFFCURVE",
"77 126 CURVE"
);
}
);
width = 1110;
},
{
anchors = (
{
name = bottom_U;
position = "{548, -40}";
},
{
name = top_U;
position = "{578, 1464}";
}
);
layerId = "9ED2045D-B62B-46E9-A722-9499BEB4CDB9";
paths = (
{
closed = 1;
nodes = (
"212 40 OFFCURVE",
"374 -22 OFFCURVE",
"544 -22 CURVE SMOOTH",
"852 -22 OFFCURVE",
"993 132 OFFCURVE",
"993 347 CURVE SMOOTH",
"993 535 OFFCURVE",
"840 633 OFFCURVE",
"696 696 CURVE SMOOTH",
"475 793 LINE SMOOTH",
"363 842 OFFCURVE",
"251 906 OFFCURVE",
"251 1038 CURVE SMOOTH",
"251 1204 OFFCURVE",
"395 1308 OFFCURVE",
"583 1308 CURVE SMOOTH",
"681 1308 OFFCURVE",
"796 1273 OFFCURVE",
"903 1217 CURVE",
"928 1236 OFFCURVE",
"947 1273 OFFCURVE",
"945 1298 CURVE",
"841 1347 OFFCURVE",
"716 1388 OFFCURVE",
"576 1388 CURVE SMOOTH",
"311 1388 OFFCURVE",
"164 1218 OFFCURVE",
"164 1036 CURVE SMOOTH",
"164 889 OFFCURVE",
"254 789 OFFCURVE",
"426 714 CURVE SMOOTH",
"660 611 LINE SMOOTH",
"783 558 OFFCURVE",
"911 471 OFFCURVE",
"908 318 CURVE SMOOTH",
"905 153 OFFCURVE",
"759 64 OFFCURVE",
"544 64 CURVE SMOOTH",
"413 64 OFFCURVE",
"266 117 OFFCURVE",
"146 204 CURVE",
"124 190 OFFCURVE",
"99 157 OFFCURVE",
"96 128 CURVE"
);
}
);
width = 1110;
}
);
leftKerningGroup = S;
rightKerningGroup = S;
unicode = 0053;
},
{
glyphname = T;
lastChange = "2018-11-23 02:58:08 +0000";
layers = (
{
anchors = (
{
name = bottom_U;
position = "{514, -40}";
},
{
name = top_U;
position = "{514, 1464}";
}
);
layerId = UUID1;
paths = (
{
closed = 1;
nodes = (
"218 1088 LINE SMOOTH",
"248 1088 OFFCURVE",
"316 1090 OFFCURVE",
"346 1090 CURVE SMOOTH",
"682 1090 LINE SMOOTH",
"712 1090 OFFCURVE",
"780 1088 OFFCURVE",
"810 1088 CURVE SMOOTH",
"858 1088 LINE SMOOTH",
"978 1088 OFFCURVE",
"1032 1128 OFFCURVE",
"1032 1238 CURVE SMOOTH",
"1032 1280 OFFCURVE",
"1026 1332 OFFCURVE",
"1016 1366 CURVE",
"16 1366 LINE",
"6 1316 OFFCURVE",
"4 1264 OFFCURVE",
"4 1226 CURVE SMOOTH",
"4 1188 OFFCURVE",
"6 1138 OFFCURVE",
"16 1088 CURVE"
);
},
{
closed = 1;
nodes = (
"346 0 LINE",
"404 -10 OFFCURVE",
"468 -12 OFFCURVE",
"514 -12 CURVE SMOOTH",
"560 -12 OFFCURVE",
"624 -10 OFFCURVE",
"682 0 CURVE",
"682 942 LINE SMOOTH",
"682 996 OFFCURVE",
"680 1034 OFFCURVE",
"680 1090 CURVE SMOOTH",
"680 1228 LINE",
"348 1228 LINE",
"348 1090 LINE SMOOTH",
"348 1034 OFFCURVE",
"346 996 OFFCURVE",
"346 942 CURVE SMOOTH"
);
}
);
width = 1024;
},
{
anchors = (
{
name = bottom_U;
position = "{484, -40}";
},
{
name = top_U;
position = "{482, 1464}";
}
);
layerId = "59A137EB-1A44-4616-9625-4B79FA594CBD";
paths = (
{
closed = 1;
nodes = (
"298 1234 LINE SMOOTH",
"324 1234 OFFCURVE",
"381 1236 OFFCURVE",
"407 1236 CURVE SMOOTH",
"560 1236 LINE SMOOTH",
"587 1236 OFFCURVE",
"645 1234 OFFCURVE",
"669 1234 CURVE SMOOTH",
"841 1234 LINE SMOOTH",
"904 1234 OFFCURVE",
"933 1253 OFFCURVE",
"933 1303 CURVE SMOOTH",
"933 1324 OFFCURVE",
"929 1347 OFFCURVE",
"923 1366 CURVE",
"43 1366 LINE",
"38 1343 OFFCURVE",
"36 1321 OFFCURVE",
"36 1300 CURVE SMOOTH",
"36 1279 OFFCURVE",
"38 1256 OFFCURVE",
"43 1234 CURVE"
);
},
{
closed = 1;
nodes = (
"407 0 LINE",
"429 -4 OFFCURVE",
"459 -6 OFFCURVE",
"484 -6 CURVE SMOOTH",
"509 -6 OFFCURVE",
"539 -4 OFFCURVE",
"560 0 CURVE",
"560 1088 LINE SMOOTH",
"560 1142 OFFCURVE",
"560 1180 OFFCURVE",
"560 1236 CURVE SMOOTH",
"560 1300 LINE",
"407 1300 LINE",
"407 1236 LINE SMOOTH",
"407 1180 OFFCURVE",
"407 1142 OFFCURVE",
"407 1088 CURVE SMOOTH"
);
}
);
width = 965;
},
{
anchors = (
{
name = bottom_U;
position = "{472, -40}";
},
{
name = top_U;
position = "{470, 1464}";
}
);
layerId = "9ED2045D-B62B-46E9-A722-9499BEB4CDB9";
paths = (
{
closed = 1;
nodes = (
"327 1289 LINE SMOOTH",
"352 1289 OFFCURVE",
"405 1291 OFFCURVE",
"429 1291 CURVE SMOOTH",
"515 1291 LINE SMOOTH",
"540 1291 OFFCURVE",
"595 1289 OFFCURVE",
"617 1289 CURVE SMOOTH",
"835 1289 LINE SMOOTH",
"876 1289 OFFCURVE",
"897 1300 OFFCURVE",
"897 1327 CURVE SMOOTH",
"897 1340 OFFCURVE",
"893 1353 OFFCURVE",
"888 1366 CURVE",
"52 1366 LINE",
"50 1352 OFFCURVE",
"48 1342 OFFCURVE",
"48 1328 CURVE SMOOTH",
"48 1313 OFFCURVE",
"50 1299 OFFCURVE",
"52 1289 CURVE"
);
},
{
closed = 1;
nodes = (
"429 0 LINE",
"438 -2 OFFCURVE",
"455 -4 OFFCURVE",
"472 -4 CURVE SMOOTH",
"490 -4 OFFCURVE",
"507 -2 OFFCURVE",
"515 0 CURVE",
"515 1143 LINE SMOOTH",
"515 1197 OFFCURVE",
"516 1235 OFFCURVE",
"516 1291 CURVE SMOOTH",
"516 1327 LINE",
"429 1327 LINE",
"429 1291 LINE SMOOTH",
"429 1235 OFFCURVE",
"429 1197 OFFCURVE",
"429 1143 CURVE SMOOTH"
);
}
);
width = 966;
}
);
leftKerningGroup = T;
rightKerningGroup = T;
unicode = 0054;
},
{
glyphname = U;
lastChange = "2018-11-23 02:58:08 +0000";
layers = (
{
anchors = (
{
name = bottom_U;
position = "{674, -40}";
},
{
name = top_U;
position = "{668, 1464}";
}
);
layerId = UUID1;
paths = (
{
closed = 1;
nodes = (
"1220 1366 LINE",
"1166 1376 OFFCURVE",
"1088 1378 OFFCURVE",
"1048 1378 CURVE SMOOTH",
"1004 1378 OFFCURVE",
"940 1376 OFFCURVE",
"884 1366 CURVE",
"884 504 LINE",
"884 326 OFFCURVE",
"830 236 OFFCURVE",
"674 236 CURVE",
"518 236 OFFCURVE",
"464 326 OFFCURVE",
"464 504 CURVE SMOOTH",
"464 1168 LINE SMOOTH",
"464 1318 OFFCURVE",
"392 1380 OFFCURVE",
"264 1380 CURVE SMOOTH",
"142 1380 LINE",
"128 1366 LINE",
"128 508 LINE SMOOTH",
"128 168 OFFCURVE",
"322 -30 OFFCURVE",
"674 -30 CURVE",
"1026 -30 OFFCURVE",
"1220 168 OFFCURVE",
"1220 508 CURVE"
);
}
);
width = 1348;
},
{
anchors = (
{
name = bottom_U;
position = "{666, -40}";
},
{
name = top_U;
position = "{666, 1464}";
}
);
layerId = "59A137EB-1A44-4616-9625-4B79FA594CBD";
paths = (
{
closed = 1;
nodes = (
"1152 1366 LINE",
"1130 1370 OFFCURVE",
"1101 1372 OFFCURVE",
"1073 1372 CURVE SMOOTH",
"1046 1372 OFFCURVE",
"1018 1370 OFFCURVE",
"998 1366 CURVE",
"998 468 LINE",
"998 229 OFFCURVE",
"876 103 OFFCURVE",
"666 103 CURVE",
"457 103 OFFCURVE",
"335 229 OFFCURVE",
"335 468 CURVE SMOOTH",
"335 1273 LINE SMOOTH",
"335 1339 OFFCURVE",
"322 1372 OFFCURVE",
"255 1372 CURVE SMOOTH",
"193 1372 LINE",
"181 1360 LINE",
"181 466 LINE SMOOTH",
"181 140 OFFCURVE",
"383 -24 OFFCURVE",
"665 -24 CURVE",
"950 -24 OFFCURVE",
"1152 140 OFFCURVE",
"1152 466 CURVE"
);
}
);
width = 1333;
},
{
anchors = (
{
name = bottom_U;
position = "{664, -40}";
},
{
name = top_U;
position = "{665, 1464}";
}
);
layerId = "9ED2045D-B62B-46E9-A722-9499BEB4CDB9";
paths = (
{
closed = 1;
nodes = (
"1126 1366 LINE",
"1117 1368 OFFCURVE",
"1106 1370 OFFCURVE",
"1082 1370 CURVE SMOOTH",
"1061 1370 OFFCURVE",
"1047 1368 OFFCURVE",
"1040 1366 CURVE",
"1040 455 LINE",
"1040 193 OFFCURVE",
"892 54 OFFCURVE",
"664 54 CURVE",
"435 54 OFFCURVE",
"287 193 OFFCURVE",
"287 455 CURVE SMOOTH",
"287 1311 LINE SMOOTH",
"287 1347 OFFCURVE",
"296 1370 OFFCURVE",
"251 1370 CURVE SMOOTH",
"212 1370 LINE",
"201 1358 LINE",
"201 451 LINE SMOOTH",
"201 129 OFFCURVE",
"405 -22 OFFCURVE",
"661 -22 CURVE",
"922 -22 OFFCURVE",
"1126 129 OFFCURVE",
"1126 451 CURVE"
);
}
);
width = 1332;
}
);
leftKerningGroup = U;
rightKerningGroup = U;
unicode = 0055;
},
{
glyphname = V;
lastChange = "2018-11-23 02:58:08 +0000";
layers = (
{
anchors = (
{
name = bottom_U;
position = "{608, -40}";
},
{
name = top_U;
position = "{614, 1464}";
}
);
layerId = UUID1;
paths = (
{
closed = 1;
nodes = (
"638 278 LINE",
"626 278 OFFCURVE",
"620 282 OFFCURVE",
"616 304 CURVE SMOOTH",
"598 422 OFFCURVE",
"574 550 OFFCURVE",
"542 670 CURVE SMOOTH",
"396 1218 LINE SMOOTH",
"366 1332 OFFCURVE",
"316 1384 OFFCURVE",
"216 1384 CURVE SMOOTH",
"142 1384 OFFCURVE",
"74 1362 OFFCURVE",
"14 1336 CURVE",
"342 138 LINE SMOOTH",
"378 10 OFFCURVE",
"456 -12 OFFCURVE",
"568 -12 CURVE SMOOTH",
"654 -12 OFFCURVE",
"758 -8 OFFCURVE",
"836 0 CURVE",
"1208 1338 LINE",
"1194 1356 LINE",
"1148 1372 OFFCURVE",
"1080 1378 OFFCURVE",
"1040 1378 CURVE SMOOTH",
"996 1378 OFFCURVE",
"944 1378 OFFCURVE",
"894 1366 CURVE"
);
}
);
width = 1222;
},
{
anchors = (
{
name = bottom_U;
position = "{561, -40}";
},
{
name = top_U;
position = "{570, 1464}";
}
);
layerId = "59A137EB-1A44-4616-9625-4B79FA594CBD";
paths = (
{
closed = 1;
nodes = (
"581 149 LINE",
"573 149 OFFCURVE",
"569 151 OFFCURVE",
"565 165 CURVE SMOOTH",
"537 264 OFFCURVE",
"498 411 OFFCURVE",
"472 499 CURVE SMOOTH",
"235 1304 LINE SMOOTH",
"218 1362 OFFCURVE",
"189 1378 OFFCURVE",
"150 1378 CURVE SMOOTH",
"117 1378 OFFCURVE",
"84 1368 OFFCURVE",
"54 1353 CURVE",
"441 72 LINE SMOOTH",
"462 1 OFFCURVE",
"500 -8 OFFCURVE",
"549 -8 CURVE SMOOTH",
"589 -8 OFFCURVE",
"623 -6 OFFCURVE",
"663 -2 CURVE",
"1071 1351 LINE",
"1065 1364 LINE",
"1047 1368 OFFCURVE",
"1021 1372 OFFCURVE",
"994 1372 CURVE SMOOTH",
"968 1372 OFFCURVE",
"946 1370 OFFCURVE",
"928 1366 CURVE"
);
}
);
width = 1114;
},
{
anchors = (
{
name = bottom_U;
position = "{544, -40}";
},
{
name = top_U;
position = "{556, 1464}";
}
);
layerId = "9ED2045D-B62B-46E9-A722-9499BEB4CDB9";
paths = (
{
closed = 1;
nodes = (
"562 100 LINE",
"556 100 OFFCURVE",
"552 102 OFFCURVE",
"548 114 CURVE SMOOTH",
"516 206 OFFCURVE",
"472 360 OFFCURVE",
"448 436 CURVE SMOOTH",
"176 1336 LINE SMOOTH",
"164 1374 OFFCURVE",
"144 1376 OFFCURVE",
"126 1376 CURVE SMOOTH",
"110 1376 OFFCURVE",
"90 1370 OFFCURVE",
"70 1360 CURVE",
"480 46 LINE SMOOTH",
"494 -4 OFFCURVE",
"518 -6 OFFCURVE",
"544 -6 CURVE SMOOTH",
"568 -6 OFFCURVE",
"576 -6 OFFCURVE",
"602 -2 CURVE",
"1022 1356 LINE",
"1018 1366 LINE",
"1012 1366 OFFCURVE",
"1002 1370 OFFCURVE",
"980 1370 CURVE SMOOTH",
"958 1370 OFFCURVE",
"948 1368 OFFCURVE",
"942 1366 CURVE"
);
}
);
width = 1114;
}
);
unicode = 0056;
},
{
glyphname = W;
lastChange = "2018-11-23 02:58:08 +0000";
layers = (
{
anchors = (
{
name = bottom_U;
position = "{912, -40}";
},
{
name = top_U;
position = "{912, 1464}";
}
);
layerId = UUID1;
paths = (
{
closed = 1;
nodes = (
"260 138 LINE",
"286 4 OFFCURVE",
"364 -12 OFFCURVE",
"472 -12 CURVE SMOOTH",
"564 -12 OFFCURVE",
"672 -6 OFFCURVE",
"752 2 CURVE",
"838 556 LINE SMOOTH",
"864 718 OFFCURVE",
"888 896 OFFCURVE",
"900 1016 CURVE",
"916 1016 LINE",
"924 896 OFFCURVE",
"946 716 OFFCURVE",
"970 556 CURVE SMOOTH",
"1034 138 LINE SMOOTH",
"1054 4 OFFCURVE",
"1138 -12 OFFCURVE",
"1238 -12 CURVE SMOOTH",
"1326 -12 OFFCURVE",
"1446 -6 OFFCURVE",
"1522 2 CURVE",
"1784 1336 LINE",
"1768 1356 LINE",
"1724 1370 OFFCURVE",
"1662 1378 OFFCURVE",
"1610 1378 CURVE SMOOTH",
"1564 1378 OFFCURVE",
"1510 1376 OFFCURVE",
"1460 1366 CURVE",
"1352 710 LINE SMOOTH",
"1328 570 OFFCURVE",
"1304 388 OFFCURVE",
"1294 280 CURVE",
"1282 280 OFFCURVE",
"1276 280 OFFCURVE",
"1272 308 CURVE SMOOTH",
"1126 1340 LINE",
"1062 1352 OFFCURVE",
"980 1356 OFFCURVE",
"912 1356 CURVE SMOOTH",
"846 1356 OFFCURVE",
"764 1352 OFFCURVE",
"698 1340 CURVE",
"540 280 LINE",
"526 280 OFFCURVE",
"522 282 OFFCURVE",
"520 308 CURVE SMOOTH",
"512 404 OFFCURVE",
"488 572 OFFCURVE",
"466 706 CURVE SMOOTH",
"388 1200 LINE SMOOTH",
"366 1344 OFFCURVE",
"320 1384 OFFCURVE",
"202 1384 CURVE SMOOTH",
"142 1384 OFFCURVE",
"74 1366 OFFCURVE",
"26 1346 CURVE"
);
}
);
width = 1822;
},
{
anchors = (
{
name = bottom_U;
position = "{828, -40}";
},
{
name = top_U;
position = "{828, 1464}";
}
);
layerId = "59A137EB-1A44-4616-9625-4B79FA594CBD";
paths = (
{
closed = 1;
nodes = (
"336 75 LINE",
"351 4 OFFCURVE",
"396 -8 OFFCURVE",
"444 -8 CURVE SMOOTH",
"480 -8 OFFCURVE",
"541 -6 OFFCURVE",
"579 0 CURVE",
"720 666 LINE SMOOTH",
"746 786 OFFCURVE",
"784 980 OFFCURVE",
"820 1176 CURVE",
"832 1176 LINE",
"867 980 OFFCURVE",
"904 783 OFFCURVE",
"926 666 CURVE SMOOTH",
"1038 73 LINE SMOOTH",
"1050 4 OFFCURVE",
"1087 -8 OFFCURVE",
"1134 -8 CURVE SMOOTH",
"1172 -8 OFFCURVE",
"1239 -6 OFFCURVE",
"1279 2 CURVE",
"1577 1353 LINE",
"1569 1364 LINE",
"1545 1370 OFFCURVE",
"1518 1372 OFFCURVE",
"1494 1372 CURVE SMOOTH",
"1471 1372 OFFCURVE",
"1444 1370 OFFCURVE",
"1424 1366 CURVE",
"1248 530 LINE SMOOTH",
"1229 441 OFFCURVE",
"1192 255 OFFCURVE",
"1171 126 CURVE",
"1160 126 OFFCURVE",
"1158 128 OFFCURVE",
"1154 147 CURVE SMOOTH",
"928 1336 LINE",
"906 1341 OFFCURVE",
"857 1343 OFFCURVE",
"828 1343 CURVE SMOOTH",
"802 1343 OFFCURVE",
"756 1341 OFFCURVE",
"727 1336 CURVE",
"479 126 LINE",
"469 126 OFFCURVE",
"467 126 OFFCURVE",
"463 147 CURVE SMOOTH",
"446 243 OFFCURVE",
"410 441 OFFCURVE",
"394 529 CURVE SMOOTH",
"246 1297 LINE SMOOTH",
"235 1355 OFFCURVE",
"214 1378 OFFCURVE",
"166 1378 CURVE SMOOTH",
"138 1378 OFFCURVE",
"112 1376 OFFCURVE",
"77 1359 CURVE"
);
}
);
width = 1642;
},
{
anchors = (
{
name = bottom_U;
position = "{800, -40}";
},
{
name = top_U;
position = "{800, 1464}";
}
);
layerId = "9ED2045D-B62B-46E9-A722-9499BEB4CDB9";
paths = (
{
closed = 1;
nodes = (
"366 52 LINE",
"376 4 OFFCURVE",
"410 -6 OFFCURVE",
"434 -6 CURVE SMOOTH",
"452 -6 OFFCURVE",
"494 -6 OFFCURVE",
"518 0 CURVE",
"678 708 LINE SMOOTH",
"704 812 OFFCURVE",
"746 1010 OFFCURVE",
"792 1234 CURVE",
"804 1234 LINE",
"848 1010 OFFCURVE",
"890 808 OFFCURVE",
"912 708 CURVE SMOOTH",
"1042 50 LINE SMOOTH",
"1050 4 OFFCURVE",
"1070 -6 OFFCURVE",
"1096 -6 CURVE SMOOTH",
"1118 -6 OFFCURVE",
"1164 -6 OFFCURVE",
"1190 2 CURVE",
"1502 1360 LINE",
"1496 1366 LINE",
"1482 1370 OFFCURVE",
"1466 1370 OFFCURVE",
"1454 1370 CURVE SMOOTH",
"1438 1370 OFFCURVE",
"1420 1368 OFFCURVE",
"1412 1366 CURVE",
"1210 462 LINE SMOOTH",
"1194 392 OFFCURVE",
"1152 206 OFFCURVE",
"1126 70 CURVE",
"1118 70 OFFCURVE",
"1116 72 OFFCURVE",
"1112 86 CURVE SMOOTH",
"858 1334 LINE",
"850 1336 OFFCURVE",
"812 1338 OFFCURVE",
"800 1338 CURVE SMOOTH",
"788 1338 OFFCURVE",
"756 1336 OFFCURVE",
"740 1334 CURVE",
"458 70 LINE",
"450 70 OFFCURVE",
"448 68 OFFCURVE",
"444 86 CURVE SMOOTH",
"422 182 OFFCURVE",
"384 392 OFFCURVE",
"370 464 CURVE SMOOTH",
"194 1332 LINE SMOOTH",
"188 1360 OFFCURVE",
"176 1376 OFFCURVE",
"154 1376 CURVE SMOOTH",
"138 1376 OFFCURVE",
"128 1380 OFFCURVE",
"98 1364 CURVE"
);
}
);
width = 1642;
}
);
leftKerningGroup = W;
rightKerningGroup = W;
unicode = 0057;
},
{
glyphname = X;
lastChange = "2018-11-23 02:58:08 +0000";
layers = (
{
anchors = (
{
name = bottom_U;
position = "{610, -40}";
},
{
name = top_U;
position = "{628, 1464}";
}
);
layerId = UUID1;
paths = (
{
closed = 1;
nodes = (
"792 112 LINE",
"856 12 OFFCURVE",
"912 -20 OFFCURVE",
"1008 -20 CURVE SMOOTH",
"1078 -20 OFFCURVE",
"1160 8 OFFCURVE",
"1226 52 CURVE",
"474 1256 LINE SMOOTH",
"412 1354 OFFCURVE",
"358 1386 OFFCURVE",
"262 1386 CURVE SMOOTH",
"192 1386 OFFCURVE",
"110 1358 OFFCURVE",
"44 1314 CURVE"
);
},
{
closed = 1;
nodes = (
"618 950 LINE",
"482 798 LINE",
"14 34 LINE",
"22 16 LINE",
"70 0 OFFCURVE",
"138 -12 OFFCURVE",
"202 -12 CURVE SMOOTH",
"260 -12 OFFCURVE",
"306 -8 OFFCURVE",
"342 0 CURVE",
"622 474 LINE",
"758 628 LINE",
"1186 1334 LINE",
"1178 1350 LINE",
"1134 1366 OFFCURVE",
"1066 1378 OFFCURVE",
"1002 1378 CURVE SMOOTH",
"944 1378 OFFCURVE",
"898 1374 OFFCURVE",
"862 1366 CURVE"
);
}
);
width = 1240;
},
{
anchors = (
{
name = bottom_U;
position = "{570, -40}";
},
{
name = top_U;
position = "{582, 1464}";
}
);
layerId = "59A137EB-1A44-4616-9625-4B79FA594CBD";
paths = (
{
closed = 1;
nodes = (
"897 51 LINE",
"926 4 OFFCURVE",
"960 -12 OFFCURVE",
"993 -12 CURVE SMOOTH",
"1025 -12 OFFCURVE",
"1063 -2 OFFCURVE",
"1097 24 CURVE",
"303 1315 LINE SMOOTH",
"273 1362 OFFCURVE",
"240 1378 OFFCURVE",
"207 1378 CURVE SMOOTH",
"175 1378 OFFCURVE",
"137 1368 OFFCURVE",
"103 1343 CURVE"
);
},
{
closed = 1;
nodes = (
"569 819 LINE",
"505 752 LINE",
"46 19 LINE",
"52 7 LINE",
"68 -2 OFFCURVE",
"100 -8 OFFCURVE",
"132 -8 CURVE SMOOTH",
"154 -8 OFFCURVE",
"188 -4 OFFCURVE",
"200 0 CURVE",
"582 628 LINE",
"646 693 LINE",
"1053 1347 LINE",
"1047 1360 LINE",
"1031 1368 OFFCURVE",
"1000 1374 OFFCURVE",
"968 1374 CURVE SMOOTH",
"946 1374 OFFCURVE",
"915 1370 OFFCURVE",
"904 1366 CURVE"
);
}
);
width = 1143;
},
{
anchors = (
{
name = bottom_U;
position = "{555, -40}";
},
{
name = top_U;
position = "{566, 1464}";
}
);
layerId = "9ED2045D-B62B-46E9-A722-9499BEB4CDB9";
paths = (
{
closed = 1;
nodes = (
"935 29 LINE",
"952 2 OFFCURVE",
"977 -10 OFFCURVE",
"987 -10 CURVE SMOOTH",
"1005 -10 OFFCURVE",
"1027 -5 OFFCURVE",
"1049 13 CURVE",
"240 1337 LINE SMOOTH",
"222 1364 OFFCURVE",
"197 1376 OFFCURVE",
"186 1376 CURVE SMOOTH",
"169 1376 OFFCURVE",
"146 1371 OFFCURVE",
"125 1353 CURVE"
);
},
{
closed = 1;
nodes = (
"550 770 LINE",
"513 736 LINE",
"58 13 LINE",
"64 3 LINE",
"67 -3 OFFCURVE",
"86 -7 OFFCURVE",
"106 -7 CURVE SMOOTH",
"114 -7 OFFCURVE",
"145 -3 OFFCURVE",
"147 0 CURVE",
"567 685 LINE",
"604 717 LINE",
"1004 1352 LINE",
"998 1363 LINE",
"993 1369 OFFCURVE",
"975 1373 OFFCURVE",
"955 1373 CURVE SMOOTH",
"947 1373 OFFCURVE",
"921 1369 OFFCURVE",
"919 1366 CURVE"
);
}
);
width = 1144;
}
);
unicode = 0058;
},
{
glyphname = Y;
lastChange = "2018-11-23 02:58:08 +0000";
layers = (
{
anchors = (
{
name = bottom_U;
position = "{550, -40}";
},
{
name = top_U;
position = "{554, 1464}";
}
);
layerId = UUID1;
paths = (
{
closed = 1;
nodes = (
"380 0 LINE",
"434 -10 OFFCURVE",
"510 -12 OFFCURVE",
"550 -12 CURVE SMOOTH",
"594 -12 OFFCURVE",
"660 -10 OFFCURVE",
"716 0 CURVE",
"716 618 LINE",
"380 618 LINE"
);
},
{
closed = 1;
nodes = (
"662 1044 LINE SMOOTH",
"624 948 OFFCURVE",
"588 844 OFFCURVE",
"562 740 CURVE",
"550 740 LINE",
"522 852 OFFCURVE",
"492 946 OFFCURVE",
"458 1032 CURVE SMOOTH",
"372 1250 LINE SMOOTH",
"334 1344 OFFCURVE",
"290 1382 OFFCURVE",
"196 1382 CURVE SMOOTH",
"124 1382 OFFCURVE",
"48 1358 OFFCURVE",
"-8 1326 CURVE",
"400 380 LINE",
"700 380 LINE",
"1104 1336 LINE",
"1090 1354 LINE",
"1046 1370 OFFCURVE",
"982 1378 OFFCURVE",
"926 1378 CURVE SMOOTH",
"882 1378 OFFCURVE",
"836 1376 OFFCURVE",
"790 1366 CURVE"
);
}
);
width = 1096;
},
{
anchors = (
{
name = bottom_U;
position = "{482, -40}";
},
{
name = top_U;
position = "{489, 1464}";
}
);
layerId = "59A137EB-1A44-4616-9625-4B79FA594CBD";
paths = (
{
closed = 1;
nodes = (
"407 0 LINE",
"426 -4 OFFCURVE",
"455 -6 OFFCURVE",
"482 -6 CURVE SMOOTH",
"510 -6 OFFCURVE",
"538 -4 OFFCURVE",
"560 0 CURVE",
"560 542 LINE",
"407 542 LINE"
);
},
{
closed = 1;
nodes = (
"580 843 LINE SMOOTH",
"565 804 OFFCURVE",
"518 681 OFFCURVE",
"497 613 CURVE",
"487 613 LINE",
"467 679 OFFCURVE",
"433 779 OFFCURVE",
"407 842 CURVE SMOOTH",
"214 1307 LINE SMOOTH",
"195 1355 OFFCURVE",
"172 1380 OFFCURVE",
"130 1380 CURVE SMOOTH",
"103 1380 OFFCURVE",
"73 1373 OFFCURVE",
"30 1349 CURVE",
"427 403 LINE",
"542 403 LINE",
"937 1351 LINE",
"930 1364 LINE",
"907 1370 OFFCURVE",
"883 1374 OFFCURVE",
"856 1374 CURVE SMOOTH",
"835 1374 OFFCURVE",
"809 1372 OFFCURVE",
"788 1366 CURVE"
);
}
);
width = 963;
},
{
anchors = (
{
name = bottom_U;
position = "{456, -40}";
},
{
name = top_U;
position = "{465, 1464}";
}
);
layerId = "9ED2045D-B62B-46E9-A722-9499BEB4CDB9";
paths = (
{
closed = 1;
nodes = (
"416 0 LINE",
"424 -2 OFFCURVE",
"434 -4 OFFCURVE",
"456 -4 CURVE SMOOTH",
"479 -4 OFFCURVE",
"493 -2 OFFCURVE",
"502 0 CURVE",
"502 514 LINE",
"416 514 LINE"
);
},
{
closed = 1;
nodes = (
"550 768 LINE SMOOTH",
"543 750 OFFCURVE",
"492 620 OFFCURVE",
"473 566 CURVE",
"464 566 LINE",
"446 615 OFFCURVE",
"411 717 OFFCURVE",
"388 772 CURVE SMOOTH",
"156 1328 LINE SMOOTH",
"144 1360 OFFCURVE",
"129 1379 OFFCURVE",
"105 1379 CURVE SMOOTH",
"95 1379 OFFCURVE",
"82 1379 OFFCURVE",
"44 1357 CURVE",
"436 411 LINE",
"484 411 LINE",
"875 1357 LINE",
"871 1367 LINE",
"856 1370 OFFCURVE",
"847 1373 OFFCURVE",
"830 1373 CURVE SMOOTH",
"817 1373 OFFCURVE",
"800 1371 OFFCURVE",
"787 1366 CURVE"
);
}
);
width = 964;
}
);
leftKerningGroup = Y;
rightKerningGroup = Y;
unicode = 0059;
},
{
glyphname = Z;
lastChange = "2018-11-23 02:58:08 +0000";
layers = (
{
anchors = (
{
name = bottom_U;
position = "{572, -40}";
},
{
name = top_U;
position = "{578, 1464}";
}
);
layerId = UUID1;
paths = (
{
closed = 1;
nodes = (
"112 322 LINE",
"86 286 OFFCURVE",
"72 240 OFFCURVE",
"72 200 CURVE SMOOTH",
"72 172 OFFCURVE",
"76 148 OFFCURVE",
"108 0 CURVE",
"874 0 LINE SMOOTH",
"1000 0 OFFCURVE",
"1092 56 OFFCURVE",
"1092 176 CURVE SMOOTH",
"1092 228 OFFCURVE",
"1082 286 OFFCURVE",
"1070 326 CURVE",
"1016 300 OFFCURVE",
"942 278 OFFCURVE",
"846 278 CURVE SMOOTH",
"748 278 LINE SMOOTH",
"660 278 OFFCURVE",
"526 270 OFFCURVE",
"440 264 CURVE",
"434 270 LINE",
"486 322 OFFCURVE",
"552 402 OFFCURVE",
"590 454 CURVE SMOOTH",
"1028 1046 LINE SMOOTH",
"1056 1086 OFFCURVE",
"1064 1124 OFFCURVE",
"1064 1162 CURVE SMOOTH",
"1064 1186 OFFCURVE",
"1062 1208 OFFCURVE",
"1018 1366 CURVE",
"124 1366 LINE",
"110 1310 OFFCURVE",
"102 1264 OFFCURVE",
"102 1206 CURVE SMOOTH",
"102 1170 OFFCURVE",
"104 1134 OFFCURVE",
"114 1094 CURVE",
"396 1094 LINE",
"480 1094 OFFCURVE",
"606 1100 OFFCURVE",
"704 1112 CURVE",
"710 1106 LINE",
"660 1054 OFFCURVE",
"586 964 OFFCURVE",
"548 912 CURVE SMOOTH"
);
}
);
width = 1164;
},
{
anchors = (
{
name = bottom_U;
position = "{557, -40}";
},
{
name = top_U;
position = "{563, 1464}";
}
);
layerId = "59A137EB-1A44-4616-9625-4B79FA594CBD";
paths = (
{
closed = 1;
nodes = (
"129 180 LINE",
"113 153 OFFCURVE",
"106 126 OFFCURVE",
"106 103 CURVE SMOOTH",
"106 85 OFFCURVE",
"108 66 OFFCURVE",
"129 0 CURVE",
"885 0 LINE SMOOTH",
"970 0 OFFCURVE",
"999 35 OFFCURVE",
"999 91 CURVE SMOOTH",
"999 118 OFFCURVE",
"993 145 OFFCURVE",
"985 170 CURVE",
"932 146 OFFCURVE",
"853 137 OFFCURVE",
"743 137 CURVE SMOOTH",
"482 137 LINE SMOOTH",
"432 137 OFFCURVE",
"357 135 OFFCURVE",
"273 127 CURVE",
"267 133 LINE",
"319 208 OFFCURVE",
"379 292 OFFCURVE",
"425 363 CURVE SMOOTH",
"958 1190 LINE SMOOTH",
"974 1217 OFFCURVE",
"982 1240 OFFCURVE",
"982 1261 CURVE SMOOTH",
"982 1279 OFFCURVE",
"978 1301 OFFCURVE",
"959 1366 CURVE",
"168 1366 LINE",
"159 1339 OFFCURVE",
"155 1312 OFFCURVE",
"155 1284 CURVE SMOOTH",
"155 1267 OFFCURVE",
"157 1248 OFFCURVE",
"162 1231 CURVE",
"502 1231 LINE",
"552 1231 OFFCURVE",
"768 1235 OFFCURVE",
"816 1245 CURVE",
"822 1239 LINE",
"763 1155 OFFCURVE",
"711 1086 OFFCURVE",
"668 1018 CURVE SMOOTH"
);
}
);
width = 1105;
},
{
anchors = (
{
name = bottom_U;
position = "{551, -40}";
},
{
name = top_U;
position = "{557, 1464}";
}
);
layerId = "9ED2045D-B62B-46E9-A722-9499BEB4CDB9";
paths = (
{
closed = 1;
nodes = (
"135 127 LINE",
"122 104 OFFCURVE",
"119 84 OFFCURVE",
"119 67 CURVE SMOOTH",
"119 52 OFFCURVE",
"120 36 OFFCURVE",
"137 0 CURVE",
"890 0 LINE SMOOTH",
"958 0 OFFCURVE",
"964 27 OFFCURVE",
"964 59 CURVE SMOOTH",
"964 77 OFFCURVE",
"960 93 OFFCURVE",
"953 112 CURVE",
"901 89 OFFCURVE",
"820 85 OFFCURVE",
"705 85 CURVE SMOOTH",
"383 85 LINE SMOOTH",
"348 85 OFFCURVE",
"294 85 OFFCURVE",
"211 77 CURVE",
"205 83 LINE",
"257 166 OFFCURVE",
"315 251 OFFCURVE",
"363 329 CURVE SMOOTH",
"932 1244 LINE SMOOTH",
"944 1266 OFFCURVE",
"952 1283 OFFCURVE",
"952 1297 CURVE SMOOTH",
"952 1314 OFFCURVE",
"947 1336 OFFCURVE",
"937 1366 CURVE",
"184 1366 LINE",
"178 1349 OFFCURVE",
"175 1329 OFFCURVE",
"175 1313 CURVE SMOOTH",
"175 1303 OFFCURVE",
"177 1290 OFFCURVE",
"179 1281 CURVE",
"542 1281 LINE",
"579 1281 OFFCURVE",
"827 1285 OFFCURVE",
"858 1294 CURVE",
"864 1288 LINE",
"801 1192 OFFCURVE",
"758 1131 OFFCURVE",
"712 1058 CURVE SMOOTH"
);
}
);
width = 1106;
}
);
leftKerningGroup = Z;
rightKerningGroup = Z;
unicode = 005A;
},
{
glyphname = a;
lastChange = "2018-11-23 02:58:08 +0000";
layers = (
{
anchors = (
{
name = bottom;
position = "{512, -40}";
},
{
name = top;
position = "{502, 1084}";
}
);
layerId = UUID1;
paths = (
{
closed = 1;
nodes = (
"56 130 OFFCURVE",
"154 -30 OFFCURVE",
"362 -30 CURVE SMOOTH",
"542 -30 OFFCURVE",
"644 68 OFFCURVE",
"724 162 CURVE",
"678 366 LINE",
"624 270 OFFCURVE",
"538 210 OFFCURVE",
"460 210 CURVE SMOOTH",
"408 210 OFFCURVE",
"374 246 OFFCURVE",
"374 296 CURVE SMOOTH",
"374 366 OFFCURVE",
"406 416 OFFCURVE",
"490 416 CURVE SMOOTH",
"540 416 OFFCURVE",
"632 416 OFFCURVE",
"688 404 CURVE",
"688 610 LINE",
"616 624 OFFCURVE",
"512 624 OFFCURVE",
"454 624 CURVE SMOOTH",
"250 624 OFFCURVE",
"56 516 OFFCURVE",
"56 274 CURVE SMOOTH"
);
},
{
closed = 1;
nodes = (
"936 178 OFFCURVE",
"918 220 OFFCURVE",
"918 276 CURVE SMOOTH",
"918 682 LINE SMOOTH",
"918 938 OFFCURVE",
"730 1024 OFFCURVE",
"558 1024 CURVE SMOOTH",
"430 1024 OFFCURVE",
"232 992 OFFCURVE",
"94 936 CURVE",
"102 856 OFFCURVE",
"126 764 OFFCURVE",
"172 710 CURVE",
"276 740 OFFCURVE",
"380 772 OFFCURVE",
"464 772 CURVE SMOOTH",
"552 772 OFFCURVE",
"590 730 OFFCURVE",
"590 652 CURVE SMOOTH",
"590 228 LINE",
"610 122 OFFCURVE",
"692 -16 OFFCURVE",
"876 -16 CURVE",
"916 16 OFFCURVE",
"962 94 OFFCURVE",
"974 152 CURVE"
);
}
);
width = 1028;
},
{
anchors = (
{
name = bottom;
position = "{493, -40}";
},
{
name = top;
position = "{483, 1084}";
}
);
layerId = "59A137EB-1A44-4616-9625-4B79FA594CBD";
paths = (
{
closed = 1;
nodes = (
"102 124 OFFCURVE",
"196 -24 OFFCURVE",
"390 -24 CURVE SMOOTH",
"562 -24 OFFCURVE",
"694 108 OFFCURVE",
"762 188 CURVE",
"736 324 LINE",
"652 176 OFFCURVE",
"518 102 OFFCURVE",
"410 102 CURVE SMOOTH",
"308 102 OFFCURVE",
"252 180 OFFCURVE",
"252 278 CURVE SMOOTH",
"252 404 OFFCURVE",
"340 476 OFFCURVE",
"478 476 CURVE SMOOTH",
"568 476 OFFCURVE",
"668 472 OFFCURVE",
"746 454 CURVE",
"746 558 LINE",
"662 580 OFFCURVE",
"560 588 OFFCURVE",
"476 588 CURVE SMOOTH",
"254 588 OFFCURVE",
"102 488 OFFCURVE",
"102 266 CURVE SMOOTH"
);
},
{
closed = 1;
nodes = (
"846 110 OFFCURVE",
"840 172 OFFCURVE",
"840 258 CURVE SMOOTH",
"840 668 LINE SMOOTH",
"840 884 OFFCURVE",
"738 1002 OFFCURVE",
"530 1002 CURVE SMOOTH",
"390 1002 OFFCURVE",
"238 952 OFFCURVE",
"138 908 CURVE",
"138 868 OFFCURVE",
"162 816 OFFCURVE",
"190 792 CURVE",
"296 838 OFFCURVE",
"406 874 OFFCURVE",
"516 874 CURVE SMOOTH",
"626 874 OFFCURVE",
"696 820 OFFCURVE",
"696 672 CURVE SMOOTH",
"696 208 LINE",
"696 104 OFFCURVE",
"730 22 OFFCURVE",
"828 -14 CURVE",
"860 0 OFFCURVE",
"886 36 OFFCURVE",
"896 62 CURVE"
);
}
);
width = 1007;
},
{
anchors = (
{
name = bottom;
position = "{493, -40}";
},
{
name = top;
position = "{483, 1084}";
}
);
layerId = "9ED2045D-B62B-46E9-A722-9499BEB4CDB9";
paths = (
{
closed = 1;
nodes = (
"138 124 OFFCURVE",
"226 -24 OFFCURVE",
"420 -24 CURVE SMOOTH",
"592 -24 OFFCURVE",
"718 94 OFFCURVE",
"780 216 CURVE",
"766 324 LINE",
"698 162 OFFCURVE",
"566 62 OFFCURVE",
"426 62 CURVE SMOOTH",
"306 62 OFFCURVE",
"230 158 OFFCURVE",
"230 270 CURVE SMOOTH",
"230 414 OFFCURVE",
"328 508 OFFCURVE",
"504 508 CURVE SMOOTH",
"604 508 OFFCURVE",
"718 494 OFFCURVE",
"776 476 CURVE",
"776 558 LINE",
"712 580 OFFCURVE",
"590 588 OFFCURVE",
"506 588 CURVE SMOOTH",
"290 588 OFFCURVE",
"138 468 OFFCURVE",
"138 266 CURVE SMOOTH"
);
},
{
closed = 1;
nodes = (
"860 82 OFFCURVE",
"844 138 OFFCURVE",
"844 258 CURVE SMOOTH",
"844 660 LINE SMOOTH",
"844 866 OFFCURVE",
"744 994 OFFCURVE",
"548 994 CURVE SMOOTH",
"408 994 OFFCURVE",
"268 944 OFFCURVE",
"168 900 CURVE",
"168 860 OFFCURVE",
"180 834 OFFCURVE",
"204 820 CURVE",
"310 866 OFFCURVE",
"436 908 OFFCURVE",
"546 908 CURVE SMOOTH",
"676 908 OFFCURVE",
"756 850 OFFCURVE",
"756 684 CURVE SMOOTH",
"756 208 LINE",
"756 104 OFFCURVE",
"776 22 OFFCURVE",
"858 -14 CURVE",
"890 0 OFFCURVE",
"904 24 OFFCURVE",
"914 50 CURVE"
);
}
);
width = 1008;
}
);
leftKerningGroup = a;
rightKerningGroup = a;
unicode = 0061;
},
{
glyphname = b;
lastChange = "2018-11-23 02:58:08 +0000";
layers = (
{
anchors = (
{
name = bottom;
position = "{522, -40}";
},
{
name = top;
position = "{522, 1084}";
}
);
layerId = UUID1;
paths = (
{
closed = 1;
nodes = (
"434 1276 LINE",
"434 1422 OFFCURVE",
"380 1472 OFFCURVE",
"252 1472 CURVE SMOOTH",
"128 1472 LINE",
"114 1458 LINE",
"114 50 LINE",
"434 50 LINE"
);
},
{
closed = 1;
nodes = (
"1016 806 OFFCURVE",
"898 1020 OFFCURVE",
"660 1020 CURVE SMOOTH",
"522 1020 OFFCURVE",
"426 964 OFFCURVE",
"342 884 CURVE",
"388 638 LINE",
"436 728 OFFCURVE",
"508 760 OFFCURVE",
"560 758 CURVE SMOOTH",
"644 756 OFFCURVE",
"680 682 OFFCURVE",
"680 508 CURVE SMOOTH",
"680 330 OFFCURVE",
"636 216 OFFCURVE",
"516 216 CURVE SMOOTH",
"426 216 OFFCURVE",
"342 242 OFFCURVE",
"268 290 CURVE",
"114 50 LINE",
"220 8 OFFCURVE",
"362 -18 OFFCURVE",
"510 -18 CURVE SMOOTH",
"824 -18 OFFCURVE",
"1018 192 OFFCURVE",
"1016 514 CURVE SMOOTH"
);
}
);
width = 1072;
},
{
anchors = (
{
name = bottom;
position = "{522, -40}";
},
{
name = top;
position = "{522, 1084}";
}
);
layerId = "59A137EB-1A44-4616-9625-4B79FA594CBD";
paths = (
{
closed = 1;
nodes = (
"322 1369 LINE",
"322 1435 OFFCURVE",
"310 1470 OFFCURVE",
"243 1470 CURVE SMOOTH",
"189 1470 LINE",
"177 1458 LINE",
"177 50 LINE",
"322 50 LINE"
);
},
{
closed = 1;
nodes = (
"946 793 OFFCURVE",
"830 997 OFFCURVE",
"605 997 CURVE SMOOTH",
"437 997 OFFCURVE",
"312 880 OFFCURVE",
"262 804 CURVE",
"285 672 LINE",
"343 779 OFFCURVE",
"462 868 OFFCURVE",
"583 868 CURVE SMOOTH",
"695 868 OFFCURVE",
"796 762 OFFCURVE",
"796 502 CURVE SMOOTH",
"796 227 OFFCURVE",
"670 100 OFFCURVE",
"524 100 CURVE SMOOTH",
"417 100 OFFCURVE",
"340 120 OFFCURVE",
"253 170 CURVE",
"177 50 LINE",
"290 8 OFFCURVE",
"406 -14 OFFCURVE",
"525 -14 CURVE SMOOTH",
"737 -14 OFFCURVE",
"946 139 OFFCURVE",
"946 503 CURVE SMOOTH"
);
}
);
width = 1047;
},
{
anchors = (
{
name = bottom;
position = "{522, -40}";
},
{
name = top;
position = "{522, 1084}";
}
);
layerId = "9ED2045D-B62B-46E9-A722-9499BEB4CDB9";
paths = (
{
closed = 1;
nodes = (
"280 1404 LINE",
"280 1440 OFFCURVE",
"284 1469 OFFCURVE",
"239 1469 CURVE SMOOTH",
"211 1469 LINE",
"200 1458 LINE",
"200 50 LINE",
"280 50 LINE"
);
},
{
closed = 1;
nodes = (
"920 788 OFFCURVE",
"804 989 OFFCURVE",
"584 989 CURVE SMOOTH",
"405 989 OFFCURVE",
"270 849 OFFCURVE",
"233 775 CURVE",
"247 685 LINE",
"308 798 OFFCURVE",
"446 908 OFFCURVE",
"591 909 CURVE SMOOTH",
"714 910 OFFCURVE",
"839 791 OFFCURVE",
"839 500 CURVE SMOOTH",
"839 189 OFFCURVE",
"683 57 OFFCURVE",
"526 57 CURVE SMOOTH",
"413 57 OFFCURVE",
"339 75 OFFCURVE",
"247 126 CURVE",
"200 50 LINE",
"316 8 OFFCURVE",
"422 -13 OFFCURVE",
"531 -13 CURVE SMOOTH",
"704 -13 OFFCURVE",
"919 119 OFFCURVE",
"920 498 CURVE SMOOTH"
);
}
);
width = 1048;
}
);
unicode = 0062;
},
{
glyphname = c;
lastChange = "2018-11-23 02:58:08 +0000";
layers = (
{
anchors = (
{
name = bottom;
position = "{502, -40}";
},
{
name = top;
position = "{504, 1084}";
}
);
layerId = UUID1;
paths = (
{
closed = 1;
nodes = (
"650 540 OFFCURVE",
"686 536 OFFCURVE",
"742 536 CURVE SMOOTH",
"832 536 OFFCURVE",
"902 584 OFFCURVE",
"902 694 CURVE SMOOTH",
"902 900 OFFCURVE",
"730 1030 OFFCURVE",
"508 1030 CURVE SMOOTH",
"288 1030 OFFCURVE",
"56 888 OFFCURVE",
"56 498 CURVE SMOOTH",
"56 172 OFFCURVE",
"214 -30 OFFCURVE",
"502 -30 CURVE SMOOTH",
"650 -30 OFFCURVE",
"806 30 OFFCURVE",
"894 124 CURVE",
"880 188 OFFCURVE",
"824 276 OFFCURVE",
"772 306 CURVE",
"710 262 OFFCURVE",
"632 224 OFFCURVE",
"556 224 CURVE SMOOTH",
"446 224 OFFCURVE",
"390 290 OFFCURVE",
"390 498 CURVE SMOOTH",
"390 702 OFFCURVE",
"414 788 OFFCURVE",
"502 788 CURVE SMOOTH",
"600 788 OFFCURVE",
"610 706 OFFCURVE",
"610 548 CURVE"
);
}
);
width = 950;
},
{
anchors = (
{
name = bottom;
position = "{494, -40}";
},
{
name = top;
position = "{502, 1084}";
}
);
layerId = "59A137EB-1A44-4616-9625-4B79FA594CBD";
paths = (
{
closed = 1;
nodes = (
"734 629 OFFCURVE",
"753 627 OFFCURVE",
"774 627 CURVE SMOOTH",
"840 627 OFFCURVE",
"853 670 OFFCURVE",
"853 721 CURVE SMOOTH",
"853 826 OFFCURVE",
"760 1005 OFFCURVE",
"506 1005 CURVE SMOOTH",
"299 1005 OFFCURVE",
"104 844 OFFCURVE",
"104 483 CURVE SMOOTH",
"104 231 OFFCURVE",
"208 -24 OFFCURVE",
"494 -24 CURVE SMOOTH",
"635 -24 OFFCURVE",
"749 34 OFFCURVE",
"841 120 CURVE",
"833 156 OFFCURVE",
"799 196 OFFCURVE",
"770 215 CURVE",
"697 159 OFFCURVE",
"613 104 OFFCURVE",
"514 104 CURVE SMOOTH",
"355 104 OFFCURVE",
"259 227 OFFCURVE",
"259 483 CURVE SMOOTH",
"259 748 OFFCURVE",
"357 887 OFFCURVE",
"502 887 CURVE SMOOTH",
"670 887 OFFCURVE",
"718 750 OFFCURVE",
"711 634 CURVE"
);
}
);
width = 939;
},
{
anchors = (
{
name = bottom;
position = "{492, -40}";
},
{
name = top;
position = "{501, 1084}";
}
);
layerId = "9ED2045D-B62B-46E9-A722-9499BEB4CDB9";
paths = (
{
closed = 1;
nodes = (
"765 662 OFFCURVE",
"777 661 OFFCURVE",
"786 661 CURVE SMOOTH",
"842 661 OFFCURVE",
"834 701 OFFCURVE",
"834 730 CURVE SMOOTH",
"834 798 OFFCURVE",
"772 996 OFFCURVE",
"505 996 CURVE SMOOTH",
"304 996 OFFCURVE",
"121 828 OFFCURVE",
"121 477 CURVE SMOOTH",
"121 253 OFFCURVE",
"206 -22 OFFCURVE",
"492 -22 CURVE SMOOTH",
"629 -22 OFFCURVE",
"728 35 OFFCURVE",
"821 119 CURVE",
"815 144 OFFCURVE",
"790 167 OFFCURVE",
"769 181 CURVE",
"692 121 OFFCURVE",
"606 60 OFFCURVE",
"499 60 CURVE SMOOTH",
"321 60 OFFCURVE",
"210 204 OFFCURVE",
"210 477 CURVE SMOOTH",
"210 764 OFFCURVE",
"336 923 OFFCURVE",
"502 923 CURVE SMOOTH",
"696 923 OFFCURVE",
"758 766 OFFCURVE",
"748 665 CURVE"
);
}
);
width = 938;
}
);
leftKerningGroup = c;
rightKerningGroup = c;
unicode = 0063;
},
{
glyphname = d;
lastChange = "2018-11-23 02:58:08 +0000";
layers = (
{
anchors = (
{
name = bottom;
position = "{528, -40}";
},
{
name = top;
position = "{524, 1084}";
}
);
layerId = UUID1;
paths = (
{
closed = 1;
nodes = (
"962 1276 LINE",
"962 1422 OFFCURVE",
"912 1472 OFFCURVE",
"784 1472 CURVE SMOOTH",
"656 1472 LINE",
"642 1458 LINE",
"642 290 LINE SMOOTH",
"642 118 OFFCURVE",
"738 -16 OFFCURVE",
"920 -16 CURVE",
"960 16 OFFCURVE",
"1006 94 OFFCURVE",
"1018 152 CURVE",
"986 174 OFFCURVE",
"962 228 OFFCURVE",
"962 290 CURVE SMOOTH"
);
},
{
closed = 1;
nodes = (
"60 184 OFFCURVE",
"176 -30 OFFCURVE",
"422 -30 CURVE SMOOTH",
"620 -30 OFFCURVE",
"782 138 OFFCURVE",
"798 304 CURVE",
"724 484 LINE",
"670 268 OFFCURVE",
"566 232 OFFCURVE",
"508 232 CURVE SMOOTH",
"442 232 OFFCURVE",
"396 308 OFFCURVE",
"396 486 CURVE SMOOTH",
"396 662 OFFCURVE",
"428 778 OFFCURVE",
"522 778 CURVE SMOOTH",
"582 778 OFFCURVE",
"664 728 OFFCURVE",
"742 664 CURVE",
"796 894 LINE",
"708 946 OFFCURVE",
"604 1020 OFFCURVE",
"464 1020 CURVE SMOOTH",
"240 1020 OFFCURVE",
"60 830 OFFCURVE",
"60 488 CURVE SMOOTH"
);
}
);
width = 1080;
},
{
anchors = (
{
name = bottom;
position = "{524, -40}";
},
{
name = top;
position = "{524, 1084}";
}
);
layerId = "59A137EB-1A44-4616-9625-4B79FA594CBD";
paths = (
{
closed = 1;
nodes = (
"871 1369 LINE",
"871 1435 OFFCURVE",
"859 1470 OFFCURVE",
"792 1470 CURVE SMOOTH",
"738 1470 LINE",
"726 1458 LINE",
"726 229 LINE SMOOTH",
"726 122 OFFCURVE",
"753 24 OFFCURVE",
"859 -14 CURVE",
"890 1 OFFCURVE",
"917 35 OFFCURVE",
"927 63 CURVE",
"878 109 OFFCURVE",
"871 192 OFFCURVE",
"871 277 CURVE SMOOTH"
);
},
{
closed = 1;
nodes = (
"102 180 OFFCURVE",
"218 -24 OFFCURVE",
"437 -24 CURVE SMOOTH",
"620 -24 OFFCURVE",
"755 106 OFFCURVE",
"804 226 CURVE",
"777 366 LINE",
"727 203 OFFCURVE",
"587 105 OFFCURVE",
"466 105 CURVE SMOOTH",
"355 105 OFFCURVE",
"252 211 OFFCURVE",
"252 478 CURVE SMOOTH",
"252 755 OFFCURVE",
"369 869 OFFCURVE",
"490 869 CURVE SMOOTH",
"609 869 OFFCURVE",
"713 793 OFFCURVE",
"790 734 CURVE",
"798 866 LINE",
"702 940 OFFCURVE",
"596 997 OFFCURVE",
"475 997 CURVE SMOOTH",
"301 997 OFFCURVE",
"102 843 OFFCURVE",
"102 479 CURVE SMOOTH"
);
}
);
width = 1050;
},
{
anchors = (
{
name = bottom;
position = "{523, -40}";
},
{
name = top;
position = "{524, 1084}";
}
);
layerId = "9ED2045D-B62B-46E9-A722-9499BEB4CDB9";
paths = (
{
closed = 1;
nodes = (
"837 1404 LINE",
"837 1440 OFFCURVE",
"839 1469 OFFCURVE",
"794 1469 CURVE SMOOTH",
"768 1469 LINE",
"757 1458 LINE",
"757 207 LINE SMOOTH",
"757 123 OFFCURVE",
"759 39 OFFCURVE",
"837 -13 CURVE",
"864 -5 OFFCURVE",
"884 13 OFFCURVE",
"893 30 CURVE",
"838 85 OFFCURVE",
"837 179 OFFCURVE",
"837 272 CURVE SMOOTH"
);
},
{
closed = 1;
nodes = (
"117 179 OFFCURVE",
"233 -22 OFFCURVE",
"443 -22 CURVE SMOOTH",
"620 -22 OFFCURVE",
"746 94 OFFCURVE",
"806 197 CURVE",
"797 323 LINE",
"748 179 OFFCURVE",
"595 58 OFFCURVE",
"451 58 CURVE SMOOTH",
"322 58 OFFCURVE",
"198 175 OFFCURVE",
"198 476 CURVE SMOOTH",
"198 790 OFFCURVE",
"347 903 OFFCURVE",
"478 903 CURVE SMOOTH",
"618 903 OFFCURVE",
"732 817 OFFCURVE",
"807 760 CURVE",
"799 855 LINE",
"700 938 OFFCURVE",
"594 989 OFFCURVE",
"480 989 CURVE SMOOTH",
"323 989 OFFCURVE",
"117 848 OFFCURVE",
"117 475 CURVE SMOOTH"
);
}
);
width = 1050;
}
);
leftKerningGroup = d;
unicode = 0064;
},
{
glyphname = e;
lastChange = "2018-11-23 02:58:08 +0000";
layers = (
{
anchors = (
{
name = bottom;
position = "{508, -40}";
},
{
name = top;
position = "{510, 1084}";
}
);
layerId = UUID1;
paths = (
{
closed = 1;
nodes = (
"900 394 LINE",
"920 462 OFFCURVE",
"928 514 OFFCURVE",
"928 606 CURVE SMOOTH",
"928 848 OFFCURVE",
"772 1030 OFFCURVE",
"508 1030 CURVE SMOOTH",
"184 1030 OFFCURVE",
"56 794 OFFCURVE",
"56 492 CURVE SMOOTH",
"56 228 OFFCURVE",
"150 -30 OFFCURVE",
"506 -30 CURVE SMOOTH",
"648 -30 OFFCURVE",
"800 10 OFFCURVE",
"902 84 CURVE",
"892 148 OFFCURVE",
"864 228 OFFCURVE",
"816 276 CURVE",
"736 244 OFFCURVE",
"648 218 OFFCURVE",
"560 218 CURVE SMOOTH",
"402 218 OFFCURVE",
"384 336 OFFCURVE",
"384 466 CURVE SMOOTH",
"384 564 LINE SMOOTH",
"384 726 OFFCURVE",
"414 798 OFFCURVE",
"506 798 CURVE SMOOTH",
"594 798 OFFCURVE",
"628 726 OFFCURVE",
"628 640 CURVE SMOOTH",
"628 618 LINE",
"266 618 LINE",
"266 394 LINE"
);
}
);
width = 992;
},
{
anchors = (
{
name = bottom;
position = "{506, -40}";
},
{
name = top;
position = "{510, 1084}";
}
);
layerId = "59A137EB-1A44-4616-9625-4B79FA594CBD";
paths = (
{
closed = 1;
nodes = (
"881 445 LINE",
"888 494 OFFCURVE",
"890 527 OFFCURVE",
"890 578 CURVE SMOOTH",
"890 814 OFFCURVE",
"761 1005 OFFCURVE",
"504 1005 CURVE SMOOTH",
"249 1005 OFFCURVE",
"104 788 OFFCURVE",
"104 492 CURVE SMOOTH",
"104 219 OFFCURVE",
"199 -24 OFFCURVE",
"498 -24 CURVE SMOOTH",
"635 -24 OFFCURVE",
"770 23 OFFCURVE",
"862 88 CURVE",
"858 120 OFFCURVE",
"836 165 OFFCURVE",
"808 191 CURVE",
"721 141 OFFCURVE",
"625 106 OFFCURVE",
"518 106 CURVE SMOOTH",
"322 106 OFFCURVE",
"261 262 OFFCURVE",
"261 479 CURVE SMOOTH",
"261 526 LINE SMOOTH",
"261 745 OFFCURVE",
"346 891 OFFCURVE",
"504 891 CURVE SMOOTH",
"674 891 OFFCURVE",
"740 753 OFFCURVE",
"740 587 CURVE SMOOTH",
"740 559 LINE",
"194 559 LINE",
"194 445 LINE"
);
}
);
width = 1005;
},
{
anchors = (
{
name = bottom;
position = "{500, -40}";
},
{
name = top;
position = "{504, 1084}";
}
);
layerId = "9ED2045D-B62B-46E9-A722-9499BEB4CDB9";
paths = (
{
closed = 1;
nodes = (
"868 464 LINE",
"870 506 OFFCURVE",
"870 532 OFFCURVE",
"870 568 CURVE SMOOTH",
"870 802 OFFCURVE",
"750 996 OFFCURVE",
"496 996 CURVE SMOOTH",
"268 996 OFFCURVE",
"114 786 OFFCURVE",
"114 492 CURVE SMOOTH",
"114 216 OFFCURVE",
"210 -22 OFFCURVE",
"490 -22 CURVE SMOOTH",
"624 -22 OFFCURVE",
"752 28 OFFCURVE",
"842 90 CURVE",
"840 110 OFFCURVE",
"820 144 OFFCURVE",
"800 158 CURVE",
"710 104 OFFCURVE",
"612 64 OFFCURVE",
"498 64 CURVE SMOOTH",
"286 64 OFFCURVE",
"208 234 OFFCURVE",
"208 484 CURVE SMOOTH",
"208 512 LINE SMOOTH",
"208 752 OFFCURVE",
"314 926 OFFCURVE",
"498 926 CURVE SMOOTH",
"698 926 OFFCURVE",
"776 762 OFFCURVE",
"776 568 CURVE SMOOTH",
"776 538 LINE",
"160 538 LINE",
"160 464 LINE"
);
}
);
width = 1006;
}
);
leftKerningGroup = c;
rightKerningGroup = e;
unicode = 0065;
},
{
glyphname = f;
lastChange = "2018-11-23 02:58:08 +0000";
layers = (
{
anchors = (
{
name = bottom;
position = "{330, -40}";
},
{
name = top;
position = "{336, 1084}";
}
);
layerId = UUID1;
paths = (
{
closed = 1;
nodes = (
"0 1002 LINE",
"-8 966 OFFCURVE",
"-12 924 OFFCURVE",
"-12 888 CURVE SMOOTH",
"-12 852 OFFCURVE",
"-8 806 OFFCURVE",
"0 770 CURVE",
"328 776 LINE",
"728 770 LINE",
"736 806 OFFCURVE",
"740 852 OFFCURVE",
"740 888 CURVE SMOOTH",
"740 924 OFFCURVE",
"736 966 OFFCURVE",
"728 1002 CURVE",
"332 998 LINE"
);
},
{
closed = 1;
nodes = (
"172 0 LINE",
"222 -8 OFFCURVE",
"278 -12 OFFCURVE",
"330 -12 CURVE SMOOTH",
"384 -12 OFFCURVE",
"442 -8 OFFCURVE",
"492 0 CURVE",
"492 862 LINE",
"482 934 OFFCURVE",
"460 1028 OFFCURVE",
"460 1102 CURVE SMOOTH",
"460 1190 OFFCURVE",
"508 1234 OFFCURVE",
"592 1234 CURVE SMOOTH",
"646 1234 OFFCURVE",
"706 1218 OFFCURVE",
"744 1208 CURVE",
"786 1252 OFFCURVE",
"816 1350 OFFCURVE",
"814 1424 CURVE",
"744 1450 OFFCURVE",
"630 1480 OFFCURVE",
"500 1480 CURVE SMOOTH",
"290 1480 OFFCURVE",
"146 1328 OFFCURVE",
"146 1126 CURVE SMOOTH",
"146 1034 OFFCURVE",
"164 950 OFFCURVE",
"172 864 CURVE"
);
}
);
width = 722;
},
{
anchors = (
{
name = bottom;
position = "{288, -40}";
},
{
name = top;
position = "{321, 1084}";
}
);
layerId = "59A137EB-1A44-4616-9625-4B79FA594CBD";
paths = (
{
closed = 1;
nodes = (
"44 983 LINE",
"40 962 OFFCURVE",
"37 947 OFFCURVE",
"37 926 CURVE SMOOTH",
"37 905 OFFCURVE",
"40 888 OFFCURVE",
"44 869 CURVE",
"286 873 LINE",
"644 869 LINE",
"649 888 OFFCURVE",
"651 905 OFFCURVE",
"651 926 CURVE SMOOTH",
"651 947 OFFCURVE",
"649 962 OFFCURVE",
"644 983 CURVE",
"285 979 LINE"
);
},
{
closed = 1;
nodes = (
"216 0 LINE",
"237 -4 OFFCURVE",
"265 -6 OFFCURVE",
"288 -6 CURVE SMOOTH",
"312 -6 OFFCURVE",
"339 -4 OFFCURVE",
"361 0 CURVE",
"361 911 LINE",
"347 1010 OFFCURVE",
"335 1098 OFFCURVE",
"335 1180 CURVE SMOOTH",
"335 1298 OFFCURVE",
"394 1365 OFFCURVE",
"491 1365 CURVE SMOOTH",
"549 1365 OFFCURVE",
"615 1351 OFFCURVE",
"674 1333 CURVE",
"697 1358 OFFCURVE",
"710 1399 OFFCURVE",
"710 1435 CURVE",
"653 1458 OFFCURVE",
"554 1478 OFFCURVE",
"483 1478 CURVE SMOOTH",
"294 1478 OFFCURVE",
"195 1351 OFFCURVE",
"195 1187 CURVE SMOOTH",
"195 1110 OFFCURVE",
"208 1015 OFFCURVE",
"216 915 CURVE"
);
}
);
width = 640;
},
{
anchors = (
{
name = bottom;
position = "{274, -40}";
},
{
name = top;
position = "{318, 1084}";
}
);
layerId = "9ED2045D-B62B-46E9-A722-9499BEB4CDB9";
paths = (
{
closed = 1;
nodes = (
"62 976 LINE",
"60 960 OFFCURVE",
"58 956 OFFCURVE",
"58 940 CURVE SMOOTH",
"58 924 OFFCURVE",
"60 918 OFFCURVE",
"62 906 CURVE",
"272 908 LINE",
"616 906 LINE",
"618 918 OFFCURVE",
"620 924 OFFCURVE",
"620 940 CURVE SMOOTH",
"620 956 OFFCURVE",
"618 960 OFFCURVE",
"616 976 CURVE",
"268 972 LINE"
);
},
{
closed = 1;
nodes = (
"234 0 LINE",
"244 -2 OFFCURVE",
"262 -4 OFFCURVE",
"274 -4 CURVE SMOOTH",
"288 -4 OFFCURVE",
"304 -2 OFFCURVE",
"314 0 CURVE",
"314 930 LINE",
"300 1038 OFFCURVE",
"290 1124 OFFCURVE",
"290 1208 CURVE SMOOTH",
"290 1338 OFFCURVE",
"354 1414 OFFCURVE",
"456 1414 CURVE SMOOTH",
"516 1414 OFFCURVE",
"584 1400 OFFCURVE",
"650 1380 CURVE",
"666 1398 OFFCURVE",
"672 1418 OFFCURVE",
"672 1440 CURVE",
"622 1460 OFFCURVE",
"528 1478 OFFCURVE",
"478 1478 CURVE SMOOTH",
"298 1478 OFFCURVE",
"216 1360 OFFCURVE",
"216 1210 CURVE SMOOTH",
"216 1138 OFFCURVE",
"226 1038 OFFCURVE",
"234 934 CURVE"
);
}
);
width = 640;
}
);
leftKerningGroup = f;
unicode = 0066;
},
{
glyphname = g;
lastChange = "2018-11-23 02:58:08 +0000";
layers = (
{
anchors = (
{
name = bottom;
position = "{528, -464}";
},
{
name = top;
position = "{548, 1084}";
}
);
layerId = UUID1;
paths = (
{
closed = 1;
nodes = (
"1012 906 OFFCURVE",
"962 984 OFFCURVE",
"922 1016 CURVE",
"740 1016 OFFCURVE",
"644 882 OFFCURVE",
"644 710 CURVE",
"644 -8 LINE SMOOTH",
"644 -126 OFFCURVE",
"586 -200 OFFCURVE",
"448 -200 CURVE SMOOTH",
"358 -200 OFFCURVE",
"264 -178 OFFCURVE",
"178 -140 CURVE",
"132 -194 OFFCURVE",
"98 -300 OFFCURVE",
"98 -376 CURVE",
"204 -416 OFFCURVE",
"352 -442 OFFCURVE",
"478 -442 CURVE SMOOTH",
"640 -442 OFFCURVE",
"778 -398 OFFCURVE",
"860 -294 CURVE SMOOTH",
"922 -214 OFFCURVE",
"964 -96 OFFCURVE",
"964 192 CURVE SMOOTH",
"964 710 LINE SMOOTH",
"964 772 OFFCURVE",
"988 826 OFFCURVE",
"1020 848 CURVE"
);
},
{
closed = 1;
nodes = (
"60 194 OFFCURVE",
"176 -20 OFFCURVE",
"422 -20 CURVE SMOOTH",
"560 -20 OFFCURVE",
"690 60 OFFCURVE",
"758 176 CURVE",
"712 402 LINE",
"660 294 OFFCURVE",
"582 242 OFFCURVE",
"506 242 CURVE SMOOTH",
"442 242 OFFCURVE",
"396 318 OFFCURVE",
"396 496 CURVE SMOOTH",
"396 674 OFFCURVE",
"428 788 OFFCURVE",
"522 788 CURVE SMOOTH",
"590 788 OFFCURVE",
"684 710 OFFCURVE",
"762 560 CURVE",
"816 826 LINE",
"768 914 OFFCURVE",
"662 1030 OFFCURVE",
"464 1030 CURVE SMOOTH",
"242 1030 OFFCURVE",
"60 840 OFFCURVE",
"60 498 CURVE SMOOTH"
);
}
);
width = 1074;
},
{
anchors = (
{
name = bottom;
position = "{511, -464}";
},
{
name = top;
position = "{516, 1084}";
}
);
layerId = "59A137EB-1A44-4616-9625-4B79FA594CBD";
paths = (
{
closed = 1;
nodes = (
"919 946 OFFCURVE",
"892 980 OFFCURVE",
"861 995 CURVE",
"755 957 OFFCURVE",
"731 859 OFFCURVE",
"731 752 CURVE",
"731 0 LINE SMOOTH",
"731 -170 OFFCURVE",
"696 -320 OFFCURVE",
"461 -320 CURVE SMOOTH",
"388 -320 OFFCURVE",
"270 -296 OFFCURVE",
"188 -256 CURVE",
"164 -283 OFFCURVE",
"147 -332 OFFCURVE",
"146 -372 CURVE",
"231 -408 OFFCURVE",
"354 -440 OFFCURVE",
"476 -440 CURVE SMOOTH",
"621 -440 OFFCURVE",
"727 -383 OFFCURVE",
"782 -315 CURVE SMOOTH",
"846 -237 OFFCURVE",
"873 -126 OFFCURVE",
"873 76 CURVE SMOOTH",
"873 704 LINE SMOOTH",
"873 789 OFFCURVE",
"880 872 OFFCURVE",
"929 918 CURVE"
);
},
{
closed = 1;
nodes = (
"102 185 OFFCURVE",
"218 -16 OFFCURVE",
"443 -16 CURVE SMOOTH",
"611 -16 OFFCURVE",
"738 106 OFFCURVE",
"787 184 CURVE",
"763 311 LINE",
"706 203 OFFCURVE",
"586 113 OFFCURVE",
"464 113 CURVE SMOOTH",
"349 113 OFFCURVE",
"252 221 OFFCURVE",
"252 488 CURVE SMOOTH",
"252 763 OFFCURVE",
"365 877 OFFCURVE",
"494 877 CURVE SMOOTH",
"609 877 OFFCURVE",
"728 801 OFFCURVE",
"794 712 CURVE",
"810 845 LINE",
"734 927 OFFCURVE",
"637 1005 OFFCURVE",
"474 1005 CURVE SMOOTH",
"301 1005 OFFCURVE",
"102 850 OFFCURVE",
"102 489 CURVE SMOOTH"
);
}
);
width = 1047;
},
{
anchors = (
{
name = bottom;
position = "{505, -464}";
},
{
name = top;
position = "{504, 1084}";
}
);
layerId = "9ED2045D-B62B-46E9-A722-9499BEB4CDB9";
paths = (
{
closed = 1;
nodes = (
"884 961 OFFCURVE",
"866 979 OFFCURVE",
"839 987 CURVE",
"761 935 OFFCURVE",
"764 851 OFFCURVE",
"764 767 CURVE",
"764 2 LINE SMOOTH",
"764 -186 OFFCURVE",
"737 -364 OFFCURVE",
"466 -364 CURVE SMOOTH",
"400 -364 OFFCURVE",
"272 -339 OFFCURVE",
"191 -299 CURVE",
"176 -316 OFFCURVE",
"166 -344 OFFCURVE",
"163 -371 CURVE",
"240 -406 OFFCURVE",
"355 -439 OFFCURVE",
"475 -439 CURVE SMOOTH",
"614 -439 OFFCURVE",
"708 -377 OFFCURVE",
"753 -323 CURVE SMOOTH",
"818 -245 OFFCURVE",
"839 -138 OFFCURVE",
"839 33 CURVE SMOOTH",
"839 702 LINE SMOOTH",
"839 795 OFFCURVE",
"840 888 OFFCURVE",
"895 944 CURVE"
);
},
{
closed = 1;
nodes = (
"117 181 OFFCURVE",
"233 -15 OFFCURVE",
"451 -15 CURVE SMOOTH",
"630 -15 OFFCURVE",
"755 122 OFFCURVE",
"797 186 CURVE",
"782 277 LINE",
"722 169 OFFCURVE",
"587 65 OFFCURVE",
"449 65 CURVE SMOOTH",
"314 65 OFFCURVE",
"198 185 OFFCURVE",
"198 486 CURVE SMOOTH",
"198 796 OFFCURVE",
"342 910 OFFCURVE",
"483 910 CURVE SMOOTH",
"616 910 OFFCURVE",
"744 835 OFFCURVE",
"806 768 CURVE",
"808 852 LINE",
"721 932 OFFCURVE",
"628 996 OFFCURVE",
"477 996 CURVE SMOOTH",
"323 996 OFFCURVE",
"117 853 OFFCURVE",
"117 485 CURVE SMOOTH"
);
}
);
width = 1048;
}
);
leftKerningGroup = d;
unicode = 0067;
},
{
glyphname = h;
lastChange = "2018-11-23 02:58:08 +0000";
layers = (
{
anchors = (
{
name = bottom;
position = "{556, -40}";
},
{
name = top;
position = "{264, 1542}";
}
);
layerId = UUID1;
paths = (
{
closed = 1;
nodes = (
"434 1276 LINE",
"434 1422 OFFCURVE",
"384 1472 OFFCURVE",
"256 1472 CURVE SMOOTH",
"128 1472 LINE",
"114 1458 LINE",
"114 0 LINE",
"164 -8 OFFCURVE",
"220 -12 OFFCURVE",
"272 -12 CURVE SMOOTH",
"330 -12 OFFCURVE",
"388 -8 OFFCURVE",
"434 0 CURVE"
);
},
{
closed = 1;
nodes = (
"976 658 LINE",
"976 870 OFFCURVE",
"876 1018 OFFCURVE",
"694 1018 CURVE SMOOTH",
"552 1018 OFFCURVE",
"450 930 OFFCURVE",
"356 840 CURVE",
"356 556 LINE",
"416 682 OFFCURVE",
"512 724 OFFCURVE",
"568 724 CURVE SMOOTH",
"630 724 OFFCURVE",
"648 684 OFFCURVE",
"648 600 CURVE SMOOTH",
"648 186 LINE SMOOTH",
"648 56 OFFCURVE",
"692 -16 OFFCURVE",
"824 -16 CURVE SMOOTH",
"906 -16 OFFCURVE",
"980 14 OFFCURVE",
"1028 54 CURVE",
"990 106 OFFCURVE",
"976 176 OFFCURVE",
"976 256 CURVE SMOOTH"
);
}
);
width = 1086;
},
{
anchors = (
{
name = bottom;
position = "{550, -40}";
},
{
name = top;
position = "{245, 1563}";
}
);
layerId = "59A137EB-1A44-4616-9625-4B79FA594CBD";
paths = (
{
closed = 1;
nodes = (
"322 1369 LINE",
"322 1435 OFFCURVE",
"310 1470 OFFCURVE",
"243 1470 CURVE SMOOTH",
"189 1470 LINE",
"177 1458 LINE",
"177 0 LINE",
"196 -4 OFFCURVE",
"220 -6 OFFCURVE",
"249 -6 CURVE SMOOTH",
"277 -6 OFFCURVE",
"303 -4 OFFCURVE",
"322 0 CURVE"
);
},
{
closed = 1;
nodes = (
"923 685 LINE",
"923 855 OFFCURVE",
"855 997 OFFCURVE",
"666 997 CURVE SMOOTH",
"520 997 OFFCURVE",
"368 919 OFFCURVE",
"282 810 CURVE",
"282 653 LINE",
"348 769 OFFCURVE",
"506 863 OFFCURVE",
"629 863 CURVE SMOOTH",
"744 863 OFFCURVE",
"775 796 OFFCURVE",
"775 638 CURVE SMOOTH",
"775 85 LINE SMOOTH",
"775 20 OFFCURVE",
"797 -12 OFFCURVE",
"853 -12 CURVE SMOOTH",
"887 -12 OFFCURVE",
"925 1 OFFCURVE",
"946 20 CURVE",
"927 64 OFFCURVE",
"923 125 OFFCURVE",
"923 190 CURVE SMOOTH"
);
}
);
width = 1088;
},
{
anchors = (
{
name = bottom;
position = "{542, -40}";
},
{
name = top;
position = "{232, 1570}";
}
);
layerId = "9ED2045D-B62B-46E9-A722-9499BEB4CDB9";
paths = (
{
closed = 1;
nodes = (
"274 1404 LINE",
"274 1440 OFFCURVE",
"276 1470 OFFCURVE",
"232 1470 CURVE SMOOTH",
"204 1470 LINE",
"192 1458 LINE",
"192 0 LINE",
"202 -2 OFFCURVE",
"214 -4 OFFCURVE",
"236 -4 CURVE SMOOTH",
"252 -4 OFFCURVE",
"264 -2 OFFCURVE",
"274 0 CURVE"
);
},
{
closed = 1;
nodes = (
"898 694 LINE",
"898 850 OFFCURVE",
"842 990 OFFCURVE",
"650 990 CURVE SMOOTH",
"502 990 OFFCURVE",
"332 914 OFFCURVE",
"248 798 CURVE",
"248 690 LINE",
"316 802 OFFCURVE",
"498 914 OFFCURVE",
"644 914 CURVE SMOOTH",
"780 914 OFFCURVE",
"816 838 OFFCURVE",
"816 652 CURVE SMOOTH",
"816 48 LINE SMOOTH",
"816 8 OFFCURVE",
"830 -10 OFFCURVE",
"856 -10 CURVE SMOOTH",
"874 -10 OFFCURVE",
"900 -4 OFFCURVE",
"910 8 CURVE",
"900 50 OFFCURVE",
"898 106 OFFCURVE",
"898 164 CURVE SMOOTH"
);
}
);
width = 1088;
}
);
rightKerningGroup = h;
unicode = 0068;
},
{
glyphname = k;
lastChange = "2018-11-23 02:58:08 +0000";
layers = (
{
anchors = (
{
name = bottom;
position = "{548, -40}";
},
{
name = top;
position = "{488, 1084}";
}
);
layerId = UUID1;
paths = (
{
closed = 1;
nodes = (
"434 1276 LINE",
"434 1422 OFFCURVE",
"384 1472 OFFCURVE",
"256 1472 CURVE SMOOTH",
"128 1472 LINE",
"114 1458 LINE",
"114 0 LINE",
"162 -8 OFFCURVE",
"218 -12 OFFCURVE",
"272 -12 CURVE SMOOTH",
"328 -12 OFFCURVE",
"388 -8 OFFCURVE",
"434 0 CURVE"
);
},
{
closed = 1;
nodes = (
"898 402 LINE",
"852 540 OFFCURVE",
"734 598 OFFCURVE",
"588 598 CURVE SMOOTH",
"268 598 LINE",
"268 374 LINE",
"350 384 LINE SMOOTH",
"394 390 OFFCURVE",
"432 396 OFFCURVE",
"492 396 CURVE SMOOTH",
"542 396 OFFCURVE",
"574 378 OFFCURVE",
"600 296 CURVE SMOOTH",
"656 126 LINE SMOOTH",
"690 22 OFFCURVE",
"728 -16 OFFCURVE",
"820 -16 CURVE SMOOTH",
"904 -16 OFFCURVE",
"988 28 OFFCURVE",
"1040 86 CURVE",
"982 128 OFFCURVE",
"966 188 OFFCURVE",
"944 258 CURVE SMOOTH"
);
},
{
closed = 1;
nodes = (
"988 988 LINE",
"976 1004 LINE",
"916 1006 OFFCURVE",
"862 1008 OFFCURVE",
"792 1008 CURVE SMOOTH",
"706 1008 OFFCURVE",
"650 968 OFFCURVE",
"612 890 CURVE SMOOTH",
"518 700 LINE SMOOTH",
"502 670 OFFCURVE",
"490 664 OFFCURVE",
"460 664 CURVE SMOOTH",
"308 662 LINE",
"308 512 LINE",
"482 512 LINE SMOOTH",
"664 512 OFFCURVE",
"782 574 OFFCURVE",
"844 696 CURVE SMOOTH"
);
}
);
width = 1052;
},
{
anchors = (
{
name = bottom;
position = "{531, -40}";
},
{
name = top;
position = "{488, 1084}";
}
);
layerId = "59A137EB-1A44-4616-9625-4B79FA594CBD";
paths = (
{
closed = 1;
nodes = (
"322 1369 LINE",
"322 1435 OFFCURVE",
"310 1470 OFFCURVE",
"243 1470 CURVE SMOOTH",
"189 1470 LINE",
"177 1458 LINE",
"177 0 LINE",
"196 -4 OFFCURVE",
"220 -6 OFFCURVE",
"249 -6 CURVE SMOOTH",
"277 -6 OFFCURVE",
"303 -4 OFFCURVE",
"322 0 CURVE"
);
},
{
closed = 1;
nodes = (
"761 358 LINE",
"700 494 OFFCURVE",
"633 549 OFFCURVE",
"489 549 CURVE SMOOTH",
"247 549 LINE",
"247 435 LINE",
"314 441 LINE SMOOTH",
"362 445 OFFCURVE",
"402 447 OFFCURVE",
"429 447 CURVE SMOOTH",
"542 447 OFFCURVE",
"580 414 OFFCURVE",
"630 300 CURVE SMOOTH",
"723 92 LINE SMOOTH",
"751 28 OFFCURVE",
"772 -12 OFFCURVE",
"837 -12 CURVE SMOOTH",
"876 -12 OFFCURVE",
"918 9 OFFCURVE",
"936 33 CURVE",
"900 58 OFFCURVE",
"869 114 OFFCURVE",
"840 182 CURVE SMOOTH"
);
},
{
closed = 1;
nodes = (
"866 969 LINE",
"854 985 LINE",
"827 987 OFFCURVE",
"809 987 OFFCURVE",
"781 987 CURVE SMOOTH",
"719 987 OFFCURVE",
"698 960 OFFCURVE",
"667 915 CURVE SMOOTH",
"453 597 LINE SMOOTH",
"441 581 OFFCURVE",
"427 571 OFFCURVE",
"409 571 CURVE SMOOTH",
"259 563 LINE",
"259 495 LINE",
"421 495 LINE SMOOTH",
"503 495 OFFCURVE",
"562 521 OFFCURVE",
"612 597 CURVE SMOOTH"
);
}
);
width = 980;
},
{
anchors = (
{
name = bottom;
position = "{528, -40}";
},
{
name = top;
position = "{492, 1084}";
}
);
layerId = "9ED2045D-B62B-46E9-A722-9499BEB4CDB9";
paths = (
{
closed = 1;
nodes = (
"284 1404 LINE",
"284 1440 OFFCURVE",
"286 1470 OFFCURVE",
"242 1470 CURVE SMOOTH",
"216 1470 LINE",
"204 1458 LINE",
"204 0 LINE",
"212 -2 OFFCURVE",
"224 -4 OFFCURVE",
"244 -4 CURVE SMOOTH",
"262 -4 OFFCURVE",
"274 -2 OFFCURVE",
"284 0 CURVE"
);
},
{
closed = 1;
nodes = (
"714 342 LINE",
"648 478 OFFCURVE",
"600 530 OFFCURVE",
"456 530 CURVE SMOOTH",
"244 530 LINE",
"244 458 LINE",
"304 462 LINE SMOOTH",
"354 466 OFFCURVE",
"394 466 OFFCURVE",
"410 466 CURVE SMOOTH",
"546 466 OFFCURVE",
"586 428 OFFCURVE",
"646 302 CURVE SMOOTH",
"752 80 LINE SMOOTH",
"778 30 OFFCURVE",
"792 -10 OFFCURVE",
"848 -10 CURVE SMOOTH",
"868 -10 OFFCURVE",
"896 2 OFFCURVE",
"900 14 CURVE",
"874 32 OFFCURVE",
"838 86 OFFCURVE",
"804 154 CURVE SMOOTH"
);
},
{
closed = 1;
nodes = (
"826 962 LINE",
"814 978 LINE",
"798 980 OFFCURVE",
"794 980 OFFCURVE",
"780 980 CURVE SMOOTH",
"728 980 OFFCURVE",
"720 958 OFFCURVE",
"692 924 CURVE SMOOTH",
"434 560 LINE SMOOTH",
"422 548 OFFCURVE",
"408 536 OFFCURVE",
"394 536 CURVE SMOOTH",
"244 526 LINE",
"244 488 LINE",
"402 488 LINE SMOOTH",
"446 488 OFFCURVE",
"484 502 OFFCURVE",
"530 560 CURVE SMOOTH"
);
}
);
width = 980;
}
);
rightKerningGroup = k;
unicode = 006B;
},
{
glyphname = l;
lastChange = "2018-11-23 02:58:08 +0000";
layers = (
{
anchors = (
{
name = bottom;
position = "{360, -40}";
},
{
name = top;
position = "{264, 1542}";
}
);
layerId = UUID1;
paths = (
{
closed = 1;
nodes = (
"520 238 LINE",
"456 238 OFFCURVE",
"432 272 OFFCURVE",
"432 334 CURVE SMOOTH",
"432 1276 LINE SMOOTH",
"432 1422 OFFCURVE",
"382 1472 OFFCURVE",
"254 1472 CURVE SMOOTH",
"126 1472 LINE",
"112 1458 LINE",
"112 278 LINE SMOOTH",
"112 80 OFFCURVE",
"180 -10 OFFCURVE",
"368 -10 CURVE SMOOTH",
"448 -10 OFFCURVE",
"528 0 OFFCURVE",
"590 10 CURVE",
"596 32 OFFCURVE",
"598 60 OFFCURVE",
"598 84 CURVE SMOOTH",
"598 136 OFFCURVE",
"588 192 OFFCURVE",
"572 238 CURVE"
);
}
);
width = 632;
},
{
anchors = (
{
name = bottom;
position = "{330, -40}";
},
{
name = top;
position = "{239, 1563}";
}
);
layerId = "59A137EB-1A44-4616-9625-4B79FA594CBD";
paths = (
{
closed = 1;
nodes = (
"393 115 LINE",
"344 115 OFFCURVE",
"318 143 OFFCURVE",
"318 199 CURVE SMOOTH",
"318 1369 LINE SMOOTH",
"318 1435 OFFCURVE",
"306 1470 OFFCURVE",
"239 1470 CURVE SMOOTH",
"185 1470 LINE",
"173 1458 LINE",
"173 158 LINE SMOOTH",
"173 50 OFFCURVE",
"241 -8 OFFCURVE",
"341 -8 CURVE SMOOTH",
"383 -8 OFFCURVE",
"448 -2 OFFCURVE",
"487 4 CURVE",
"490 13 OFFCURVE",
"490 24 OFFCURVE",
"490 35 CURVE SMOOTH",
"490 64 OFFCURVE",
"485 93 OFFCURVE",
"477 115 CURVE"
);
}
);
width = 566;
},
{
anchors = (
{
name = bottom;
position = "{324, -40}";
},
{
name = top;
position = "{236, 1570}";
}
);
layerId = "9ED2045D-B62B-46E9-A722-9499BEB4CDB9";
paths = (
{
closed = 1;
nodes = (
"352 68 LINE",
"308 68 OFFCURVE",
"282 94 OFFCURVE",
"282 150 CURVE SMOOTH",
"282 1404 LINE SMOOTH",
"282 1440 OFFCURVE",
"284 1470 OFFCURVE",
"240 1470 CURVE SMOOTH",
"212 1470 LINE",
"202 1458 LINE",
"202 114 LINE SMOOTH",
"202 38 OFFCURVE",
"270 -8 OFFCURVE",
"338 -8 CURVE SMOOTH",
"366 -8 OFFCURVE",
"424 -2 OFFCURVE",
"456 2 CURVE",
"456 6 OFFCURVE",
"456 10 OFFCURVE",
"456 16 CURVE SMOOTH",
"456 38 OFFCURVE",
"454 56 OFFCURVE",
"448 68 CURVE"
);
}
);
width = 566;
}
);
leftKerningGroup = l;
rightKerningGroup = l;
unicode = 006C;
},
{
glyphname = m;
lastChange = "2018-11-23 02:58:08 +0000";
layers = (
{
anchors = (
{
name = bottom;
position = "{812, -40}";
},
{
name = top;
position = "{794, 1084}";
}
);
layerId = UUID1;
paths = (
{
closed = 1;
nodes = (
"128 1014 LINE",
"114 1000 LINE",
"114 0 LINE",
"162 -8 OFFCURVE",
"224 -12 OFFCURVE",
"278 -12 CURVE SMOOTH",
"334 -12 OFFCURVE",
"396 -8 OFFCURVE",
"442 0 CURVE",
"442 776 LINE SMOOTH",
"442 922 OFFCURVE",
"374 1014 OFFCURVE",
"250 1014 CURVE SMOOTH"
);
},
{
closed = 1;
nodes = (
"648 0 LINE",
"696 -8 OFFCURVE",
"758 -12 OFFCURVE",
"812 -12 CURVE SMOOTH",
"868 -12 OFFCURVE",
"930 -8 OFFCURVE",
"976 0 CURVE",
"976 702 LINE SMOOTH",
"976 886 OFFCURVE",
"874 1018 OFFCURVE",
"700 1018 CURVE SMOOTH",
"554 1018 OFFCURVE",
"432 902 OFFCURVE",
"336 798 CURVE",
"336 518 LINE",
"368 606 OFFCURVE",
"478 722 OFFCURVE",
"562 724 CURVE SMOOTH",
"600 724 OFFCURVE",
"648 700 OFFCURVE",
"648 598 CURVE"
);
},
{
closed = 1;
nodes = (
"1182 186 LINE SMOOTH",
"1182 56 OFFCURVE",
"1226 -16 OFFCURVE",
"1358 -16 CURVE SMOOTH",
"1440 -16 OFFCURVE",
"1514 14 OFFCURVE",
"1562 54 CURVE",
"1524 106 OFFCURVE",
"1510 176 OFFCURVE",
"1510 256 CURVE SMOOTH",
"1510 698 LINE SMOOTH",
"1510 882 OFFCURVE",
"1418 1018 OFFCURVE",
"1242 1018 CURVE SMOOTH",
"1100 1018 OFFCURVE",
"950 912 OFFCURVE",
"862 804 CURVE",
"862 506 LINE",
"906 604 OFFCURVE",
"1016 724 OFFCURVE",
"1092 724 CURVE SMOOTH",
"1130 724 OFFCURVE",
"1182 702 OFFCURVE",
"1182 600 CURVE"
);
}
);
width = 1620;
},
{
anchors = (
{
name = bottom;
position = "{797, -40}";
},
{
name = top;
position = "{790, 1084}";
}
);
layerId = "59A137EB-1A44-4616-9625-4B79FA594CBD";
paths = (
{
closed = 1;
nodes = (
"189 987 LINE",
"177 973 LINE",
"177 0 LINE",
"196 -4 OFFCURVE",
"222 -6 OFFCURVE",
"251 -6 CURVE SMOOTH",
"279 -6 OFFCURVE",
"305 -4 OFFCURVE",
"324 0 CURVE",
"324 884 LINE SMOOTH",
"324 951 OFFCURVE",
"311 987 OFFCURVE",
"244 987 CURVE SMOOTH"
);
},
{
closed = 1;
nodes = (
"722 0 LINE",
"742 -4 OFFCURVE",
"768 -6 OFFCURVE",
"797 -6 CURVE SMOOTH",
"824 -6 OFFCURVE",
"850 -4 OFFCURVE",
"870 0 CURVE",
"870 691 LINE SMOOTH",
"870 859 OFFCURVE",
"792 999 OFFCURVE",
"618 999 CURVE SMOOTH",
"489 999 OFFCURVE",
"354 917 OFFCURVE",
"271 785 CURVE",
"271 621 LINE",
"336 768 OFFCURVE",
"480 865 OFFCURVE",
"587 865 CURVE SMOOTH",
"686 865 OFFCURVE",
"722 799 OFFCURVE",
"722 640 CURVE"
);
},
{
closed = 1;
nodes = (
"1269 85 LINE SMOOTH",
"1269 20 OFFCURVE",
"1291 -12 OFFCURVE",
"1347 -12 CURVE SMOOTH",
"1381 -12 OFFCURVE",
"1419 1 OFFCURVE",
"1440 20 CURVE",
"1421 64 OFFCURVE",
"1417 125 OFFCURVE",
"1417 190 CURVE SMOOTH",
"1417 690 LINE SMOOTH",
"1417 859 OFFCURVE",
"1340 999 OFFCURVE",
"1166 999 CURVE SMOOTH",
"1037 999 OFFCURVE",
"916 925 OFFCURVE",
"813 817 CURVE",
"813 620 LINE",
"889 777 OFFCURVE",
"1029 865 OFFCURVE",
"1134 865 CURVE SMOOTH",
"1233 865 OFFCURVE",
"1269 801 OFFCURVE",
"1269 642 CURVE"
);
}
);
width = 1582;
},
{
anchors = (
{
name = bottom;
position = "{791, -40}";
},
{
name = top;
position = "{789, 1084}";
}
);
layerId = "9ED2045D-B62B-46E9-A722-9499BEB4CDB9";
paths = (
{
closed = 1;
nodes = (
"211 978 LINE",
"200 964 LINE",
"200 0 LINE",
"209 -3 OFFCURVE",
"221 -4 OFFCURVE",
"242 -4 CURVE SMOOTH",
"258 -4 OFFCURVE",
"271 -3 OFFCURVE",
"281 0 CURVE",
"281 924 LINE SMOOTH",
"281 961 OFFCURVE",
"288 978 OFFCURVE",
"242 978 CURVE SMOOTH"
);
},
{
closed = 1;
nodes = (
"750 0 LINE",
"758 -3 OFFCURVE",
"771 -4 OFFCURVE",
"791 -4 CURVE SMOOTH",
"808 -4 OFFCURVE",
"821 -3 OFFCURVE",
"830 0 CURVE",
"830 686 LINE SMOOTH",
"830 850 OFFCURVE",
"762 992 OFFCURVE",
"588 992 CURVE SMOOTH",
"465 992 OFFCURVE",
"325 923 OFFCURVE",
"247 780 CURVE",
"247 659 LINE",
"324 827 OFFCURVE",
"481 917 OFFCURVE",
"596 917 CURVE SMOOTH",
"717 917 OFFCURVE",
"750 835 OFFCURVE",
"750 655 CURVE"
);
},
{
closed = 1;
nodes = (
"1302 48 LINE SMOOTH",
"1302 7 OFFCURVE",
"1315 -11 OFFCURVE",
"1342 -11 CURVE SMOOTH",
"1359 -11 OFFCURVE",
"1384 -4 OFFCURVE",
"1395 7 CURVE",
"1383 49 OFFCURVE",
"1382 106 OFFCURVE",
"1382 165 CURVE SMOOTH",
"1382 688 LINE SMOOTH",
"1382 851 OFFCURVE",
"1311 992 OFFCURVE",
"1138 992 CURVE SMOOTH",
"1014 992 OFFCURVE",
"903 930 OFFCURVE",
"794 822 CURVE",
"794 662 LINE",
"883 841 OFFCURVE",
"1034 917 OFFCURVE",
"1149 917 CURVE SMOOTH",
"1271 917 OFFCURVE",
"1302 837 OFFCURVE",
"1302 657 CURVE"
);
}
);
width = 1582;
}
);
leftKerningGroup = m;
rightKerningGroup = h;
unicode = 006D;
},
{
glyphname = n;
lastChange = "2018-11-23 02:58:08 +0000";
layers = (
{
anchors = (
{
name = bottom;
position = "{564, -40}";
},
{
name = top;
position = "{562, 1084}";
}
);
layerId = UUID1;
paths = (
{
closed = 1;
nodes = (
"128 1014 LINE",
"114 1000 LINE",
"114 0 LINE",
"162 -8 OFFCURVE",
"224 -12 OFFCURVE",
"278 -12 CURVE SMOOTH",
"334 -12 OFFCURVE",
"396 -8 OFFCURVE",
"442 0 CURVE",
"442 776 LINE SMOOTH",
"442 922 OFFCURVE",
"376 1014 OFFCURVE",
"252 1014 CURVE SMOOTH"
);
},
{
closed = 1;
nodes = (
"984 658 LINE",
"984 870 OFFCURVE",
"884 1018 OFFCURVE",
"702 1018 CURVE SMOOTH",
"560 1018 OFFCURVE",
"458 930 OFFCURVE",
"364 840 CURVE",
"364 556 LINE",
"424 682 OFFCURVE",
"520 724 OFFCURVE",
"576 724 CURVE SMOOTH",
"638 724 OFFCURVE",
"656 684 OFFCURVE",
"656 600 CURVE SMOOTH",
"656 186 LINE SMOOTH",
"656 56 OFFCURVE",
"700 -16 OFFCURVE",
"832 -16 CURVE SMOOTH",
"914 -16 OFFCURVE",
"988 14 OFFCURVE",
"1036 54 CURVE",
"998 106 OFFCURVE",
"984 176 OFFCURVE",
"984 256 CURVE SMOOTH"
);
}
);
width = 1094;
},
{
anchors = (
{
name = bottom;
position = "{553, -40}";
},
{
name = top;
position = "{554, 1084}";
}
);
layerId = "59A137EB-1A44-4616-9625-4B79FA594CBD";
paths = (
{
closed = 1;
nodes = (
"189 987 LINE",
"177 975 LINE",
"177 0 LINE",
"196 -4 OFFCURVE",
"222 -6 OFFCURVE",
"251 -6 CURVE SMOOTH",
"279 -6 OFFCURVE",
"305 -4 OFFCURVE",
"324 0 CURVE",
"324 884 LINE SMOOTH",
"324 951 OFFCURVE",
"311 987 OFFCURVE",
"244 987 CURVE SMOOTH"
);
},
{
closed = 1;
nodes = (
"925 687 LINE",
"925 857 OFFCURVE",
"857 999 OFFCURVE",
"668 999 CURVE SMOOTH",
"522 999 OFFCURVE",
"371 921 OFFCURVE",
"284 812 CURVE",
"284 655 LINE",
"350 771 OFFCURVE",
"509 865 OFFCURVE",
"631 865 CURVE SMOOTH",
"746 865 OFFCURVE",
"778 798 OFFCURVE",
"778 640 CURVE SMOOTH",
"778 85 LINE SMOOTH",
"778 20 OFFCURVE",
"799 -12 OFFCURVE",
"855 -12 CURVE SMOOTH",
"889 -12 OFFCURVE",
"927 1 OFFCURVE",
"949 20 CURVE",
"930 64 OFFCURVE",
"925 125 OFFCURVE",
"925 190 CURVE SMOOTH"
);
}
);
width = 1090;
},
{
anchors = (
{
name = bottom;
position = "{548, -40}";
},
{
name = top;
position = "{552, 1084}";
}
);
layerId = "9ED2045D-B62B-46E9-A722-9499BEB4CDB9";
paths = (
{
closed = 1;
nodes = (
"211 978 LINE",
"200 966 LINE",
"200 0 LINE",
"209 -3 OFFCURVE",
"221 -4 OFFCURVE",
"242 -4 CURVE SMOOTH",
"258 -4 OFFCURVE",
"271 -3 OFFCURVE",
"281 0 CURVE",
"281 924 LINE SMOOTH",
"281 961 OFFCURVE",
"287 978 OFFCURVE",
"242 978 CURVE SMOOTH"
);
},
{
closed = 1;
nodes = (
"903 697 LINE",
"903 852 OFFCURVE",
"848 992 OFFCURVE",
"655 992 CURVE SMOOTH",
"508 992 OFFCURVE",
"338 917 OFFCURVE",
"255 801 CURVE",
"255 691 LINE",
"322 804 OFFCURVE",
"504 917 OFFCURVE",
"652 917 CURVE SMOOTH",
"786 917 OFFCURVE",
"823 840 OFFCURVE",
"823 655 CURVE SMOOTH",
"823 48 LINE SMOOTH",
"823 7 OFFCURVE",
"835 -11 OFFCURVE",
"863 -11 CURVE SMOOTH",
"880 -11 OFFCURVE",
"905 -4 OFFCURVE",
"916 7 CURVE",
"904 49 OFFCURVE",
"903 106 OFFCURVE",
"903 165 CURVE SMOOTH"
);
}
);
width = 1090;
}
);
leftKerningGroup = m;
rightKerningGroup = h;
unicode = 006E;
},
{
glyphname = o;
lastChange = "2018-11-23 02:58:08 +0000";
layers = (
{
anchors = (
{
name = bottom;
position = "{522, -40}";
},
{
name = top;
position = "{522, 1084}";
}
);
layerId = UUID1;
paths = (
{
closed = 1;
nodes = (
"988 676 OFFCURVE",
"950 806 OFFCURVE",
"844 912 CURVE SMOOTH",
"760 994 OFFCURVE",
"648 1030 OFFCURVE",
"522 1030 CURVE SMOOTH",
"396 1030 OFFCURVE",
"284 994 OFFCURVE",
"200 912 CURVE SMOOTH",
"94 806 OFFCURVE",
"56 676 OFFCURVE",
"56 500 CURVE SMOOTH",
"56 324 OFFCURVE",
"94 194 OFFCURVE",
"200 88 CURVE SMOOTH",
"284 6 OFFCURVE",
"396 -30 OFFCURVE",
"522 -30 CURVE SMOOTH",
"648 -30 OFFCURVE",
"760 6 OFFCURVE",
"844 88 CURVE SMOOTH",
"950 194 OFFCURVE",
"988 324 OFFCURVE",
"988 500 CURVE SMOOTH"
);
},
{
closed = 1;
nodes = (
"392 662 OFFCURVE",
"406 786 OFFCURVE",
"522 786 CURVE SMOOTH",
"638 786 OFFCURVE",
"652 662 OFFCURVE",
"652 500 CURVE SMOOTH",
"652 338 OFFCURVE",
"638 214 OFFCURVE",
"522 214 CURVE SMOOTH",
"406 214 OFFCURVE",
"392 338 OFFCURVE",
"392 500 CURVE SMOOTH"
);
}
);
width = 1044;
},
{
anchors = (
{
name = bottom;
position = "{518, -40}";
},
{
name = top;
position = "{518, 1084}";
}
);
layerId = "59A137EB-1A44-4616-9625-4B79FA594CBD";
paths = (
{
closed = 1;
nodes = (
"935 649 OFFCURVE",
"899 793 OFFCURVE",
"795 899 CURVE SMOOTH",
"724 969 OFFCURVE",
"633 1005 OFFCURVE",
"518 1005 CURVE SMOOTH",
"406 1005 OFFCURVE",
"314 969 OFFCURVE",
"244 899 CURVE SMOOTH",
"140 793 OFFCURVE",
"104 649 OFFCURVE",
"104 491 CURVE SMOOTH",
"104 330 OFFCURVE",
"140 188 OFFCURVE",
"244 82 CURVE SMOOTH",
"314 12 OFFCURVE",
"406 -24 OFFCURVE",
"518 -24 CURVE SMOOTH",
"633 -24 OFFCURVE",
"724 12 OFFCURVE",
"795 82 CURVE SMOOTH",
"899 188 OFFCURVE",
"935 330 OFFCURVE",
"935 491 CURVE SMOOTH"
);
},
{
closed = 1;
nodes = (
"257 687 OFFCURVE",
"321 891 OFFCURVE",
"520 891 CURVE SMOOTH",
"718 891 OFFCURVE",
"781 687 OFFCURVE",
"781 491 CURVE SMOOTH",
"781 292 OFFCURVE",
"718 92 OFFCURVE",
"520 92 CURVE SMOOTH",
"321 92 OFFCURVE",
"257 292 OFFCURVE",
"257 491 CURVE SMOOTH"
);
}
);
width = 1038;
},
{
anchors = (
{
name = bottom;
position = "{517, -40}";
},
{
name = top;
position = "{517, 1084}";
}
);
layerId = "9ED2045D-B62B-46E9-A722-9499BEB4CDB9";
paths = (
{
closed = 1;
nodes = (
"915 640 OFFCURVE",
"880 788 OFFCURVE",
"776 894 CURVE SMOOTH",
"711 960 OFFCURVE",
"627 996 OFFCURVE",
"517 996 CURVE SMOOTH",
"409 996 OFFCURVE",
"326 960 OFFCURVE",
"260 894 CURVE SMOOTH",
"156 788 OFFCURVE",
"121 640 OFFCURVE",
"121 487 CURVE SMOOTH",
"121 332 OFFCURVE",
"156 186 OFFCURVE",
"260 80 CURVE SMOOTH",
"326 14 OFFCURVE",
"409 -22 OFFCURVE",
"517 -22 CURVE SMOOTH",
"627 -22 OFFCURVE",
"711 14 OFFCURVE",
"776 80 CURVE SMOOTH",
"880 186 OFFCURVE",
"915 332 OFFCURVE",
"915 487 CURVE SMOOTH"
);
},
{
closed = 1;
nodes = (
"207 696 OFFCURVE",
"289 929 OFFCURVE",
"519 929 CURVE SMOOTH",
"747 929 OFFCURVE",
"829 696 OFFCURVE",
"829 487 CURVE SMOOTH",
"829 276 OFFCURVE",
"747 47 OFFCURVE",
"519 47 CURVE SMOOTH",
"289 47 OFFCURVE",
"207 276 OFFCURVE",
"207 487 CURVE SMOOTH"
);
}
);
width = 1038;
}
);
leftKerningGroup = c;
rightKerningGroup = o;
unicode = 006F;
},
{
glyphname = p;
lastChange = "2018-11-23 02:58:08 +0000";
layers = (
{
anchors = (
{
name = bottom;
position = "{524, -40}";
},
{
name = top;
position = "{524, 1084}";
}
);
layerId = UUID1;
paths = (
{
closed = 1;
nodes = (
"128 1014 LINE",
"114 1000 LINE",
"114 -418 LINE",
"128 -432 LINE",
"256 -432 LINE SMOOTH",
"384 -432 OFFCURVE",
"436 -382 OFFCURVE",
"436 -236 CURVE SMOOTH",
"436 736 LINE SMOOTH",
"436 908 OFFCURVE",
"346 1014 OFFCURVE",
"214 1014 CURVE SMOOTH"
);
},
{
closed = 1;
nodes = (
"1018 816 OFFCURVE",
"902 1030 OFFCURVE",
"656 1030 CURVE SMOOTH",
"458 1030 OFFCURVE",
"296 862 OFFCURVE",
"280 696 CURVE",
"354 516 LINE",
"408 732 OFFCURVE",
"512 768 OFFCURVE",
"570 768 CURVE SMOOTH",
"636 768 OFFCURVE",
"682 692 OFFCURVE",
"682 514 CURVE SMOOTH",
"682 338 OFFCURVE",
"650 222 OFFCURVE",
"556 222 CURVE SMOOTH",
"496 222 OFFCURVE",
"414 272 OFFCURVE",
"336 336 CURVE",
"282 106 LINE",
"370 54 OFFCURVE",
"474 -20 OFFCURVE",
"614 -20 CURVE SMOOTH",
"838 -20 OFFCURVE",
"1018 170 OFFCURVE",
"1018 512 CURVE SMOOTH"
);
}
);
width = 1078;
},
{
anchors = (
{
name = bottom;
position = "{524, -40}";
},
{
name = top;
position = "{524, 1084}";
}
);
layerId = "59A137EB-1A44-4616-9625-4B79FA594CBD";
paths = (
{
closed = 1;
nodes = (
"189 987 LINE",
"177 975 LINE",
"177 -418 LINE",
"189 -430 LINE",
"243 -430 LINE SMOOTH",
"310 -430 OFFCURVE",
"322 -395 OFFCURVE",
"322 -329 CURVE SMOOTH",
"322 882 LINE SMOOTH",
"322 950 OFFCURVE",
"308 987 OFFCURVE",
"241 987 CURVE SMOOTH"
);
},
{
closed = 1;
nodes = (
"950 801 OFFCURVE",
"834 1005 OFFCURVE",
"614 1005 CURVE SMOOTH",
"431 1005 OFFCURVE",
"296 875 OFFCURVE",
"248 755 CURVE",
"274 615 LINE",
"324 778 OFFCURVE",
"465 876 OFFCURVE",
"585 876 CURVE SMOOTH",
"697 876 OFFCURVE",
"800 770 OFFCURVE",
"800 503 CURVE SMOOTH",
"800 226 OFFCURVE",
"682 112 OFFCURVE",
"562 112 CURVE SMOOTH",
"443 112 OFFCURVE",
"338 188 OFFCURVE",
"262 247 CURVE",
"254 116 LINE",
"349 41 OFFCURVE",
"455 -16 OFFCURVE",
"576 -16 CURVE SMOOTH",
"751 -16 OFFCURVE",
"950 138 OFFCURVE",
"950 503 CURVE SMOOTH"
);
}
);
width = 1051;
},
{
anchors = (
{
name = bottom;
position = "{524, -40}";
},
{
name = top;
position = "{524, 1084}";
}
);
layerId = "9ED2045D-B62B-46E9-A722-9499BEB4CDB9";
paths = (
{
closed = 1;
nodes = (
"211 978 LINE",
"200 966 LINE",
"200 -418 LINE",
"211 -429 LINE",
"238 -429 LINE SMOOTH",
"282 -429 OFFCURVE",
"280 -400 OFFCURVE",
"280 -364 CURVE SMOOTH",
"280 937 LINE SMOOTH",
"280 965 OFFCURVE",
"294 978 OFFCURVE",
"250 978 CURVE SMOOTH"
);
},
{
closed = 1;
nodes = (
"924 795 OFFCURVE",
"808 996 OFFCURVE",
"599 996 CURVE SMOOTH",
"422 996 OFFCURVE",
"296 880 OFFCURVE",
"236 777 CURVE",
"245 651 LINE",
"293 794 OFFCURVE",
"447 916 OFFCURVE",
"591 916 CURVE SMOOTH",
"719 916 OFFCURVE",
"843 799 OFFCURVE",
"843 498 CURVE SMOOTH",
"843 184 OFFCURVE",
"694 71 OFFCURVE",
"564 71 CURVE SMOOTH",
"423 71 OFFCURVE",
"310 157 OFFCURVE",
"234 214 CURVE",
"243 119 LINE",
"341 36 OFFCURVE",
"448 -15 OFFCURVE",
"562 -15 CURVE SMOOTH",
"718 -15 OFFCURVE",
"924 126 OFFCURVE",
"924 499 CURVE SMOOTH"
);
}
);
width = 1052;
}
);
leftKerningGroup = m;
unicode = 0070;
},
{
glyphname = q;
lastChange = "2018-11-23 02:58:08 +0000";
layers = (
{
anchors = (
{
name = bottom;
position = "{522, -40}";
},
{
name = top;
position = "{522, 1084}";
}
);
layerId = UUID1;
paths = (
{
closed = 1;
nodes = (
"60 194 OFFCURVE",
"176 -20 OFFCURVE",
"422 -20 CURVE SMOOTH",
"560 -20 OFFCURVE",
"690 60 OFFCURVE",
"758 176 CURVE",
"712 402 LINE",
"660 294 OFFCURVE",
"582 242 OFFCURVE",
"506 242 CURVE SMOOTH",
"442 242 OFFCURVE",
"396 318 OFFCURVE",
"396 496 CURVE SMOOTH",
"396 674 OFFCURVE",
"428 788 OFFCURVE",
"522 788 CURVE SMOOTH",
"590 788 OFFCURVE",
"684 710 OFFCURVE",
"762 560 CURVE",
"816 826 LINE",
"768 914 OFFCURVE",
"662 1030 OFFCURVE",
"464 1030 CURVE SMOOTH",
"242 1030 OFFCURVE",
"60 840 OFFCURVE",
"60 498 CURVE SMOOTH"
);
},
{
closed = 1;
nodes = (
"642 -236 LINE",
"642 -382 OFFCURVE",
"692 -432 OFFCURVE",
"820 -432 CURVE SMOOTH",
"948 -432 LINE",
"962 -418 LINE",
"962 710 LINE SMOOTH",
"962 772 OFFCURVE",
"986 826 OFFCURVE",
"1018 848 CURVE",
"1006 906 OFFCURVE",
"960 984 OFFCURVE",
"920 1016 CURVE",
"738 1016 OFFCURVE",
"642 882 OFFCURVE",
"642 710 CURVE SMOOTH"
);
}
);
width = 1080;
},
{
anchors = (
{
name = bottom;
position = "{522, -40}";
},
{
name = top;
position = "{522, 1084}";
}
);
layerId = "59A137EB-1A44-4616-9625-4B79FA594CBD";
paths = (
{
closed = 1;
nodes = (
"102 185 OFFCURVE",
"218 -16 OFFCURVE",
"443 -16 CURVE SMOOTH",
"611 -16 OFFCURVE",
"738 102 OFFCURVE",
"787 180 CURVE",
"763 311 LINE",
"706 203 OFFCURVE",
"586 113 OFFCURVE",
"464 113 CURVE SMOOTH",
"353 113 OFFCURVE",
"252 221 OFFCURVE",
"252 488 CURVE SMOOTH",
"252 763 OFFCURVE",
"369 877 OFFCURVE",
"494 877 CURVE SMOOTH",
"609 877 OFFCURVE",
"728 801 OFFCURVE",
"794 712 CURVE",
"810 849 LINE",
"734 931 OFFCURVE",
"637 1005 OFFCURVE",
"474 1005 CURVE SMOOTH",
"301 1005 OFFCURVE",
"102 850 OFFCURVE",
"102 489 CURVE SMOOTH"
);
},
{
closed = 1;
nodes = (
"728 -329 LINE",
"728 -395 OFFCURVE",
"740 -430 OFFCURVE",
"807 -430 CURVE SMOOTH",
"861 -430 LINE",
"873 -418 LINE",
"873 704 LINE SMOOTH",
"873 789 OFFCURVE",
"880 872 OFFCURVE",
"929 918 CURVE",
"919 946 OFFCURVE",
"892 980 OFFCURVE",
"861 995 CURVE",
"755 957 OFFCURVE",
"728 859 OFFCURVE",
"728 752 CURVE SMOOTH"
);
}
);
width = 1048;
},
{
anchors = (
{
name = bottom;
position = "{522, -40}";
},
{
name = top;
position = "{522, 1084}";
}
);
layerId = "9ED2045D-B62B-46E9-A722-9499BEB4CDB9";
paths = (
{
closed = 1;
nodes = (
"117 181 OFFCURVE",
"233 -15 OFFCURVE",
"451 -15 CURVE SMOOTH",
"630 -15 OFFCURVE",
"755 117 OFFCURVE",
"797 181 CURVE",
"782 277 LINE",
"722 169 OFFCURVE",
"587 65 OFFCURVE",
"449 65 CURVE SMOOTH",
"320 65 OFFCURVE",
"198 185 OFFCURVE",
"198 486 CURVE SMOOTH",
"198 796 OFFCURVE",
"347 910 OFFCURVE",
"483 910 CURVE SMOOTH",
"616 910 OFFCURVE",
"744 835 OFFCURVE",
"806 768 CURVE",
"808 857 LINE",
"721 937 OFFCURVE",
"628 996 OFFCURVE",
"477 996 CURVE SMOOTH",
"323 996 OFFCURVE",
"117 853 OFFCURVE",
"117 485 CURVE SMOOTH"
);
},
{
closed = 1;
nodes = (
"759 -364 LINE",
"759 -400 OFFCURVE",
"757 -429 OFFCURVE",
"802 -429 CURVE SMOOTH",
"828 -429 LINE",
"840 -418 LINE",
"840 702 LINE SMOOTH",
"840 795 OFFCURVE",
"840 888 OFFCURVE",
"896 944 CURVE",
"886 961 OFFCURVE",
"866 979 OFFCURVE",
"839 987 CURVE",
"761 935 OFFCURVE",
"759 851 OFFCURVE",
"759 767 CURVE SMOOTH"
);
}
);
width = 1048;
}
);
leftKerningGroup = d;
unicode = 0071;
},
{
glyphname = r;
lastChange = "2018-11-23 02:58:08 +0000";
layers = (
{
anchors = (
{
name = bottom;
position = "{294, -40}";
},
{
name = top;
position = "{420, 1084}";
}
);
layerId = UUID1;
paths = (
{
closed = 1;
nodes = (
"762 1006 OFFCURVE",
"730 1014 OFFCURVE",
"666 1014 CURVE SMOOTH",
"430 1014 OFFCURVE",
"376 770 OFFCURVE",
"360 546 CURVE",
"396 498 LINE",
"456 642 OFFCURVE",
"514 712 OFFCURVE",
"614 712 CURVE",
"650 708 OFFCURVE",
"684 704 OFFCURVE",
"720 690 CURVE",
"774 782 OFFCURVE",
"802 920 OFFCURVE",
"802 996 CURVE"
);
},
{
closed = 1;
nodes = (
"86 826 OFFCURVE",
"130 760 OFFCURVE",
"130 640 CURVE SMOOTH",
"130 0 LINE",
"178 -8 OFFCURVE",
"240 -12 OFFCURVE",
"294 -12 CURVE SMOOTH",
"350 -12 OFFCURVE",
"412 -8 OFFCURVE",
"458 0 CURVE",
"458 664 LINE",
"438 870 OFFCURVE",
"344 1004 OFFCURVE",
"152 1016 CURVE",
"112 984 OFFCURVE",
"66 906 OFFCURVE",
"54 848 CURVE"
);
}
);
width = 802;
},
{
anchors = (
{
name = bottom;
position = "{269, -40}";
},
{
name = top;
position = "{395, 1084}";
}
);
layerId = "59A137EB-1A44-4616-9625-4B79FA594CBD";
paths = (
{
closed = 1;
nodes = (
"652 993 OFFCURVE",
"620 995 OFFCURVE",
"598 995 CURVE SMOOTH",
"373 995 OFFCURVE",
"285 778 OFFCURVE",
"284 607 CURVE",
"311 574 LINE",
"336 674 OFFCURVE",
"408 849 OFFCURVE",
"586 849 CURVE",
"608 849 OFFCURVE",
"633 848 OFFCURVE",
"655 846 CURVE",
"681 885 OFFCURVE",
"690 941 OFFCURVE",
"690 987 CURVE"
);
},
{
closed = 1;
nodes = (
"158 877 OFFCURVE",
"195 808 OFFCURVE",
"195 708 CURVE SMOOTH",
"195 0 LINE",
"214 -4 OFFCURVE",
"240 -6 OFFCURVE",
"269 -6 CURVE SMOOTH",
"297 -6 OFFCURVE",
"323 -4 OFFCURVE",
"342 0 CURVE",
"342 723 LINE",
"337 859 OFFCURVE",
"291 958 OFFCURVE",
"186 995 CURVE",
"158 978 OFFCURVE",
"131 940 OFFCURVE",
"122 913 CURVE"
);
}
);
width = 705;
},
{
anchors = (
{
name = bottom;
position = "{266, -40}";
},
{
name = top;
position = "{392, 1084}";
}
);
layerId = "9ED2045D-B62B-46E9-A722-9499BEB4CDB9";
paths = (
{
closed = 1;
nodes = (
"616 988 OFFCURVE",
"584 988 OFFCURVE",
"578 988 CURVE SMOOTH",
"358 988 OFFCURVE",
"258 780 OFFCURVE",
"262 630 CURVE",
"284 602 LINE",
"298 686 OFFCURVE",
"374 900 OFFCURVE",
"580 900 CURVE",
"598 900 OFFCURVE",
"620 902 OFFCURVE",
"638 904 CURVE",
"652 922 OFFCURVE",
"654 948 OFFCURVE",
"654 982 CURVE"
);
},
{
closed = 1;
nodes = (
"190 896 OFFCURVE",
"224 826 OFFCURVE",
"224 734 CURVE SMOOTH",
"224 0 LINE",
"234 -2 OFFCURVE",
"246 -4 OFFCURVE",
"266 -4 CURVE SMOOTH",
"284 -4 OFFCURVE",
"296 -2 OFFCURVE",
"306 0 CURVE",
"306 744 LINE",
"306 854 OFFCURVE",
"278 942 OFFCURVE",
"204 988 CURVE",
"180 976 OFFCURVE",
"160 952 OFFCURVE",
"154 936 CURVE"
);
}
);
width = 706;
}
);
leftKerningGroup = r;
rightKerningGroup = r;
unicode = 0072;
},
{
glyphname = s;
lastChange = "2018-11-23 02:58:08 +0000";
layers = (
{
anchors = (
{
name = bottom;
position = "{442, -40}";
},
{
name = top;
position = "{446, 1084}";
}
);
layerId = UUID1;
paths = (
{
closed = 1;
nodes = (
"130 16 OFFCURVE",
"282 -30 OFFCURVE",
"440 -30 CURVE SMOOTH",
"686 -30 OFFCURVE",
"848 98 OFFCURVE",
"848 300 CURVE SMOOTH",
"848 472 OFFCURVE",
"732 570 OFFCURVE",
"580 624 CURVE SMOOTH",
"456 668 LINE SMOOTH",
"406 686 OFFCURVE",
"386 706 OFFCURVE",
"386 738 CURVE SMOOTH",
"386 768 OFFCURVE",
"410 794 OFFCURVE",
"460 794 CURVE SMOOTH",
"554 794 OFFCURVE",
"656 756 OFFCURVE",
"740 718 CURVE",
"792 756 OFFCURVE",
"834 868 OFFCURVE",
"830 944 CURVE",
"742 988 OFFCURVE",
"578 1030 OFFCURVE",
"456 1030 CURVE SMOOTH",
"216 1030 OFFCURVE",
"64 900 OFFCURVE",
"64 694 CURVE SMOOTH",
"64 532 OFFCURVE",
"172 444 OFFCURVE",
"314 392 CURVE SMOOTH",
"424 352 LINE SMOOTH",
"486 330 OFFCURVE",
"510 304 OFFCURVE",
"510 268 CURVE",
"510 232 OFFCURVE",
"474 206 OFFCURVE",
"402 206 CURVE SMOOTH",
"324 206 OFFCURVE",
"214 242 OFFCURVE",
"126 288 CURVE",
"78 238 OFFCURVE",
"38 138 OFFCURVE",
"36 68 CURVE"
);
}
);
width = 888;
},
{
anchors = (
{
name = bottom;
position = "{417, -40}";
},
{
name = top;
position = "{437, 1084}";
}
);
layerId = "59A137EB-1A44-4616-9625-4B79FA594CBD";
paths = (
{
closed = 1;
nodes = (
"157 24 OFFCURVE",
"273 -24 OFFCURVE",
"413 -24 CURVE SMOOTH",
"627 -24 OFFCURVE",
"782 81 OFFCURVE",
"782 258 CURVE SMOOTH",
"782 404 OFFCURVE",
"683 490 OFFCURVE",
"534 548 CURVE SMOOTH",
"416 594 LINE SMOOTH",
"317 633 OFFCURVE",
"266 672 OFFCURVE",
"266 740 CURVE SMOOTH",
"266 829 OFFCURVE",
"340 885 OFFCURVE",
"445 885 CURVE SMOOTH",
"546 885 OFFCURVE",
"643 853 OFFCURVE",
"706 824 CURVE",
"735 853 OFFCURVE",
"752 900 OFFCURVE",
"752 940 CURVE",
"672 977 OFFCURVE",
"548 1005 OFFCURVE",
"448 1005 CURVE SMOOTH",
"265 1005 OFFCURVE",
"113 902 OFFCURVE",
"113 730 CURVE SMOOTH",
"113 583 OFFCURVE",
"233 505 OFFCURVE",
"369 453 CURVE SMOOTH",
"483 409 LINE SMOOTH",
"575 374 OFFCURVE",
"628 314 OFFCURVE",
"628 247 CURVE",
"626 156 OFFCURVE",
"542 92 OFFCURVE",
"415 92 CURVE SMOOTH",
"315 92 OFFCURVE",
"214 138 OFFCURVE",
"132 184 CURVE",
"103 160 OFFCURVE",
"76 111 OFFCURVE",
"74 76 CURVE"
);
}
);
width = 869;
},
{
anchors = (
{
name = bottom;
position = "{408, -40}";
},
{
name = top;
position = "{433, 1084}";
}
);
layerId = "9ED2045D-B62B-46E9-A722-9499BEB4CDB9";
paths = (
{
closed = 1;
nodes = (
"166 26 OFFCURVE",
"269 -22 OFFCURVE",
"404 -22 CURVE SMOOTH",
"605 -22 OFFCURVE",
"757 75 OFFCURVE",
"757 243 CURVE SMOOTH",
"757 378 OFFCURVE",
"664 461 OFFCURVE",
"518 520 CURVE SMOOTH",
"401 566 LINE SMOOTH",
"284 613 OFFCURVE",
"222 659 OFFCURVE",
"222 741 CURVE SMOOTH",
"222 851 OFFCURVE",
"314 919 OFFCURVE",
"439 919 CURVE SMOOTH",
"544 919 OFFCURVE",
"638 889 OFFCURVE",
"693 864 CURVE",
"714 889 OFFCURVE",
"722 912 OFFCURVE",
"723 939 CURVE",
"646 972 OFFCURVE",
"536 996 OFFCURVE",
"446 996 CURVE SMOOTH",
"284 996 OFFCURVE",
"132 903 OFFCURVE",
"132 743 CURVE SMOOTH",
"132 602 OFFCURVE",
"255 527 OFFCURVE",
"390 475 CURVE SMOOTH",
"505 430 LINE SMOOTH",
"608 390 OFFCURVE",
"671 317 OFFCURVE",
"671 239 CURVE",
"669 128 OFFCURVE",
"568 50 OFFCURVE",
"420 50 CURVE SMOOTH",
"311 50 OFFCURVE",
"214 99 OFFCURVE",
"134 145 CURVE",
"112 131 OFFCURVE",
"90 102 OFFCURVE",
"88 78 CURVE"
);
}
);
width = 870;
}
);
leftKerningGroup = s;
rightKerningGroup = s;
unicode = 0073;
},
{
glyphname = t;
lastChange = "2018-11-23 02:58:08 +0000";
layers = (
{
anchors = (
{
name = bottom;
position = "{418, -40}";
},
{
name = top;
position = "{340, 1084}";
}
);
layerId = UUID1;
paths = (
{
closed = 1;
nodes = (
"156 278 LINE",
"156 80 OFFCURVE",
"240 -10 OFFCURVE",
"428 -10 CURVE SMOOTH",
"508 -10 OFFCURVE",
"618 0 OFFCURVE",
"692 10 CURVE",
"698 32 OFFCURVE",
"700 60 OFFCURVE",
"700 84 CURVE SMOOTH",
"700 134 OFFCURVE",
"690 192 OFFCURVE",
"674 238 CURVE",
"566 238 LINE SMOOTH",
"502 238 OFFCURVE",
"476 272 OFFCURVE",
"476 334 CURVE SMOOTH",
"476 1286 LINE",
"462 1300 LINE",
"334 1300 LINE SMOOTH",
"206 1300 OFFCURVE",
"156 1250 OFFCURVE",
"156 1104 CURVE SMOOTH"
);
},
{
closed = 1;
nodes = (
"342 996 LINE",
"-2 1002 LINE",
"-12 962 OFFCURVE",
"-16 924 OFFCURVE",
"-16 888 CURVE SMOOTH",
"-16 848 OFFCURVE",
"-12 808 OFFCURVE",
"-2 770 CURVE",
"332 776 LINE",
"712 770 LINE",
"722 808 OFFCURVE",
"726 848 OFFCURVE",
"726 888 CURVE SMOOTH",
"726 924 OFFCURVE",
"722 962 OFFCURVE",
"712 1002 CURVE"
);
}
);
width = 756;
},
{
anchors = (
{
name = bottom;
position = "{386, -40}";
},
{
name = top;
position = "{351, 1084}";
}
);
layerId = "59A137EB-1A44-4616-9625-4B79FA594CBD";
paths = (
{
closed = 1;
nodes = (
"211 158 LINE",
"211 50 OFFCURVE",
"282 -8 OFFCURVE",
"394 -8 CURVE SMOOTH",
"472 -8 OFFCURVE",
"534 -4 OFFCURVE",
"597 4 CURVE",
"599 13 OFFCURVE",
"599 24 OFFCURVE",
"599 35 CURVE SMOOTH",
"599 64 OFFCURVE",
"595 93 OFFCURVE",
"587 115 CURVE",
"435 115 LINE SMOOTH",
"377 115 OFFCURVE",
"356 149 OFFCURVE",
"356 197 CURVE SMOOTH",
"356 1278 LINE",
"344 1291 LINE",
"290 1291 LINE SMOOTH",
"223 1291 OFFCURVE",
"211 1256 OFFCURVE",
"211 1190 CURVE SMOOTH"
);
},
{
closed = 1;
nodes = (
"306 979 LINE",
"70 983 LINE",
"66 962 OFFCURVE",
"64 947 OFFCURVE",
"64 926 CURVE SMOOTH",
"64 905 OFFCURVE",
"66 888 OFFCURVE",
"70 869 CURVE",
"307 873 LINE",
"609 869 LINE",
"614 888 OFFCURVE",
"616 905 OFFCURVE",
"616 926 CURVE SMOOTH",
"616 947 OFFCURVE",
"614 962 OFFCURVE",
"609 983 CURVE"
);
}
);
width = 674;
},
{
anchors = (
{
name = bottom;
position = "{376, -40}";
},
{
name = top;
position = "{358, 1084}";
}
);
layerId = "9ED2045D-B62B-46E9-A722-9499BEB4CDB9";
paths = (
{
closed = 1;
nodes = (
"234 114 LINE",
"234 38 OFFCURVE",
"300 -8 OFFCURVE",
"384 -8 CURVE SMOOTH",
"460 -8 OFFCURVE",
"506 -6 OFFCURVE",
"564 2 CURVE",
"564 6 OFFCURVE",
"564 10 OFFCURVE",
"564 16 CURVE SMOOTH",
"564 38 OFFCURVE",
"562 56 OFFCURVE",
"556 68 CURVE",
"388 68 LINE SMOOTH",
"332 68 OFFCURVE",
"314 102 OFFCURVE",
"314 146 CURVE SMOOTH",
"314 1276 LINE",
"302 1286 LINE",
"276 1286 LINE SMOOTH",
"232 1286 OFFCURVE",
"234 1258 OFFCURVE",
"234 1222 CURVE SMOOTH"
);
},
{
closed = 1;
nodes = (
"294 972 LINE",
"98 976 LINE",
"96 962 OFFCURVE",
"96 956 OFFCURVE",
"96 940 CURVE SMOOTH",
"96 926 OFFCURVE",
"96 918 OFFCURVE",
"98 906 CURVE",
"300 908 LINE",
"574 906 LINE",
"576 918 OFFCURVE",
"576 926 OFFCURVE",
"576 940 CURVE SMOOTH",
"576 956 OFFCURVE",
"576 962 OFFCURVE",
"574 976 CURVE"
);
}
);
width = 674;
}
);
leftKerningGroup = t;
rightKerningGroup = t;
unicode = 0074;
},
{
glyphname = u;
lastChange = "2018-11-23 02:58:08 +0000";
layers = (
{
anchors = (
{
name = bottom;
position = "{540, -40}";
},
{
name = top;
position = "{530, 1084}";
}
);
layerId = UUID1;
paths = (
{
closed = 1;
nodes = (
"980 1000 LINE",
"932 1008 OFFCURVE",
"870 1012 OFFCURVE",
"816 1012 CURVE SMOOTH",
"760 1012 OFFCURVE",
"698 1008 OFFCURVE",
"652 1000 CURVE",
"652 294 LINE SMOOTH",
"652 122 OFFCURVE",
"754 -16 OFFCURVE",
"938 -16 CURVE",
"978 16 OFFCURVE",
"1024 90 OFFCURVE",
"1036 148 CURVE",
"1004 170 OFFCURVE",
"980 224 OFFCURVE",
"980 286 CURVE SMOOTH"
);
},
{
closed = 1;
nodes = (
"110 342 LINE",
"110 130 OFFCURVE",
"210 -18 OFFCURVE",
"392 -18 CURVE SMOOTH",
"534 -18 OFFCURVE",
"636 70 OFFCURVE",
"730 160 CURVE",
"730 444 LINE",
"670 318 OFFCURVE",
"574 276 OFFCURVE",
"518 276 CURVE SMOOTH",
"456 276 OFFCURVE",
"438 316 OFFCURVE",
"438 400 CURVE SMOOTH",
"438 814 LINE SMOOTH",
"438 944 OFFCURVE",
"394 1016 OFFCURVE",
"262 1016 CURVE SMOOTH",
"180 1016 OFFCURVE",
"106 986 OFFCURVE",
"58 946 CURVE",
"96 894 OFFCURVE",
"110 824 OFFCURVE",
"110 744 CURVE SMOOTH"
);
}
);
width = 1098;
},
{
anchors = (
{
name = bottom;
position = "{536, -40}";
},
{
name = top;
position = "{538, 1084}";
}
);
layerId = "59A137EB-1A44-4616-9625-4B79FA594CBD";
paths = (
{
closed = 1;
nodes = (
"914 981 LINE",
"894 985 OFFCURVE",
"868 987 OFFCURVE",
"839 987 CURVE SMOOTH",
"811 987 OFFCURVE",
"785 985 OFFCURVE",
"766 981 CURVE",
"766 229 LINE SMOOTH",
"766 122 OFFCURVE",
"796 24 OFFCURVE",
"902 -14 CURVE",
"932 1 OFFCURVE",
"959 35 OFFCURVE",
"970 63 CURVE",
"920 109 OFFCURVE",
"914 192 OFFCURVE",
"914 277 CURVE SMOOTH"
);
},
{
closed = 1;
nodes = (
"165 295 LINE",
"165 124 OFFCURVE",
"233 -18 OFFCURVE",
"422 -18 CURVE SMOOTH",
"568 -18 OFFCURVE",
"720 61 OFFCURVE",
"806 170 CURVE",
"806 326 LINE",
"740 210 OFFCURVE",
"582 116 OFFCURVE",
"459 116 CURVE SMOOTH",
"344 116 OFFCURVE",
"313 183 OFFCURVE",
"313 341 CURVE SMOOTH",
"313 896 LINE SMOOTH",
"313 961 OFFCURVE",
"291 993 OFFCURVE",
"235 993 CURVE SMOOTH",
"201 993 OFFCURVE",
"163 980 OFFCURVE",
"142 961 CURVE",
"161 917 OFFCURVE",
"165 856 OFFCURVE",
"165 792 CURVE SMOOTH"
);
}
);
width = 1092;
},
{
anchors = (
{
name = bottom;
position = "{535, -40}";
},
{
name = top;
position = "{540, 1084}";
}
);
layerId = "9ED2045D-B62B-46E9-A722-9499BEB4CDB9";
paths = (
{
closed = 1;
nodes = (
"889 974 LINE",
"880 977 OFFCURVE",
"867 978 OFFCURVE",
"847 978 CURVE SMOOTH",
"830 978 OFFCURVE",
"818 977 OFFCURVE",
"808 974 CURVE",
"808 205 LINE SMOOTH",
"808 122 OFFCURVE",
"811 39 OFFCURVE",
"889 -13 CURVE",
"916 -5 OFFCURVE",
"935 14 OFFCURVE",
"945 31 CURVE",
"889 87 OFFCURVE",
"889 180 OFFCURVE",
"889 273 CURVE SMOOTH"
);
},
{
closed = 1;
nodes = (
"186 277 LINE",
"186 122 OFFCURVE",
"241 -18 OFFCURVE",
"434 -18 CURVE SMOOTH",
"581 -18 OFFCURVE",
"751 57 OFFCURVE",
"834 173 CURVE",
"834 283 LINE",
"766 170 OFFCURVE",
"584 57 OFFCURVE",
"437 57 CURVE SMOOTH",
"302 57 OFFCURVE",
"266 134 OFFCURVE",
"266 319 CURVE SMOOTH",
"266 926 LINE SMOOTH",
"266 967 OFFCURVE",
"253 985 OFFCURVE",
"226 985 CURVE SMOOTH",
"209 985 OFFCURVE",
"184 978 OFFCURVE",
"173 967 CURVE",
"185 925 OFFCURVE",
"186 868 OFFCURVE",
"186 809 CURVE SMOOTH"
);
}
);
width = 1092;
}
);
leftKerningGroup = u;
rightKerningGroup = u;
unicode = 0075;
},
{
glyphname = v;
lastChange = "2018-11-23 02:58:08 +0000";
layers = (
{
anchors = (
{
name = bottom;
position = "{488, -40}";
},
{
name = top;
position = "{482, 1084}";
}
);
layerId = UUID1;
paths = (
{
closed = 1;
nodes = (
"502 248 LINE",
"490 248 OFFCURVE",
"484 248 OFFCURVE",
"482 264 CURVE SMOOTH",
"472 324 OFFCURVE",
"460 426 OFFCURVE",
"442 500 CURVE SMOOTH",
"358 864 LINE SMOOTH",
"332 978 OFFCURVE",
"272 1018 OFFCURVE",
"168 1018 CURVE SMOOTH",
"114 1018 OFFCURVE",
"44 998 OFFCURVE",
"-12 974 CURVE",
"222 142 LINE SMOOTH",
"258 16 OFFCURVE",
"324 -12 OFFCURVE",
"448 -12 CURVE SMOOTH",
"532 -12 OFFCURVE",
"622 -8 OFFCURVE",
"694 0 CURVE",
"766 232 OFFCURVE",
"888 682 OFFCURVE",
"966 970 CURVE",
"956 984 LINE",
"906 1004 OFFCURVE",
"842 1010 OFFCURVE",
"786 1010 CURVE SMOOTH",
"746 1010 OFFCURVE",
"706 1006 OFFCURVE",
"668 998 CURVE"
);
}
);
width = 966;
},
{
anchors = (
{
name = bottom;
position = "{446, -40}";
},
{
name = top;
position = "{442, 1084}";
}
);
layerId = "59A137EB-1A44-4616-9625-4B79FA594CBD";
paths = (
{
closed = 1;
nodes = (
"458 128 LINE",
"446 128 OFFCURVE",
"444 130 OFFCURVE",
"440 144 CURVE SMOOTH",
"425 206 OFFCURVE",
"382 350 OFFCURVE",
"345 462 CURVE SMOOTH",
"187 938 LINE SMOOTH",
"174 980 OFFCURVE",
"149 995 OFFCURVE",
"113 995 CURVE SMOOTH",
"87 995 OFFCURVE",
"63 990 OFFCURVE",
"22 970 CURVE",
"321 87 LINE SMOOTH",
"349 1 OFFCURVE",
"372 -10 OFFCURVE",
"433 -10 CURVE SMOOTH",
"466 -10 OFFCURVE",
"504 -8 OFFCURVE",
"536 0 CURVE",
"612 213 OFFCURVE",
"763 655 OFFCURVE",
"863 972 CURVE",
"859 978 LINE",
"836 985 OFFCURVE",
"814 989 OFFCURVE",
"786 989 CURVE SMOOTH",
"769 989 OFFCURVE",
"750 989 OFFCURVE",
"727 983 CURVE"
);
}
);
width = 884;
},
{
anchors = (
{
name = bottom;
position = "{431, -40}";
},
{
name = top;
position = "{427, 1084}";
}
);
layerId = "9ED2045D-B62B-46E9-A722-9499BEB4CDB9";
paths = (
{
closed = 1;
nodes = (
"442 84 LINE",
"430 84 OFFCURVE",
"429 87 OFFCURVE",
"425 100 CURVE SMOOTH",
"407 163 OFFCURVE",
"353 322 OFFCURVE",
"309 448 CURVE SMOOTH",
"124 966 LINE SMOOTH",
"116 981 OFFCURVE",
"103 987 OFFCURVE",
"92 987 CURVE SMOOTH",
"78 987 OFFCURVE",
"70 988 OFFCURVE",
"35 969 CURVE",
"357 66 LINE SMOOTH",
"383 -5 OFFCURVE",
"389 -9 OFFCURVE",
"427 -9 CURVE SMOOTH",
"441 -9 OFFCURVE",
"461 -8 OFFCURVE",
"478 0 CURVE",
"555 206 OFFCURVE",
"716 646 OFFCURVE",
"825 973 CURVE",
"823 976 LINE",
"810 978 OFFCURVE",
"803 981 OFFCURVE",
"786 981 CURVE SMOOTH",
"777 981 OFFCURVE",
"766 983 OFFCURVE",
"749 977 CURVE"
);
}
);
width = 884;
}
);
leftKerningGroup = v;
unicode = 0076;
},
{
glyphname = w;
lastChange = "2018-11-23 02:58:08 +0000";
layers = (
{
anchors = (
{
name = bottom;
position = "{758, -40}";
},
{
name = top;
position = "{758, 1084}";
}
);
layerId = UUID1;
paths = (
{
closed = 1;
nodes = (
"196 138 LINE",
"224 16 OFFCURVE",
"282 -12 OFFCURVE",
"406 -12 CURVE SMOOTH",
"484 -12 OFFCURVE",
"584 -8 OFFCURVE",
"652 0 CURVE",
"704 344 LINE SMOOTH",
"718 442 OFFCURVE",
"738 576 OFFCURVE",
"752 712 CURVE",
"764 712 LINE",
"778 574 OFFCURVE",
"798 438 OFFCURVE",
"812 340 CURVE SMOOTH",
"842 134 LINE SMOOTH",
"860 8 OFFCURVE",
"920 -12 OFFCURVE",
"1046 -12 CURVE SMOOTH",
"1122 -12 OFFCURVE",
"1220 -10 OFFCURVE",
"1286 0 CURVE",
"1518 964 LINE",
"1508 984 LINE",
"1462 1008 OFFCURVE",
"1378 1012 OFFCURVE",
"1334 1012 CURVE SMOOTH",
"1296 1012 OFFCURVE",
"1246 1008 OFFCURVE",
"1210 998 CURVE",
"1124 568 LINE SMOOTH",
"1100 444 OFFCURVE",
"1084 330 OFFCURVE",
"1072 242 CURVE",
"1060 242 OFFCURVE",
"1058 246 OFFCURVE",
"1056 258 CURVE SMOOTH",
"950 988 LINE",
"900 1000 OFFCURVE",
"798 1004 OFFCURVE",
"756 1004 CURVE SMOOTH",
"716 1004 OFFCURVE",
"620 1000 OFFCURVE",
"568 988 CURVE",
"466 242 LINE",
"454 242 OFFCURVE",
"452 246 OFFCURVE",
"450 258 CURVE SMOOTH",
"444 326 OFFCURVE",
"426 438 OFFCURVE",
"400 568 CURVE SMOOTH",
"342 878 LINE SMOOTH",
"324 966 OFFCURVE",
"292 1018 OFFCURVE",
"186 1018 CURVE SMOOTH",
"128 1018 OFFCURVE",
"66 1004 OFFCURVE",
"4 980 CURVE"
);
}
);
width = 1522;
},
{
anchors = (
{
name = bottom;
position = "{711, -40}";
},
{
name = top;
position = "{711, 1084}";
}
);
layerId = "59A137EB-1A44-4616-9625-4B79FA594CBD";
paths = (
{
closed = 1;
nodes = (
"280 87 LINE",
"300 3 OFFCURVE",
"341 -8 OFFCURVE",
"385 -8 CURVE SMOOTH",
"423 -8 OFFCURVE",
"478 -6 OFFCURVE",
"511 0 CURVE",
"607 399 LINE SMOOTH",
"633 509 OFFCURVE",
"673 690 OFFCURVE",
"705 836 CURVE",
"713 836 LINE",
"746 690 OFFCURVE",
"781 508 OFFCURVE",
"804 399 CURVE SMOOTH",
"874 87 LINE SMOOTH",
"892 2 OFFCURVE",
"933 -8 OFFCURVE",
"989 -8 CURVE SMOOTH",
"1025 -8 OFFCURVE",
"1076 -6 OFFCURVE",
"1104 -2 CURVE",
"1353 972 LINE",
"1348 978 LINE",
"1331 985 OFFCURVE",
"1306 989 OFFCURVE",
"1279 989 CURVE SMOOTH",
"1252 989 OFFCURVE",
"1225 987 OFFCURVE",
"1208 983 CURVE",
"1088 471 LINE SMOOTH",
"1060 355 OFFCURVE",
"1035 241 OFFCURVE",
"1006 111 CURVE",
"995 111 OFFCURVE",
"993 113 OFFCURVE",
"990 129 CURVE SMOOTH",
"800 980 LINE",
"780 985 OFFCURVE",
"735 987 OFFCURVE",
"710 987 CURVE SMOOTH",
"688 987 OFFCURVE",
"641 985 OFFCURVE",
"619 980 CURVE",
"419 111 LINE",
"410 111 OFFCURVE",
"406 113 OFFCURVE",
"403 129 CURVE SMOOTH",
"385 208 OFFCURVE",
"358 349 OFFCURVE",
"330 471 CURVE SMOOTH",
"224 937 LINE SMOOTH",
"214 985 OFFCURVE",
"186 995 OFFCURVE",
"156 995 CURVE SMOOTH",
"132 995 OFFCURVE",
"104 991 OFFCURVE",
"65 972 CURVE"
);
}
);
width = 1408;
},
{
anchors = (
{
name = bottom;
position = "{694, -40}";
},
{
name = top;
position = "{694, 1084}";
}
);
layerId = "9ED2045D-B62B-46E9-A722-9499BEB4CDB9";
paths = (
{
closed = 1;
nodes = (
"312 68 LINE",
"330 -2 OFFCURVE",
"364 -6 OFFCURVE",
"380 -6 CURVE SMOOTH",
"402 -6 OFFCURVE",
"440 -6 OFFCURVE",
"462 0 CURVE",
"574 420 LINE SMOOTH",
"602 534 OFFCURVE",
"652 732 OFFCURVE",
"688 882 CURVE",
"696 882 LINE",
"736 732 OFFCURVE",
"776 534 OFFCURVE",
"804 420 CURVE SMOOTH",
"888 68 LINE SMOOTH",
"906 0 OFFCURVE",
"940 -6 OFFCURVE",
"970 -6 CURVE SMOOTH",
"992 -6 OFFCURVE",
"1024 -4 OFFCURVE",
"1038 -2 CURVE",
"1294 974 LINE",
"1292 976 LINE",
"1284 976 OFFCURVE",
"1282 980 OFFCURVE",
"1260 980 CURVE SMOOTH",
"1238 980 OFFCURVE",
"1220 980 OFFCURVE",
"1210 978 CURVE",
"1076 436 LINE SMOOTH",
"1048 322 OFFCURVE",
"1018 208 OFFCURVE",
"982 62 CURVE",
"974 62 OFFCURVE",
"972 64 OFFCURVE",
"966 80 CURVE SMOOTH",
"746 978 LINE",
"738 980 OFFCURVE",
"714 980 OFFCURVE",
"696 980 CURVE SMOOTH",
"678 980 OFFCURVE",
"650 980 OFFCURVE",
"640 978 CURVE",
"402 62 LINE",
"396 62 OFFCURVE",
"392 64 OFFCURVE",
"386 80 CURVE SMOOTH",
"366 164 OFFCURVE",
"334 316 OFFCURVE",
"306 436 CURVE SMOOTH",
"182 958 LINE SMOOTH",
"174 992 OFFCURVE",
"148 986 OFFCURVE",
"146 986 CURVE SMOOTH",
"136 986 OFFCURVE",
"120 986 OFFCURVE",
"90 970 CURVE"
);
}
);
width = 1408;
}
);
leftKerningGroup = w;
rightKerningGroup = w;
unicode = 0077;
},
{
glyphname = x;
lastChange = "2018-11-23 02:58:08 +0000";
layers = (
{
anchors = (
{
name = bottom;
position = "{484, -40}";
},
{
name = top;
position = "{490, 1084}";
}
);
layerId = UUID1;
paths = (
{
closed = 1;
nodes = (
"582 80 LINE",
"624 14 OFFCURVE",
"672 -18 OFFCURVE",
"754 -18 CURVE SMOOTH",
"828 -18 OFFCURVE",
"912 10 OFFCURVE",
"976 54 CURVE",
"410 918 LINE SMOOTH",
"366 986 OFFCURVE",
"326 1020 OFFCURVE",
"244 1020 CURVE SMOOTH",
"176 1020 OFFCURVE",
"94 1000 OFFCURVE",
"22 948 CURVE"
);
},
{
closed = 1;
nodes = (
"444 666 LINE",
"362 594 LINE",
"0 32 LINE",
"10 12 LINE",
"60 -6 OFFCURVE",
"120 -12 OFFCURVE",
"184 -12 CURVE SMOOTH",
"232 -12 OFFCURVE",
"276 -10 OFFCURVE",
"310 0 CURVE",
"528 372 LINE",
"604 446 LINE",
"944 968 LINE",
"936 990 LINE",
"886 1004 OFFCURVE",
"834 1012 OFFCURVE",
"774 1012 CURVE SMOOTH",
"728 1012 OFFCURVE",
"682 1008 OFFCURVE",
"646 1000 CURVE"
);
}
);
width = 968;
},
{
anchors = (
{
name = bottom;
position = "{444, -40}";
},
{
name = top;
position = "{448, 1084}";
}
);
layerId = "59A137EB-1A44-4616-9625-4B79FA594CBD";
paths = (
{
closed = 1;
nodes = (
"675 31 LINE",
"694 3 OFFCURVE",
"714 -14 OFFCURVE",
"750 -14 CURVE SMOOTH",
"784 -14 OFFCURVE",
"827 4 OFFCURVE",
"854 22 CURVE",
"249 952 LINE SMOOTH",
"229 980 OFFCURVE",
"210 997 OFFCURVE",
"174 997 CURVE SMOOTH",
"140 997 OFFCURVE",
"98 979 OFFCURVE",
"71 961 CURVE"
);
},
{
closed = 1;
nodes = (
"435 601 LINE",
"383 545 LINE",
"44 17 LINE",
"50 4 LINE",
"66 -4 OFFCURVE",
"93 -10 OFFCURVE",
"121 -10 CURVE SMOOTH",
"143 -10 OFFCURVE",
"177 -6 OFFCURVE",
"188 -2 CURVE",
"465 442 LINE",
"511 492 LINE",
"811 964 LINE",
"805 977 LINE",
"791 983 OFFCURVE",
"764 989 OFFCURVE",
"732 989 CURVE SMOOTH",
"711 989 OFFCURVE",
"680 985 OFFCURVE",
"669 981 CURVE"
);
}
);
width = 898;
},
{
anchors = (
{
name = bottom;
position = "{429, -40}";
},
{
name = top;
position = "{433, 1084}";
}
);
layerId = "9ED2045D-B62B-46E9-A722-9499BEB4CDB9";
paths = (
{
closed = 1;
nodes = (
"710 12 LINE",
"720 -2 OFFCURVE",
"729 -13 OFFCURVE",
"749 -13 CURVE SMOOTH",
"768 -13 OFFCURVE",
"795 2 OFFCURVE",
"809 10 CURVE",
"189 965 LINE SMOOTH",
"179 978 OFFCURVE",
"167 989 OFFCURVE",
"148 989 CURVE SMOOTH",
"127 989 OFFCURVE",
"99 971 OFFCURVE",
"90 966 CURVE"
);
},
{
closed = 1;
nodes = (
"431 577 LINE",
"391 526 LINE",
"60 11 LINE",
"65 2 LINE",
"68 -3 OFFCURVE",
"84 -9 OFFCURVE",
"98 -9 CURVE SMOOTH",
"110 -9 OFFCURVE",
"141 -5 OFFCURVE",
"143 -3 CURVE",
"442 468 LINE",
"476 508 LINE",
"762 963 LINE",
"756 972 LINE",
"756 975 OFFCURVE",
"738 981 OFFCURVE",
"717 981 CURVE SMOOTH",
"705 981 OFFCURVE",
"679 977 OFFCURVE",
"677 974 CURVE"
);
}
);
width = 898;
}
);
unicode = 0078;
},
{
glyphname = y;
lastChange = "2018-11-23 02:58:08 +0000";
layers = (
{
anchors = (
{
name = bottom;
position = "{448, -464}";
},
{
name = top;
position = "{498, 1084}";
}
);
layerId = UUID1;
paths = (
{
closed = 1;
nodes = (
"994 966 LINE",
"982 988 LINE",
"922 1008 OFFCURVE",
"862 1012 OFFCURVE",
"806 1012 CURVE SMOOTH",
"766 1012 OFFCURVE",
"714 1008 OFFCURVE",
"678 998 CURVE",
"510 232 LINE",
"500 232 OFFCURVE",
"496 234 OFFCURVE",
"494 246 CURVE SMOOTH",
"486 310 OFFCURVE",
"470 440 OFFCURVE",
"454 504 CURVE SMOOTH",
"366 878 LINE SMOOTH",
"340 986 OFFCURVE",
"288 1018 OFFCURVE",
"208 1018 CURVE SMOOTH",
"154 1018 OFFCURVE",
"72 1004 OFFCURVE",
"6 974 CURVE",
"234 114 LINE SMOOTH",
"260 18 OFFCURVE",
"338 -14 OFFCURVE",
"450 -14 CURVE",
"442 -44 LINE SMOOTH",
"414 -138 OFFCURVE",
"348 -194 OFFCURVE",
"252 -194 CURVE SMOOTH",
"184 -194 OFFCURVE",
"112 -176 OFFCURVE",
"68 -162 CURVE",
"24 -212 OFFCURVE",
"-6 -322 OFFCURVE",
"2 -396 CURVE SMOOTH",
"58 -416 OFFCURVE",
"170 -438 OFFCURVE",
"252 -438 CURVE SMOOTH",
"570 -438 OFFCURVE",
"680 -242 OFFCURVE",
"750 26 CURVE SMOOTH"
);
}
);
width = 1002;
},
{
anchors = (
{
name = bottom;
position = "{439, -464}";
},
{
name = top;
position = "{451, 1084}";
}
);
layerId = "59A137EB-1A44-4616-9625-4B79FA594CBD";
paths = (
{
closed = 1;
nodes = (
"872 972 LINE",
"868 979 LINE",
"848 985 OFFCURVE",
"822 989 OFFCURVE",
"795 989 CURVE SMOOTH",
"772 989 OFFCURVE",
"746 987 OFFCURVE",
"726 983 CURVE",
"482 99 LINE",
"472 99 OFFCURVE",
"466 101 OFFCURVE",
"462 113 CURVE SMOOTH",
"439 194 OFFCURVE",
"404 318 OFFCURVE",
"370 424 CURVE SMOOTH",
"212 926 LINE SMOOTH",
"196 980 OFFCURVE",
"168 995 OFFCURVE",
"134 995 CURVE SMOOTH",
"110 995 OFFCURVE",
"83 987 OFFCURVE",
"46 970 CURVE",
"325 89 LINE SMOOTH",
"349 16 OFFCURVE",
"382 -5 OFFCURVE",
"450 -8 CURVE",
"444 -29 LINE SMOOTH",
"389 -208 OFFCURVE",
"333 -323 OFFCURVE",
"180 -323 CURVE SMOOTH",
"135 -323 OFFCURVE",
"76 -313 OFFCURVE",
"49 -303 CURVE",
"30 -326 OFFCURVE",
"13 -373 OFFCURVE",
"15 -409 CURVE SMOOTH",
"50 -422 OFFCURVE",
"124 -436 OFFCURVE",
"178 -436 CURVE SMOOTH",
"418 -436 OFFCURVE",
"503 -288 OFFCURVE",
"598 34 CURVE SMOOTH"
);
}
);
width = 903;
},
{
anchors = (
{
name = bottom;
position = "{435, -464}";
},
{
name = top;
position = "{433, 1084}";
}
);
layerId = "9ED2045D-B62B-46E9-A722-9499BEB4CDB9";
paths = (
{
closed = 1;
nodes = (
"827 974 LINE",
"826 975 LINE",
"820 977 OFFCURVE",
"807 981 OFFCURVE",
"790 981 CURVE SMOOTH",
"774 981 OFFCURVE",
"758 979 OFFCURVE",
"743 977 CURVE",
"471 50 LINE",
"461 50 OFFCURVE",
"454 52 OFFCURVE",
"450 64 CURVE SMOOTH",
"421 151 OFFCURVE",
"379 273 OFFCURVE",
"339 395 CURVE SMOOTH",
"155 943 LINE SMOOTH",
"142 978 OFFCURVE",
"124 987 OFFCURVE",
"106 987 CURVE SMOOTH",
"94 987 OFFCURVE",
"88 981 OFFCURVE",
"61 969 CURVE",
"359 80 LINE SMOOTH",
"382 15 OFFCURVE",
"398 -1 OFFCURVE",
"450 -6 CURVE",
"445 -23 LINE SMOOTH",
"380 -234 OFFCURVE",
"327 -371 OFFCURVE",
"153 -371 CURVE SMOOTH",
"116 -371 OFFCURVE",
"63 -363 OFFCURVE",
"42 -355 CURVE",
"32 -368 OFFCURVE",
"20 -392 OFFCURVE",
"20 -414 CURVE SMOOTH",
"48 -424 OFFCURVE",
"108 -435 OFFCURVE",
"150 -435 CURVE SMOOTH",
"362 -435 OFFCURVE",
"438 -304 OFFCURVE",
"542 36 CURVE SMOOTH"
);
}
);
width = 904;
}
);
leftKerningGroup = y;
rightKerningGroup = y;
unicode = 0079;
},
{
glyphname = z;
lastChange = "2018-11-23 02:58:08 +0000";
layers = (
{
anchors = (
{
name = bottom;
position = "{450, -40}";
},
{
name = top;
position = "{450, 1084}";
}
);
layerId = UUID1;
paths = (
{
closed = 1;
nodes = (
"92 278 LINE",
"58 234 OFFCURVE",
"46 194 OFFCURVE",
"46 158 CURVE SMOOTH",
"46 120 OFFCURVE",
"56 76 OFFCURVE",
"82 0 CURVE",
"686 0 LINE SMOOTH",
"814 0 OFFCURVE",
"858 58 OFFCURVE",
"858 144 CURVE SMOOTH",
"858 188 OFFCURVE",
"848 218 OFFCURVE",
"824 274 CURVE",
"768 246 OFFCURVE",
"698 240 OFFCURVE",
"642 240 CURVE SMOOTH",
"576 240 LINE SMOOTH",
"526 240 OFFCURVE",
"478 236 OFFCURVE",
"422 228 CURVE",
"416 238 LINE",
"468 290 OFFCURVE",
"522 358 OFFCURVE",
"566 416 CURVE SMOOTH",
"800 726 LINE SMOOTH",
"820 754 OFFCURVE",
"830 792 OFFCURVE",
"830 822 CURVE SMOOTH",
"830 868 OFFCURVE",
"814 922 OFFCURVE",
"788 1000 CURVE",
"86 1000 LINE",
"76 956 OFFCURVE",
"68 908 OFFCURVE",
"68 858 CURVE SMOOTH",
"68 826 OFFCURVE",
"72 790 OFFCURVE",
"80 758 CURVE",
"226 758 LINE",
"298 758 OFFCURVE",
"396 766 OFFCURVE",
"472 774 CURVE",
"478 764 LINE",
"434 716 OFFCURVE",
"364 640 OFFCURVE",
"316 576 CURVE SMOOTH"
);
}
);
width = 900;
},
{
anchors = (
{
name = bottom;
position = "{448, -40}";
},
{
name = top;
position = "{448, 1084}";
}
);
layerId = "59A137EB-1A44-4616-9625-4B79FA594CBD";
paths = (
{
closed = 1;
nodes = (
"107 155 LINE",
"88 128 OFFCURVE",
"82 109 OFFCURVE",
"82 92 CURVE SMOOTH",
"82 69 OFFCURVE",
"88 51 OFFCURVE",
"107 0 CURVE",
"699 0 LINE SMOOTH",
"784 0 OFFCURVE",
"809 28 OFFCURVE",
"809 76 CURVE SMOOTH",
"809 99 OFFCURVE",
"804 125 OFFCURVE",
"796 147 CURVE",
"749 128 OFFCURVE",
"671 122 OFFCURVE",
"564 122 CURVE SMOOTH",
"454 122 LINE SMOOTH",
"406 122 OFFCURVE",
"324 120 OFFCURVE",
"255 116 CURVE",
"249 122 LINE",
"295 182 OFFCURVE",
"361 261 OFFCURVE",
"406 325 CURVE SMOOTH",
"775 829 LINE SMOOTH",
"792 851 OFFCURVE",
"800 870 OFFCURVE",
"800 887 CURVE SMOOTH",
"800 908 OFFCURVE",
"793 932 OFFCURVE",
"775 981 CURVE",
"122 981 LINE",
"116 956 OFFCURVE",
"114 925 OFFCURVE",
"114 911 CURVE SMOOTH",
"114 900 OFFCURVE",
"114 877 OFFCURVE",
"118 861 CURVE",
"359 861 LINE",
"446 861 OFFCURVE",
"586 865 OFFCURVE",
"634 871 CURVE",
"640 865 LINE",
"588 800 OFFCURVE",
"527 729 OFFCURVE",
"483 669 CURVE SMOOTH"
);
}
);
width = 889;
},
{
anchors = (
{
name = bottom;
position = "{447, -40}";
},
{
name = top;
position = "{447, 1084}";
}
);
layerId = "9ED2045D-B62B-46E9-A722-9499BEB4CDB9";
paths = (
{
closed = 1;
nodes = (
"113 109 LINE",
"100 88 OFFCURVE",
"95 77 OFFCURVE",
"95 67 CURVE SMOOTH",
"95 50 OFFCURVE",
"100 42 OFFCURVE",
"116 0 CURVE",
"704 0 LINE SMOOTH",
"772 0 OFFCURVE",
"790 16 OFFCURVE",
"790 50 CURVE SMOOTH",
"790 66 OFFCURVE",
"788 90 OFFCURVE",
"785 100 CURVE",
"742 85 OFFCURVE",
"662 79 OFFCURVE",
"535 79 CURVE SMOOTH",
"409 79 LINE SMOOTH",
"362 79 OFFCURVE",
"267 77 OFFCURVE",
"193 74 CURVE",
"187 79 LINE",
"231 142 OFFCURVE",
"301 225 OFFCURVE",
"347 291 CURVE SMOOTH",
"766 867 LINE SMOOTH",
"781 887 OFFCURVE",
"788 899 OFFCURVE",
"788 911 CURVE SMOOTH",
"788 923 OFFCURVE",
"785 935 OFFCURVE",
"770 974 CURVE",
"135 974 LINE",
"131 956 OFFCURVE",
"130 931 OFFCURVE",
"130 931 CURVE SMOOTH",
"130 928 OFFCURVE",
"129 910 OFFCURVE",
"132 899 CURVE",
"408 899 LINE",
"501 899 OFFCURVE",
"656 901 OFFCURVE",
"693 907 CURVE",
"699 902 LINE",
"645 831 OFFCURVE",
"588 762 OFFCURVE",
"545 704 CURVE SMOOTH"
);
}
);
width = 888;
}
);
leftKerningGroup = z;
rightKerningGroup = z;
unicode = 007A;
},
{
glyphname = a.smcp;
lastChange = "2018-11-23 02:58:08 +0000";
layers = (
{
anchors = (
{
name = bottom;
position = "{580, -40}";
},
{
name = top;
position = "{592, 1188}";
}
);
layerId = UUID1;
paths = (
{
closed = 1;
nodes = (
"6 28 LINE",
"18 10 LINE",
"54 -6 OFFCURVE",
"116 -14 OFFCURVE",
"172 -14 CURVE SMOOTH",
"224 -14 OFFCURVE",
"272 -10 OFFCURVE",
"312 0 CURVE",
"466 490 LINE SMOOTH",
"500 600 OFFCURVE",
"536 748 OFFCURVE",
"564 852 CURVE",
"576 852 LINE",
"602 744 OFFCURVE",
"632 602 OFFCURVE",
"664 494 CURVE SMOOTH",
"778 118 LINE SMOOTH",
"814 -6 OFFCURVE",
"894 -18 OFFCURVE",
"970 -18 CURVE SMOOTH",
"1014 -18 OFFCURVE",
"1104 -6 OFFCURVE",
"1154 16 CURVE",
"778 1104 LINE",
"700 1114 OFFCURVE",
"644 1116 OFFCURVE",
"592 1116 CURVE SMOOTH",
"536 1116 OFFCURVE",
"468 1114 OFFCURVE",
"394 1104 CURVE"
);
},
{
closed = 1;
nodes = (
"700 186 LINE SMOOTH",
"730 186 OFFCURVE",
"746 188 OFFCURVE",
"776 188 CURVE",
"930 188 LINE",
"840 444 LINE",
"702 444 LINE",
"672 444 OFFCURVE",
"658 446 OFFCURVE",
"628 446 CURVE SMOOTH",
"510 446 LINE SMOOTH",
"480 446 OFFCURVE",
"460 444 OFFCURVE",
"432 444 CURVE",
"304 444 LINE",
"202 188 LINE",
"350 188 LINE",
"380 188 OFFCURVE",
"396 186 OFFCURVE",
"426 186 CURVE SMOOTH"
);
}
);
width = 1160;
},
{
anchors = (
{
name = bottom;
position = "{527, -40}";
},
{
name = top;
position = "{527, 1188}";
}
);
layerId = "59A137EB-1A44-4616-9625-4B79FA594CBD";
paths = (
{
closed = 1;
nodes = (
"36 9 LINE",
"41 2 LINE",
"58 -4 OFFCURVE",
"84 -8 OFFCURVE",
"111 -8 CURVE SMOOTH",
"133 -8 OFFCURVE",
"158 -6 OFFCURVE",
"177 -2 CURVE",
"439 714 LINE SMOOTH",
"458 765 OFFCURVE",
"492 870 OFFCURVE",
"515 949 CURVE",
"523 949 LINE",
"549 866 OFFCURVE",
"594 733 OFFCURVE",
"622 656 CURVE SMOOTH",
"839 65 LINE SMOOTH",
"862 4 OFFCURVE",
"881 -12 OFFCURVE",
"928 -12 CURVE SMOOTH",
"963 -12 OFFCURVE",
"994 -6 OFFCURVE",
"1017 7 CURVE",
"613 1085 LINE",
"597 1089 OFFCURVE",
"553 1093 OFFCURVE",
"529 1093 CURVE SMOOTH",
"504 1093 OFFCURVE",
"457 1089 OFFCURVE",
"440 1085 CURVE"
);
},
{
closed = 1;
nodes = (
"643 270 LINE SMOOTH",
"656 270 OFFCURVE",
"757 272 OFFCURVE",
"770 272 CURVE",
"833 272 LINE",
"785 397 LINE",
"729 397 LINE",
"714 397 OFFCURVE",
"635 399 OFFCURVE",
"622 399 CURVE SMOOTH",
"430 399 LINE SMOOTH",
"417 399 OFFCURVE",
"327 397 OFFCURVE",
"312 397 CURVE",
"258 397 LINE",
"208 272 LINE",
"268 272 LINE",
"283 272 OFFCURVE",
"394 270 OFFCURVE",
"407 270 CURVE SMOOTH"
);
}
);
width = 1054;
},
{
anchors = (
{
name = bottom;
position = "{507, -40}";
},
{
name = top;
position = "{503, 1188}";
}
);
layerId = "9ED2045D-B62B-46E9-A722-9499BEB4CDB9";
paths = (
{
closed = 1;
nodes = (
"48 2 LINE",
"49 0 LINE",
"59 -3 OFFCURVE",
"72 -6 OFFCURVE",
"89 -6 CURVE SMOOTH",
"99 -6 OFFCURVE",
"116 -5 OFFCURVE",
"127 -3 CURVE",
"430 797 LINE SMOOTH",
"443 827 OFFCURVE",
"476 915 OFFCURVE",
"496 985 CURVE",
"503 985 LINE",
"529 911 OFFCURVE",
"580 782 OFFCURVE",
"607 715 CURVE SMOOTH",
"861 45 LINE SMOOTH",
"879 7 OFFCURVE",
"876 -10 OFFCURVE",
"913 -10 CURVE SMOOTH",
"944 -10 OFFCURVE",
"953 -6 OFFCURVE",
"967 3 CURVE",
"551 1078 LINE",
"559 1080 OFFCURVE",
"519 1085 OFFCURVE",
"506 1085 CURVE SMOOTH",
"492 1085 OFFCURVE",
"452 1080 OFFCURVE",
"456 1078 CURVE"
);
},
{
closed = 1;
nodes = (
"622 301 LINE SMOOTH",
"628 301 OFFCURVE",
"762 303 OFFCURVE",
"768 303 CURVE",
"797 303 LINE",
"764 379 LINE",
"738 379 LINE",
"729 379 OFFCURVE",
"627 381 OFFCURVE",
"620 381 CURVE SMOOTH",
"401 381 LINE SMOOTH",
"394 381 OFFCURVE",
"278 379 OFFCURVE",
"268 379 CURVE",
"242 379 LINE",
"210 303 LINE",
"238 303 LINE",
"247 303 OFFCURVE",
"393 301 OFFCURVE",
"400 301 CURVE SMOOTH"
);
}
);
width = 1054;
}
);
leftKerningGroup = a.smcp;
rightKerningGroup = a.smcp;
},
{
glyphname = b.smcp;
lastChange = "2018-11-23 02:58:08 +0000";
layers = (
{
anchors = (
{
name = bottom;
position = "{550, -40}";
},
{
name = top;
position = "{538, 1188}";
}
);
layerId = UUID1;
paths = (
{
closed = 1;
nodes = (
"140 1094 LINE",
"140 8 LINE",
"152 -2 LINE",
"316 -6 OFFCURVE",
"468 -8 OFFCURVE",
"604 -8 CURVE SMOOTH",
"868 -8 OFFCURVE",
"1070 60 OFFCURVE",
"1070 324 CURVE SMOOTH",
"1070 468 OFFCURVE",
"946 610 OFFCURVE",
"796 610 CURVE",
"796 584 LINE",
"926 584 OFFCURVE",
"1012 704 OFFCURVE",
"1012 820 CURVE SMOOTH",
"1012 1040 OFFCURVE",
"822 1114 OFFCURVE",
"578 1114 CURVE SMOOTH",
"446 1114 OFFCURVE",
"254 1110 OFFCURVE",
"152 1106 CURVE"
);
},
{
closed = 1;
nodes = (
"460 892 LINE",
"496 890 OFFCURVE",
"540 890 OFFCURVE",
"562 890 CURVE SMOOTH",
"660 890 OFFCURVE",
"690 840 OFFCURVE",
"690 790 CURVE SMOOTH",
"690 738 OFFCURVE",
"660 688 OFFCURVE",
"560 688 CURVE SMOOTH",
"326 688 LINE",
"326 464 LINE",
"582 464 LINE SMOOTH",
"700 464 OFFCURVE",
"738 400 OFFCURVE",
"738 338 CURVE SMOOTH",
"738 282 OFFCURVE",
"710 218 OFFCURVE",
"598 218 CURVE SMOOTH",
"560 218 OFFCURVE",
"510 218 OFFCURVE",
"460 216 CURVE"
);
}
);
width = 1134;
},
{
anchors = (
{
name = bottom;
position = "{525, -40}";
},
{
name = top;
position = "{508, 1188}";
}
);
layerId = "59A137EB-1A44-4616-9625-4B79FA594CBD";
paths = (
{
closed = 1;
nodes = (
"182 1075 LINE",
"182 10 LINE",
"192 0 LINE",
"322 -2 OFFCURVE",
"409 -6 OFFCURVE",
"558 -6 CURVE SMOOTH",
"866 -6 OFFCURVE",
"979 136 OFFCURVE",
"979 303 CURVE SMOOTH",
"979 468 OFFCURVE",
"826 591 OFFCURVE",
"676 591 CURVE",
"676 569 LINE",
"823 580 OFFCURVE",
"919 685 OFFCURVE",
"919 807 CURVE SMOOTH",
"919 981 OFFCURVE",
"809 1091 OFFCURVE",
"536 1091 CURVE SMOOTH",
"421 1091 OFFCURVE",
"317 1087 OFFCURVE",
"192 1085 CURVE"
);
},
{
closed = 1;
nodes = (
"333 972 LINE",
"395 970 OFFCURVE",
"481 970 OFFCURVE",
"537 970 CURVE SMOOTH",
"725 970 OFFCURVE",
"764 886 OFFCURVE",
"764 803 CURVE SMOOTH",
"764 725 OFFCURVE",
"723 635 OFFCURVE",
"533 635 CURVE SMOOTH",
"271 635 LINE",
"271 512 LINE",
"550 512 LINE SMOOTH",
"763 512 OFFCURVE",
"822 394 OFFCURVE",
"822 311 CURVE SMOOTH",
"822 229 OFFCURVE",
"780 115 OFFCURVE",
"568 115 CURVE SMOOTH",
"486 115 OFFCURVE",
"415 114 OFFCURVE",
"333 113 CURVE"
);
}
);
width = 1079;
},
{
anchors = (
{
name = bottom;
position = "{518, -40}";
},
{
name = top;
position = "{498, 1188}";
}
);
layerId = "9ED2045D-B62B-46E9-A722-9499BEB4CDB9";
paths = (
{
closed = 1;
nodes = (
"200 1068 LINE",
"200 10 LINE",
"208 0 LINE",
"326 0 OFFCURVE",
"390 -6 OFFCURVE",
"544 -6 CURVE SMOOTH",
"868 -6 OFFCURVE",
"948 164 OFFCURVE",
"948 296 CURVE SMOOTH",
"948 468 OFFCURVE",
"784 584 OFFCURVE",
"634 584 CURVE",
"634 564 LINE",
"788 578 OFFCURVE",
"886 678 OFFCURVE",
"886 802 CURVE SMOOTH",
"886 960 OFFCURVE",
"806 1082 OFFCURVE",
"522 1082 CURVE SMOOTH",
"414 1082 OFFCURVE",
"342 1078 OFFCURVE",
"208 1078 CURVE"
);
},
{
closed = 1;
nodes = (
"288 1002 LINE",
"360 1000 OFFCURVE",
"462 1000 OFFCURVE",
"530 1000 CURVE SMOOTH",
"750 1000 OFFCURVE",
"794 902 OFFCURVE",
"794 808 CURVE SMOOTH",
"794 720 OFFCURVE",
"748 616 OFFCURVE",
"526 616 CURVE SMOOTH",
"252 616 LINE",
"252 530 LINE",
"540 530 LINE SMOOTH",
"788 530 OFFCURVE",
"854 392 OFFCURVE",
"854 302 CURVE SMOOTH",
"854 210 OFFCURVE",
"808 78 OFFCURVE",
"558 78 CURVE SMOOTH",
"460 78 OFFCURVE",
"382 74 OFFCURVE",
"288 76 CURVE"
);
}
);
width = 1078;
}
);
leftKerningGroup = b.smcp;
},
{
glyphname = c.smcp;
lastChange = "2018-11-23 02:58:08 +0000";
layers = (
{
anchors = (
{
name = bottom;
position = "{576, -40}";
},
{
name = top;
position = "{596, 1188}";
}
);
layerId = UUID1;
paths = (
{
closed = 1;
nodes = (
"784 590 OFFCURVE",
"822 586 OFFCURVE",
"854 586 CURVE SMOOTH",
"986 586 OFFCURVE",
"1056 640 OFFCURVE",
"1056 764 CURVE SMOOTH",
"1056 944 OFFCURVE",
"910 1134 OFFCURVE",
"596 1134 CURVE SMOOTH",
"316 1134 OFFCURVE",
"60 958 OFFCURVE",
"60 546 CURVE SMOOTH",
"60 274 OFFCURVE",
"174 -30 OFFCURVE",
"564 -30 CURVE SMOOTH",
"768 -30 OFFCURVE",
"928 46 OFFCURVE",
"1040 142 CURVE",
"1026 210 OFFCURVE",
"958 316 OFFCURVE",
"892 350 CURVE",
"816 294 OFFCURVE",
"712 242 OFFCURVE",
"614 242 CURVE SMOOTH",
"508 242 OFFCURVE",
"398 296 OFFCURVE",
"398 544 CURVE SMOOTH",
"398 758 OFFCURVE",
"448 876 OFFCURVE",
"584 876 CURVE SMOOTH",
"716 876 OFFCURVE",
"746 766 OFFCURVE",
"746 594 CURVE"
);
}
);
width = 1096;
},
{
anchors = (
{
name = bottom;
position = "{553, -40}";
},
{
name = top;
position = "{569, 1188}";
}
);
layerId = "59A137EB-1A44-4616-9625-4B79FA594CBD";
paths = (
{
closed = 1;
nodes = (
"862 691 OFFCURVE",
"879 687 OFFCURVE",
"903 687 CURVE SMOOTH",
"973 687 OFFCURVE",
"986 731 OFFCURVE",
"986 777 CURVE SMOOTH",
"986 927 OFFCURVE",
"857 1109 OFFCURVE",
"569 1109 CURVE SMOOTH",
"314 1109 OFFCURVE",
"90 939 OFFCURVE",
"90 540 CURVE SMOOTH",
"90 253 OFFCURVE",
"216 -24 OFFCURVE",
"547 -24 CURVE SMOOTH",
"726 -24 OFFCURVE",
"877 46 OFFCURVE",
"974 134 CURVE",
"963 168 OFFCURVE",
"930 212 OFFCURVE",
"894 234 CURVE",
"782 150 OFFCURVE",
"674 107 OFFCURVE",
"568 107 CURVE SMOOTH",
"373 107 OFFCURVE",
"250 264 OFFCURVE",
"250 540 CURVE SMOOTH",
"250 834 OFFCURVE",
"364 984 OFFCURVE",
"567 984 CURVE SMOOTH",
"777 984 OFFCURVE",
"837 836 OFFCURVE",
"839 697 CURVE"
);
}
);
width = 1062;
},
{
anchors = (
{
name = bottom;
position = "{545, -40}";
},
{
name = top;
position = "{560, 1188}";
}
);
layerId = "9ED2045D-B62B-46E9-A722-9499BEB4CDB9";
paths = (
{
closed = 1;
nodes = (
"891 728 OFFCURVE",
"900 724 OFFCURVE",
"922 724 CURVE SMOOTH",
"968 724 OFFCURVE",
"960 765 OFFCURVE",
"960 782 CURVE SMOOTH",
"960 921 OFFCURVE",
"837 1100 OFFCURVE",
"560 1100 CURVE SMOOTH",
"313 1100 OFFCURVE",
"102 932 OFFCURVE",
"102 538 CURVE SMOOTH",
"102 245 OFFCURVE",
"231 -22 OFFCURVE",
"541 -22 CURVE SMOOTH",
"711 -22 OFFCURVE",
"858 46 OFFCURVE",
"949 132 CURVE",
"940 153 OFFCURVE",
"919 173 OFFCURVE",
"895 191 CURVE",
"769 96 OFFCURVE",
"660 57 OFFCURVE",
"552 57 CURVE SMOOTH",
"323 57 OFFCURVE",
"195 252 OFFCURVE",
"195 539 CURVE SMOOTH",
"195 862 OFFCURVE",
"333 1024 OFFCURVE",
"561 1024 CURVE SMOOTH",
"799 1024 OFFCURVE",
"871 862 OFFCURVE",
"874 735 CURVE"
);
}
);
width = 1062;
}
);
leftKerningGroup = c.smcp;
},
{
glyphname = d.smcp;
lastChange = "2018-11-23 02:58:08 +0000";
layers = (
{
anchors = (
{
name = bottom;
position = "{594, -40}";
},
{
name = top;
position = "{588, 1188}";
}
);
layerId = UUID1;
paths = (
{
closed = 1;
nodes = (
"1158 736 OFFCURVE",
"1126 912 OFFCURVE",
"950 1030 CURVE SMOOTH",
"866 1088 OFFCURVE",
"714 1114 OFFCURVE",
"610 1114 CURVE",
"450 1114 OFFCURVE",
"310 1110 OFFCURVE",
"152 1106 CURVE",
"140 1094 LINE",
"140 10 LINE",
"152 -2 LINE",
"310 -6 OFFCURVE",
"450 -8 OFFCURVE",
"610 -8 CURVE",
"714 -8 OFFCURVE",
"866 14 OFFCURVE",
"950 70 CURVE SMOOTH",
"1128 190 OFFCURVE",
"1158 364 OFFCURVE",
"1158 550 CURVE SMOOTH"
);
},
{
closed = 1;
nodes = (
"822 412 OFFCURVE",
"794 244 OFFCURVE",
"610 244 CURVE SMOOTH",
"554 244 OFFCURVE",
"524 242 OFFCURVE",
"468 242 CURVE",
"468 862 LINE",
"522 860 OFFCURVE",
"554 860 OFFCURVE",
"610 860 CURVE SMOOTH",
"794 860 OFFCURVE",
"822 690 OFFCURVE",
"822 550 CURVE"
);
}
);
width = 1220;
},
{
anchors = (
{
name = bottom;
position = "{556, -40}";
},
{
name = top;
position = "{541, 1188}";
}
);
layerId = "59A137EB-1A44-4616-9625-4B79FA594CBD";
paths = (
{
closed = 1;
nodes = (
"1046 727 OFFCURVE",
"1018 891 OFFCURVE",
"861 1009 CURVE SMOOTH",
"784 1067 OFFCURVE",
"642 1091 OFFCURVE",
"547 1091 CURVE",
"404 1091 OFFCURVE",
"344 1089 OFFCURVE",
"192 1085 CURVE",
"182 1075 LINE",
"182 10 LINE",
"192 0 LINE",
"342 -4 OFFCURVE",
"404 -6 OFFCURVE",
"547 -6 CURVE",
"642 -6 OFFCURVE",
"784 16 OFFCURVE",
"861 74 CURVE SMOOTH",
"1020 192 OFFCURVE",
"1046 355 OFFCURVE",
"1046 541 CURVE SMOOTH"
);
},
{
closed = 1;
nodes = (
"887 344 OFFCURVE",
"840 117 OFFCURVE",
"545 117 CURVE SMOOTH",
"465 117 OFFCURVE",
"404 115 OFFCURVE",
"333 115 CURVE",
"333 968 LINE",
"404 968 OFFCURVE",
"465 966 OFFCURVE",
"545 966 CURVE SMOOTH",
"840 966 OFFCURVE",
"887 739 OFFCURVE",
"887 541 CURVE"
);
}
);
width = 1142;
},
{
anchors = (
{
name = bottom;
position = "{546, -40}";
},
{
name = top;
position = "{526, 1188}";
}
);
layerId = "9ED2045D-B62B-46E9-A722-9499BEB4CDB9";
paths = (
{
closed = 1;
nodes = (
"1008 722 OFFCURVE",
"982 884 OFFCURVE",
"832 1002 CURVE SMOOTH",
"758 1060 OFFCURVE",
"620 1082 OFFCURVE",
"528 1082 CURVE",
"392 1082 OFFCURVE",
"360 1082 OFFCURVE",
"210 1078 CURVE",
"202 1068 LINE",
"202 10 LINE",
"210 0 LINE",
"358 -4 OFFCURVE",
"392 -6 OFFCURVE",
"528 -6 CURVE",
"620 -6 OFFCURVE",
"758 16 OFFCURVE",
"832 76 CURVE SMOOTH",
"984 192 OFFCURVE",
"1008 350 OFFCURVE",
"1008 536 CURVE SMOOTH"
);
},
{
closed = 1;
nodes = (
"914 318 OFFCURVE",
"860 70 OFFCURVE",
"526 70 CURVE SMOOTH",
"436 70 OFFCURVE",
"364 68 OFFCURVE",
"288 68 CURVE",
"288 1008 LINE",
"364 1008 OFFCURVE",
"436 1006 OFFCURVE",
"526 1006 CURVE SMOOTH",
"860 1006 OFFCURVE",
"914 758 OFFCURVE",
"914 536 CURVE"
);
}
);
width = 1142;
}
);
leftKerningGroup = b.smcp;
rightKerningGroup = d.smcp;
},
{
glyphname = e.smcp;
lastChange = "2018-11-23 02:58:08 +0000";
layers = (
{
anchors = (
{
name = bottom;
position = "{556, -40}";
},
{
name = top;
position = "{556, 1188}";
}
);
layerId = UUID1;
paths = (
{
closed = 1;
nodes = (
"140 182 LINE",
"140 68 OFFCURVE",
"214 -4 OFFCURVE",
"332 -4 CURVE SMOOTH",
"466 -4 LINE",
"466 258 LINE SMOOTH",
"466 310 OFFCURVE",
"468 332 OFFCURVE",
"468 384 CURVE SMOOTH",
"468 732 LINE SMOOTH",
"468 774 OFFCURVE",
"466 796 OFFCURVE",
"466 840 CURVE SMOOTH",
"466 1104 LINE",
"152 1104 LINE",
"140 1092 LINE"
);
},
{
closed = 1;
nodes = (
"594 684 LINE SMOOTH",
"548 684 OFFCURVE",
"410 682 OFFCURVE",
"352 680 CURVE",
"352 430 LINE",
"410 428 OFFCURVE",
"548 428 OFFCURVE",
"594 428 CURVE SMOOTH",
"842 428 LINE",
"856 466 OFFCURVE",
"860 520 OFFCURVE",
"860 558 CURVE SMOOTH",
"860 592 OFFCURVE",
"856 646 OFFCURVE",
"842 684 CURVE"
);
},
{
closed = 1;
nodes = (
"352 1104 LINE",
"352 842 LINE",
"410 840 OFFCURVE",
"548 838 OFFCURVE",
"594 838 CURVE SMOOTH",
"936 838 LINE",
"954 886 OFFCURVE",
"962 936 OFFCURVE",
"962 974 CURVE SMOOTH",
"962 1012 OFFCURVE",
"962 1056 OFFCURVE",
"952 1104 CURVE"
);
},
{
closed = 1;
nodes = (
"606 262 LINE SMOOTH",
"512 262 OFFCURVE",
"480 254 OFFCURVE",
"356 250 CURVE",
"356 -4 LINE",
"786 -4 LINE SMOOTH",
"906 -4 OFFCURVE",
"966 50 OFFCURVE",
"984 154 CURVE SMOOTH",
"990 192 OFFCURVE",
"990 234 OFFCURVE",
"990 262 CURVE"
);
}
);
width = 1062;
},
{
anchors = (
{
name = bottom;
position = "{543, -40}";
},
{
name = top;
position = "{541, 1188}";
}
);
layerId = "59A137EB-1A44-4616-9625-4B79FA594CBD";
paths = (
{
closed = 1;
nodes = (
"182 95 LINE",
"182 36 OFFCURVE",
"216 0 OFFCURVE",
"269 0 CURVE SMOOTH",
"329 0 LINE",
"329 125 LINE SMOOTH",
"329 139 OFFCURVE",
"331 172 OFFCURVE",
"331 198 CURVE SMOOTH",
"331 857 LINE SMOOTH",
"331 899 OFFCURVE",
"329 937 OFFCURVE",
"329 962 CURVE SMOOTH",
"329 1085 LINE",
"192 1085 LINE",
"182 1075 LINE"
);
},
{
closed = 1;
nodes = (
"438 616 LINE SMOOTH",
"398 616 OFFCURVE",
"330 614 OFFCURVE",
"278 614 CURVE",
"278 491 LINE",
"330 489 OFFCURVE",
"398 489 OFFCURVE",
"438 489 CURVE SMOOTH",
"785 489 LINE",
"791 510 OFFCURVE",
"792 535 OFFCURVE",
"792 552 CURVE SMOOTH",
"792 567 OFFCURVE",
"791 595 OFFCURVE",
"785 616 CURVE"
);
},
{
closed = 1;
nodes = (
"278 1085 LINE",
"278 960 LINE",
"330 958 OFFCURVE",
"398 958 OFFCURVE",
"438 958 CURVE SMOOTH",
"873 958 LINE",
"882 981 OFFCURVE",
"884 1008 OFFCURVE",
"884 1025 CURVE SMOOTH",
"884 1042 OFFCURVE",
"884 1064 OFFCURVE",
"880 1085 CURVE"
);
},
{
closed = 1;
nodes = (
"441 129 LINE SMOOTH",
"366 129 OFFCURVE",
"324 127 OFFCURVE",
"280 123 CURVE",
"280 0 LINE",
"811 0 LINE SMOOTH",
"864 0 OFFCURVE",
"898 23 OFFCURVE",
"906 70 CURVE SMOOTH",
"910 89 OFFCURVE",
"910 116 OFFCURVE",
"910 129 CURVE"
);
}
);
width = 1003;
},
{
anchors = (
{
name = bottom;
position = "{540, -40}";
},
{
name = top;
position = "{538, 1188}";
}
);
layerId = "9ED2045D-B62B-46E9-A722-9499BEB4CDB9";
paths = (
{
closed = 1;
nodes = (
"200 62 LINE",
"200 24 OFFCURVE",
"218 2 OFFCURVE",
"248 2 CURVE SMOOTH",
"280 2 LINE",
"280 76 LINE SMOOTH",
"280 76 OFFCURVE",
"282 114 OFFCURVE",
"282 128 CURVE SMOOTH",
"282 904 LINE SMOOTH",
"282 946 OFFCURVE",
"280 988 OFFCURVE",
"280 1006 CURVE SMOOTH",
"280 1078 LINE",
"208 1078 LINE",
"200 1068 LINE"
);
},
{
closed = 1;
nodes = (
"382 590 LINE SMOOTH",
"344 590 OFFCURVE",
"302 588 OFFCURVE",
"252 588 CURVE",
"252 514 LINE",
"302 512 OFFCURVE",
"344 512 OFFCURVE",
"382 512 CURVE SMOOTH",
"766 512 LINE",
"770 526 OFFCURVE",
"768 540 OFFCURVE",
"768 550 CURVE SMOOTH",
"768 558 OFFCURVE",
"770 576 OFFCURVE",
"766 590 CURVE"
);
},
{
closed = 1;
nodes = (
"252 1078 LINE",
"252 1004 LINE",
"302 1002 OFFCURVE",
"344 1002 OFFCURVE",
"382 1002 CURVE SMOOTH",
"852 1002 LINE",
"858 1016 OFFCURVE",
"858 1034 OFFCURVE",
"858 1044 CURVE SMOOTH",
"858 1054 OFFCURVE",
"858 1066 OFFCURVE",
"856 1078 CURVE"
);
},
{
closed = 1;
nodes = (
"382 80 LINE SMOOTH",
"314 80 OFFCURVE",
"268 80 OFFCURVE",
"254 76 CURVE",
"254 2 LINE",
"822 2 LINE SMOOTH",
"850 2 OFFCURVE",
"874 14 OFFCURVE",
"880 40 CURVE SMOOTH",
"882 52 OFFCURVE",
"882 72 OFFCURVE",
"882 80 CURVE"
);
}
);
width = 1004;
}
);
leftKerningGroup = b.smcp;
rightKerningGroup = e.smcp;
},
{
glyphname = f.smcp;
lastChange = "2018-11-23 02:58:08 +0000";
layers = (
{
anchors = (
{
name = bottom;
position = "{304, -40}";
},
{
name = top;
position = "{540, 1188}";
}
);
layerId = UUID1;
paths = (
{
closed = 1;
nodes = (
"472 758 LINE SMOOTH",
"472 846 OFFCURVE",
"470 942 OFFCURVE",
"470 1036 CURVE SMOOTH",
"470 1104 LINE",
"152 1104 LINE",
"140 1094 LINE",
"140 0 LINE",
"198 -10 OFFCURVE",
"262 -12 OFFCURVE",
"306 -12 CURVE SMOOTH",
"350 -12 OFFCURVE",
"414 -10 OFFCURVE",
"472 0 CURVE"
);
},
{
closed = 1;
nodes = (
"330 1104 LINE",
"330 834 LINE",
"416 834 OFFCURVE",
"494 832 OFFCURVE",
"580 832 CURVE SMOOTH",
"788 832 LINE SMOOTH",
"904 832 OFFCURVE",
"950 888 OFFCURVE",
"950 982 CURVE SMOOTH",
"950 1012 OFFCURVE",
"946 1066 OFFCURVE",
"936 1104 CURVE"
);
},
{
closed = 1;
nodes = (
"488 658 LINE SMOOTH",
"434 658 OFFCURVE",
"374 656 OFFCURVE",
"344 654 CURVE",
"344 404 LINE",
"374 402 OFFCURVE",
"434 400 OFFCURVE",
"488 400 CURVE SMOOTH",
"820 400 LINE",
"832 438 OFFCURVE",
"836 496 OFFCURVE",
"836 534 CURVE SMOOTH",
"836 568 OFFCURVE",
"832 622 OFFCURVE",
"820 658 CURVE"
);
}
);
width = 980;
},
{
anchors = (
{
name = bottom;
position = "{258, -40}";
},
{
name = top;
position = "{531, 1188}";
}
);
layerId = "59A137EB-1A44-4616-9625-4B79FA594CBD";
paths = (
{
closed = 1;
nodes = (
"333 758 LINE SMOOTH",
"333 837 OFFCURVE",
"331 919 OFFCURVE",
"331 1000 CURVE SMOOTH",
"331 1085 LINE",
"192 1085 LINE",
"182 1077 LINE",
"182 0 LINE",
"202 -4 OFFCURVE",
"230 -6 OFFCURVE",
"257 -6 CURVE SMOOTH",
"284 -6 OFFCURVE",
"311 -4 OFFCURVE",
"333 0 CURVE"
);
},
{
closed = 1;
nodes = (
"275 1085 LINE",
"275 961 LINE",
"338 958 OFFCURVE",
"420 956 OFFCURVE",
"521 956 CURVE SMOOTH",
"790 956 LINE SMOOTH",
"858 956 OFFCURVE",
"876 981 OFFCURVE",
"876 1026 CURVE SMOOTH",
"876 1042 OFFCURVE",
"872 1068 OFFCURVE",
"866 1085 CURVE"
);
},
{
closed = 1;
nodes = (
"427 609 LINE SMOOTH",
"387 609 OFFCURVE",
"327 607 OFFCURVE",
"276 607 CURVE",
"276 486 LINE",
"327 486 OFFCURVE",
"387 484 OFFCURVE",
"427 484 CURVE SMOOTH",
"776 484 LINE",
"781 505 OFFCURVE",
"783 528 OFFCURVE",
"783 545 CURVE SMOOTH",
"783 562 OFFCURVE",
"781 588 OFFCURVE",
"776 609 CURVE"
);
}
);
width = 915;
},
{
anchors = (
{
name = bottom;
position = "{246, -40}";
},
{
name = top;
position = "{530, 1188}";
}
);
layerId = "9ED2045D-B62B-46E9-A722-9499BEB4CDB9";
paths = (
{
closed = 1;
nodes = (
"286 758 LINE SMOOTH",
"286 832 OFFCURVE",
"284 910 OFFCURVE",
"284 986 CURVE SMOOTH",
"284 1078 LINE",
"210 1078 LINE",
"202 1070 LINE",
"202 0 LINE",
"208 -2 OFFCURVE",
"222 -4 OFFCURVE",
"242 -4 CURVE SMOOTH",
"262 -4 OFFCURVE",
"278 -2 OFFCURVE",
"286 0 CURVE"
);
},
{
closed = 1;
nodes = (
"258 1078 LINE",
"258 1008 LINE",
"314 1004 OFFCURVE",
"396 1002 OFFCURVE",
"504 1002 CURVE SMOOTH",
"794 1002 LINE SMOOTH",
"846 1002 OFFCURVE",
"852 1016 OFFCURVE",
"852 1042 CURVE SMOOTH",
"852 1054 OFFCURVE",
"848 1068 OFFCURVE",
"844 1078 CURVE"
);
},
{
closed = 1;
nodes = (
"408 590 LINE SMOOTH",
"372 590 OFFCURVE",
"312 588 OFFCURVE",
"254 588 CURVE",
"254 516 LINE",
"312 516 OFFCURVE",
"372 514 OFFCURVE",
"408 514 CURVE SMOOTH",
"764 514 LINE",
"766 530 OFFCURVE",
"768 540 OFFCURVE",
"768 550 CURVE SMOOTH",
"768 560 OFFCURVE",
"766 576 OFFCURVE",
"764 590 CURVE"
);
}
);
width = 916;
}
);
leftKerningGroup = b.smcp;
},
{
glyphname = g.smcp;
lastChange = "2018-11-23 02:58:08 +0000";
layers = (
{
anchors = (
{
name = bottom;
position = "{638, -40}";
},
{
name = top;
position = "{638, 1188}";
}
);
layerId = UUID1;
paths = (
{
closed = 1;
nodes = (
"958 1092 OFFCURVE",
"800 1134 OFFCURVE",
"638 1134 CURVE SMOOTH",
"328 1134 OFFCURVE",
"60 950 OFFCURVE",
"60 546 CURVE SMOOTH",
"60 202 OFFCURVE",
"220 -30 OFFCURVE",
"614 -30 CURVE SMOOTH",
"790 -30 OFFCURVE",
"1002 4 OFFCURVE",
"1092 34 CURVE",
"922 248 LINE",
"858 234 OFFCURVE",
"766 214 OFFCURVE",
"672 214 CURVE SMOOTH",
"482 214 OFFCURVE",
"398 322 OFFCURVE",
"398 544 CURVE SMOOTH",
"398 752 OFFCURVE",
"488 870 OFFCURVE",
"658 870 CURVE SMOOTH",
"756 870 OFFCURVE",
"850 844 OFFCURVE",
"948 796 CURVE",
"1010 838 OFFCURVE",
"1066 952 OFFCURVE",
"1072 1038 CURVE"
);
},
{
closed = 1;
nodes = (
"788 30 LINE",
"856 32 OFFCURVE",
"1038 30 OFFCURVE",
"1092 34 CURVE",
"1092 476 LINE",
"812 560 LINE",
"788 472 OFFCURVE",
"788 192 OFFCURVE",
"788 288 CURVE SMOOTH"
);
},
{
closed = 1;
nodes = (
"586 618 OFFCURVE",
"580 566 OFFCURVE",
"580 518 CURVE SMOOTH",
"580 428 OFFCURVE",
"632 388 OFFCURVE",
"728 388 CURVE SMOOTH",
"840 388 OFFCURVE",
"978 388 OFFCURVE",
"1092 390 CURVE",
"1092 478 LINE SMOOTH",
"1092 590 OFFCURVE",
"1044 654 OFFCURVE",
"886 654 CURVE SMOOTH",
"788 654 OFFCURVE",
"694 654 OFFCURVE",
"596 650 CURVE"
);
}
);
width = 1184;
},
{
anchors = (
{
name = bottom;
position = "{585, -40}";
},
{
name = top;
position = "{594, 1188}";
}
);
layerId = "59A137EB-1A44-4616-9625-4B79FA594CBD";
paths = (
{
closed = 1;
nodes = (
"880 1065 OFFCURVE",
"730 1109 OFFCURVE",
"591 1109 CURVE SMOOTH",
"343 1109 OFFCURVE",
"94 960 OFFCURVE",
"94 538 CURVE SMOOTH",
"94 259 OFFCURVE",
"207 -24 OFFCURVE",
"567 -24 CURVE SMOOTH",
"720 -24 OFFCURVE",
"875 10 OFFCURVE",
"982 47 CURVE",
"905 161 LINE",
"849 139 OFFCURVE",
"743 102 OFFCURVE",
"596 102 CURVE SMOOTH",
"368 102 OFFCURVE",
"254 250 OFFCURVE",
"254 536 CURVE SMOOTH",
"254 866 OFFCURVE",
"408 978 OFFCURVE",
"584 978 CURVE SMOOTH",
"707 978 OFFCURVE",
"816 941 OFFCURVE",
"901 880 CURVE",
"932 901 OFFCURVE",
"967 946 OFFCURVE",
"979 992 CURVE"
);
},
{
closed = 1;
nodes = (
"834 43 LINE",
"904 45 OFFCURVE",
"930 43 OFFCURVE",
"982 47 CURVE",
"982 463 LINE",
"861 530 LINE",
"839 478 OFFCURVE",
"834 378 OFFCURVE",
"834 332 CURVE SMOOTH"
);
},
{
closed = 1;
nodes = (
"584 542 OFFCURVE",
"580 515 OFFCURVE",
"580 499 CURVE SMOOTH",
"580 451 OFFCURVE",
"605 430 OFFCURVE",
"652 430 CURVE SMOOTH",
"747 430 OFFCURVE",
"877 430 OFFCURVE",
"982 436 CURVE",
"982 467 LINE SMOOTH",
"982 531 OFFCURVE",
"953 563 OFFCURVE",
"846 563 CURVE SMOOTH",
"758 563 OFFCURVE",
"675 561 OFFCURVE",
"590 559 CURVE"
);
}
);
width = 1102;
},
{
anchors = (
{
name = bottom;
position = "{568, -40}";
},
{
name = top;
position = "{580, 1188}";
}
);
layerId = "9ED2045D-B62B-46E9-A722-9499BEB4CDB9";
paths = (
{
closed = 1;
nodes = (
"854 1056 OFFCURVE",
"706 1100 OFFCURVE",
"574 1100 CURVE SMOOTH",
"350 1100 OFFCURVE",
"108 964 OFFCURVE",
"108 536 CURVE SMOOTH",
"108 280 OFFCURVE",
"204 -22 OFFCURVE",
"550 -22 CURVE SMOOTH",
"696 -22 OFFCURVE",
"830 12 OFFCURVE",
"942 52 CURVE",
"900 128 LINE",
"846 104 OFFCURVE",
"736 60 OFFCURVE",
"570 60 CURVE SMOOTH",
"328 60 OFFCURVE",
"202 224 OFFCURVE",
"202 534 CURVE SMOOTH",
"202 908 OFFCURVE",
"380 1018 OFFCURVE",
"558 1018 CURVE SMOOTH",
"690 1018 OFFCURVE",
"806 976 OFFCURVE",
"884 910 CURVE",
"906 924 OFFCURVE",
"932 944 OFFCURVE",
"946 976 CURVE"
);
},
{
closed = 1;
nodes = (
"852 48 LINE",
"884 48 OFFCURVE",
"892 48 OFFCURVE",
"942 52 CURVE",
"942 458 LINE",
"882 518 LINE",
"860 480 OFFCURVE",
"852 448 OFFCURVE",
"852 348 CURVE SMOOTH"
);
},
{
closed = 1;
nodes = (
"584 518 OFFCURVE",
"582 506 OFFCURVE",
"582 492 CURVE SMOOTH",
"582 460 OFFCURVE",
"598 446 OFFCURVE",
"626 446 CURVE SMOOTH",
"714 446 OFFCURVE",
"842 446 OFFCURVE",
"942 452 CURVE",
"942 462 LINE SMOOTH",
"942 510 OFFCURVE",
"922 530 OFFCURVE",
"834 530 CURVE SMOOTH",
"748 530 OFFCURVE",
"668 530 OFFCURVE",
"588 530 CURVE"
);
}
);
width = 1102;
}
);
leftKerningGroup = c.smcp;
},
{
glyphname = h.smcp;
lastChange = "2018-11-23 02:58:08 +0000";
layers = (
{
anchors = (
{
name = bottom;
position = "{634, -40}";
},
{
name = top;
position = "{634, 1188}";
}
);
layerId = UUID1;
paths = (
{
closed = 1;
nodes = (
"716 438 LINE SMOOTH",
"746 438 OFFCURVE",
"770 440 OFFCURVE",
"800 440 CURVE SMOOTH",
"866 440 OFFCURVE",
"928 438 OFFCURVE",
"994 438 CURVE",
"994 706 LINE",
"928 706 OFFCURVE",
"866 704 OFFCURVE",
"800 704 CURVE SMOOTH",
"770 704 OFFCURVE",
"746 706 OFFCURVE",
"716 706 CURVE SMOOTH",
"556 706 LINE SMOOTH",
"526 706 OFFCURVE",
"500 704 OFFCURVE",
"470 704 CURVE SMOOTH",
"406 704 OFFCURVE",
"338 706 OFFCURVE",
"272 706 CURVE",
"272 438 LINE",
"338 438 OFFCURVE",
"406 440 OFFCURVE",
"470 440 CURVE SMOOTH",
"500 440 OFFCURVE",
"526 438 OFFCURVE",
"556 438 CURVE SMOOTH"
);
},
{
closed = 1;
nodes = (
"472 322 LINE SMOOTH",
"472 368 OFFCURVE",
"470 398 OFFCURVE",
"470 440 CURVE SMOOTH",
"470 704 LINE SMOOTH",
"470 746 OFFCURVE",
"472 778 OFFCURVE",
"472 822 CURVE SMOOTH",
"472 1104 LINE",
"416 1116 OFFCURVE",
"352 1118 OFFCURVE",
"310 1118 CURVE SMOOTH",
"272 1118 OFFCURVE",
"194 1116 OFFCURVE",
"140 1104 CURVE",
"140 0 LINE",
"194 -10 OFFCURVE",
"272 -12 OFFCURVE",
"310 -12 CURVE SMOOTH",
"352 -12 OFFCURVE",
"416 -10 OFFCURVE",
"472 0 CURVE"
);
},
{
closed = 1;
nodes = (
"798 0 LINE",
"856 -10 OFFCURVE",
"920 -12 OFFCURVE",
"964 -12 CURVE",
"1008 -12 OFFCURVE",
"1072 -10 OFFCURVE",
"1130 0 CURVE",
"1130 1104 LINE",
"1076 1116 OFFCURVE",
"998 1118 OFFCURVE",
"960 1118 CURVE SMOOTH",
"918 1118 OFFCURVE",
"854 1116 OFFCURVE",
"798 1104 CURVE",
"798 822 LINE SMOOTH",
"798 778 OFFCURVE",
"800 746 OFFCURVE",
"800 704 CURVE SMOOTH",
"800 440 LINE SMOOTH",
"800 398 OFFCURVE",
"798 368 OFFCURVE",
"798 322 CURVE SMOOTH"
);
}
);
width = 1270;
},
{
anchors = (
{
name = bottom;
position = "{606, -40}";
},
{
name = top;
position = "{606, 1188}";
}
);
layerId = "59A137EB-1A44-4616-9625-4B79FA594CBD";
paths = (
{
closed = 1;
nodes = (
"773 501 LINE SMOOTH",
"786 501 OFFCURVE",
"865 503 OFFCURVE",
"880 503 CURVE SMOOTH",
"910 503 OFFCURVE",
"939 501 OFFCURVE",
"969 501 CURVE",
"969 630 LINE",
"939 630 OFFCURVE",
"910 628 OFFCURVE",
"880 628 CURVE SMOOTH",
"865 628 OFFCURVE",
"786 630 OFFCURVE",
"773 630 CURVE SMOOTH",
"438 630 LINE SMOOTH",
"425 630 OFFCURVE",
"346 628 OFFCURVE",
"331 628 CURVE SMOOTH",
"302 628 OFFCURVE",
"272 630 OFFCURVE",
"244 630 CURVE",
"244 501 LINE",
"272 501 OFFCURVE",
"302 503 OFFCURVE",
"331 503 CURVE SMOOTH",
"346 503 OFFCURVE",
"425 501 OFFCURVE",
"438 501 CURVE SMOOTH"
);
},
{
closed = 1;
nodes = (
"333 383 LINE SMOOTH",
"333 429 OFFCURVE",
"331 459 OFFCURVE",
"331 503 CURVE SMOOTH",
"331 628 LINE SMOOTH",
"331 670 OFFCURVE",
"333 700 OFFCURVE",
"333 746 CURVE SMOOTH",
"333 1085 LINE",
"312 1089 OFFCURVE",
"284 1091 OFFCURVE",
"257 1091 CURVE SMOOTH",
"232 1091 OFFCURVE",
"202 1089 OFFCURVE",
"182 1085 CURVE",
"182 0 LINE",
"202 -4 OFFCURVE",
"232 -6 OFFCURVE",
"257 -6 CURVE SMOOTH",
"284 -6 OFFCURVE",
"312 -4 OFFCURVE",
"333 0 CURVE"
);
},
{
closed = 1;
nodes = (
"878 0 LINE",
"898 -4 OFFCURVE",
"926 -6 OFFCURVE",
"953 -6 CURVE",
"980 -6 OFFCURVE",
"1007 -4 OFFCURVE",
"1029 0 CURVE",
"1029 1085 LINE",
"1008 1089 OFFCURVE",
"979 1091 OFFCURVE",
"952 1091 CURVE SMOOTH",
"926 1091 OFFCURVE",
"898 1089 OFFCURVE",
"878 1085 CURVE",
"878 746 LINE SMOOTH",
"878 700 OFFCURVE",
"880 670 OFFCURVE",
"880 628 CURVE SMOOTH",
"880 503 LINE SMOOTH",
"880 459 OFFCURVE",
"878 429 OFFCURVE",
"878 383 CURVE SMOOTH"
);
}
);
width = 1211;
},
{
anchors = (
{
name = bottom;
position = "{596, -40}";
},
{
name = top;
position = "{596, 1188}";
}
);
layerId = "9ED2045D-B62B-46E9-A722-9499BEB4CDB9";
paths = (
{
closed = 1;
nodes = (
"796 524 LINE SMOOTH",
"802 524 OFFCURVE",
"902 526 OFFCURVE",
"912 526 CURVE SMOOTH",
"928 526 OFFCURVE",
"946 524 OFFCURVE",
"962 524 CURVE",
"962 602 LINE",
"946 602 OFFCURVE",
"928 600 OFFCURVE",
"912 600 CURVE SMOOTH",
"902 600 OFFCURVE",
"802 602 OFFCURVE",
"796 602 CURVE SMOOTH",
"396 602 LINE SMOOTH",
"390 602 OFFCURVE",
"292 600 OFFCURVE",
"282 600 CURVE SMOOTH",
"264 600 OFFCURVE",
"248 602 OFFCURVE",
"234 602 CURVE",
"234 524 LINE",
"248 524 OFFCURVE",
"264 526 OFFCURVE",
"282 526 CURVE SMOOTH",
"292 526 OFFCURVE",
"390 524 OFFCURVE",
"396 524 CURVE SMOOTH"
);
},
{
closed = 1;
nodes = (
"284 406 LINE SMOOTH",
"284 452 OFFCURVE",
"282 482 OFFCURVE",
"282 526 CURVE SMOOTH",
"282 600 LINE SMOOTH",
"282 642 OFFCURVE",
"284 672 OFFCURVE",
"284 718 CURVE SMOOTH",
"284 1078 LINE",
"274 1080 OFFCURVE",
"260 1082 OFFCURVE",
"240 1082 CURVE SMOOTH",
"220 1082 OFFCURVE",
"206 1080 OFFCURVE",
"200 1078 CURVE",
"200 0 LINE",
"206 -2 OFFCURVE",
"220 -4 OFFCURVE",
"240 -4 CURVE SMOOTH",
"260 -4 OFFCURVE",
"274 -2 OFFCURVE",
"284 0 CURVE"
);
},
{
closed = 1;
nodes = (
"910 0 LINE",
"916 -2 OFFCURVE",
"930 -4 OFFCURVE",
"950 -4 CURVE",
"970 -4 OFFCURVE",
"986 -2 OFFCURVE",
"994 0 CURVE",
"994 1078 LINE",
"984 1080 OFFCURVE",
"974 1082 OFFCURVE",
"952 1082 CURVE SMOOTH",
"930 1082 OFFCURVE",
"916 1080 OFFCURVE",
"910 1078 CURVE",
"910 718 LINE SMOOTH",
"910 672 OFFCURVE",
"912 642 OFFCURVE",
"912 600 CURVE SMOOTH",
"912 526 LINE SMOOTH",
"912 482 OFFCURVE",
"910 452 OFFCURVE",
"910 406 CURVE SMOOTH"
);
}
);
width = 1212;
}
);
leftKerningGroup = b.smcp;
rightKerningGroup = h.smcp;
},
{
glyphname = i.smcp;
lastChange = "2018-11-23 02:58:08 +0000";
layers = (
{
anchors = (
{
name = bottom;
position = "{314, -40}";
},
{
name = top;
position = "{314, 1188}";
}
);
layerId = UUID1;
paths = (
{
closed = 1;
nodes = (
"144 0 LINE",
"198 -10 OFFCURVE",
"276 -12 OFFCURVE",
"314 -12 CURVE SMOOTH",
"356 -12 OFFCURVE",
"420 -10 OFFCURVE",
"476 0 CURVE",
"476 1104 LINE",
"420 1114 OFFCURVE",
"356 1116 OFFCURVE",
"314 1116 CURVE SMOOTH",
"276 1116 OFFCURVE",
"198 1114 OFFCURVE",
"144 1104 CURVE"
);
}
);
width = 620;
},
{
anchors = (
{
name = bottom;
position = "{265, -40}";
},
{
name = top;
position = "{265, 1188}";
}
);
layerId = "59A137EB-1A44-4616-9625-4B79FA594CBD";
paths = (
{
closed = 1;
nodes = (
"190 0 LINE",
"209 -4 OFFCURVE",
"240 -6 OFFCURVE",
"265 -6 CURVE SMOOTH",
"291 -6 OFFCURVE",
"319 -4 OFFCURVE",
"341 0 CURVE",
"341 1085 LINE",
"319 1089 OFFCURVE",
"291 1091 OFFCURVE",
"265 1091 CURVE SMOOTH",
"240 1091 OFFCURVE",
"209 1089 OFFCURVE",
"190 1085 CURVE"
);
}
);
width = 531;
},
{
anchors = (
{
name = bottom;
position = "{256, -40}";
},
{
name = top;
position = "{256, 1188}";
}
);
layerId = "9ED2045D-B62B-46E9-A722-9499BEB4CDB9";
paths = (
{
closed = 1;
nodes = (
"216 0 LINE",
"224 -2 OFFCURVE",
"236 -4 OFFCURVE",
"256 -4 CURVE SMOOTH",
"278 -4 OFFCURVE",
"292 -2 OFFCURVE",
"302 0 CURVE",
"302 1078 LINE",
"292 1080 OFFCURVE",
"278 1082 OFFCURVE",
"256 1082 CURVE SMOOTH",
"236 1082 OFFCURVE",
"224 1080 OFFCURVE",
"216 1078 CURVE"
);
}
);
width = 530;
}
);
leftKerningGroup = b.smcp;
rightKerningGroup = h.smcp;
},
